<?xml version="1.0" encoding="utf-8"?>
<!-- Generator: Adobe Illustrator 16.0.0, SVG Export Plug-In . SVG Version: 6.00 Build 0)  -->
<!DOCTYPE svg PUBLIC "-//W3C//DTD SVG 1.1//EN" "http://www.w3.org/Graphics/SVG/1.1/DTD/svg11.dtd">
<svg version="1.1" xmlns="http://www.w3.org/2000/svg" xmlns:xlink="http://www.w3.org/1999/xlink" x="0px" y="0px"
	 width="96.428px" height="87.125px" viewBox="0 0 96.428 87.125" enable-background="new 0 0 96.428 87.125" xml:space="preserve">
<g id="Layer_1">
</g>
<g id="Layer_2">
	<g>
		<g>
			<g>
				<path fill-rule="evenodd" clip-rule="evenodd" fill="#E52240" d="M87.49,41.687c0.91,5.341,2.764,10.431,4.03,15.687
					c0.292,1.25,0.606,2.527,0.934,3.862c-1.563,0.597-3.011,0.381-4.399,0.284c-2.01-0.17-2.43,0.754-2.395,2.531
					c0.064,4.682-0.012,9.379-0.035,14.063c-0.004,0.72,0.041,1.449-0.02,2.169c-0.216,2.456-1.472,3.81-3.472,3.786
					c-2.011-0.026-3.303-1.411-3.33-3.879c-0.05-5.067,0.027-10.108,0.035-15.174c0-0.842-0.008-1.693-0.047-2.52
					c-0.015-0.347-0.187-0.686-0.587-0.77c-0.616-0.118-0.859,0.307-0.863,0.793c-0.059,1.68-0.082,3.368-0.094,5.053
					c-0.008,3.738-0.027,7.467-0.051,11.195c0,0.715,0.057,1.462-0.067,2.17c-0.317,1.848-1.722,3.058-3.439,3.087
					c-1.869,0.018-3.306-1.304-3.425-3.433c-0.116-2.283-0.02-4.576-0.008-6.874c0.008-2.768,0.041-5.529,0.035-8.291
					c-0.016-4.479,0.461-3.897-3.738-3.954c-0.838-0.023-1.669-0.023-2.909-0.023c1.303-7.152,4.002-13.701,5.3-20.572
					c0.352-1.567,0.177-3.219,0.675-4.313c-0.074,0.767-0.502,1.83-1.439,2.647c-0.955,2.982-1.844,5.984-2.898,8.923
					c-0.861,2.415-1.45,2.811-4.025,2.202c-1.171-0.292-1.508,0.138-1.932,0.887c-1.422,2.532-2.834,5.041-4.25,7.57
					c-0.731,1.328-0.871,2.68-0.443,4.176c0.774,2.65,1.432,5.338,2.159,8.003c0.187,0.724,0.486,1.618-0.572,1.659
					c-1.97,0.102-1.948,1.32-1.915,2.729c0.04,1.932,0.067,3.867-0.045,5.787c-0.098,1.789-1.187,2.813-2.661,2.779
					c-1.447-0.021-2.472-1.09-2.562-2.871c-0.089-1.93,0.041-3.861-0.025-5.793c-0.016-0.764,0.405-1.709-0.548-2.289
					c-1.159,0.025-0.845,0.945-0.868,1.541c-0.054,2.172,0.037,4.341-0.065,6.52c-0.098,1.803-1.13,2.822-2.601,2.871
					c-1.496,0.021-2.646-0.947-2.783-2.758c-0.155-2.021-0.02-4.095-0.055-6.133c-0.01-0.808,0.272-2.047-0.724-2.181
					c-2.195-0.267-1.688-1.507-1.299-2.83c0.104-0.335,0.237-0.669,0.33-1.015c2.518-9.214,2.393-9.924-2.874-17.793
					c-0.502-0.759-0.849-1.035-1.957-0.763c-2.938,0.665-3.901-0.198-3.964-3.335c-0.082-3.975,0.02-7.949,0.027-11.937
					c-0.008-0.965-0.008-1.928-0.07-2.891c-0.039-0.603-0.233-1.208-1.048-1.116c-0.6,0.078-0.733,0.561-0.763,1.039
					c-0.047,0.967-0.07,1.93-0.08,2.899c-0.058,14.224-0.12,28.445-0.179,42.659c-0.01,0.969,0.078,1.951-0.101,2.896
					c-0.353,1.867-2.073,3.178-3.871,3.127c-1.665-0.041-3.256-1.297-3.617-3.021c-0.206-0.934-0.129-1.922-0.121-2.882
					c0.031-7.719,0.078-15.418,0.078-23.131c0-1.135,0.385-2.388-0.82-3.471c-1.288,0.744-0.888,1.932-0.896,2.873
					c-0.069,7.594-0.073,15.189-0.128,22.787c-0.016,1.182-0.023,2.415-0.272,3.584c-0.469,2.142-2.242,3.432-4.135,3.219
					c-1.782-0.204-3.197-1.664-3.408-3.672c-0.089-0.938-0.019-1.918-0.019-2.883c0.062-14.211,0.147-28.441,0.147-42.672
					c0-1.18,0.792-3.275-0.881-3.354c-1.854-0.07-1.016,2.065-1.063,3.211c-0.138,3.258-0.018,6.512-0.099,9.766
					c-0.072,2.439,0.054,4.627-1.739,7.008c-1.571,2.064-1.369,5.484-1.916,8.318c-1.314,6.851-2.605,13.711-3.903,20.561
					c-0.031,0.127,0,0.265-0.07,0.363c-0.575,0.893,0.07,2.963-1.65,2.639c-1.843-0.351-0.631-1.986-0.442-3.002
					c1.647-8.758,3.377-17.479,5.036-26.213c0.274-1.501,0.759-3.014-0.267-4.537c-0.406-0.61-0.288-1.637-0.288-2.46
					c0-5.784,0.261-11.585-0.008-17.362c-0.175-3.932,3.187-8.563,7.761-8.916c5.527-0.445,11.086-0.561,16.587,0.097
					c4.747,0.545,7.636,4.12,7.708,8.972c0.087,5.052-0.012,10.126-0.043,15.191c0,1.133-0.043,2.131,1.661,1.999
					c1.044-0.072,1.616,0.887,2.11,1.761c0.548,0.926,1.174,1.822,1.688,2.773c0.889,1.607,2.108,2.578,4.077,2.285
					c0.467-0.07,0.984-0.09,1.432,0c3.641,0.74,5.932-0.813,7.426-4.073c0.64-1.371,1.354-2.913,3.39-2.7
					c1.251,0.143,1.21-0.943,1.441-1.689c1.439-4.578,2.844-9.188,4.313-13.767c0.358-1.136,0.771-2.281,1.345-3.325
					c1.301-2.402,3.238-3.744,6.132-3.669c3.962,0.124,7.955,0.181,11.927,0.023c3.4-0.114,5.686,1.489,6.71,4.44
					c2.054,5.904,3.816,11.907,5.532,17.913c0.618,2.171-0.312,3.64-1.982,4.03c-1.484,0.336-2.705-0.443-3.415-2.498
					c-0.943-2.738-1.714-5.512-2.581-8.258c-1.116-0.939-1.326-2.297-1.438-2.943C87.15,38.158,87.261,39.939,87.49,41.687z"/>
				<path fill-rule="evenodd" clip-rule="evenodd" fill="#E52240" d="M21.104,18.016c-3.808-0.023-6.977-3.162-6.906-6.871
					c0.068-3.641,3.468-6.875,7.103-6.778c3.675,0.122,6.51,3.065,6.545,6.802C27.881,15.112,25.018,18.016,21.104,18.016z"/>
				<path fill-rule="evenodd" clip-rule="evenodd" fill="#E52240" d="M84.717,15c0.035,3.512-2.848,6.391-6.392,6.438
					c-3.582,0.07-6.453-2.659-6.546-6.221c-0.105-3.734,2.797-6.677,6.518-6.646C81.811,8.606,84.693,11.506,84.717,15z"/>
				<path fill-rule="evenodd" clip-rule="evenodd" fill="#E52240" d="M48.51,39.817c3.107,0.054,5.321,2.409,5.22,5.566
					c-0.082,2.897-2.395,5.204-5.255,5.239c-2.91,0.047-5.546-2.559-5.544-5.449C42.938,42.193,45.47,39.786,48.51,39.817z"/>
			</g>
		</g>
	</g>
</g>
</svg>
