<?xml version="1.0" encoding="utf-8"?>
<!-- Generator: Adobe Illustrator 16.0.0, SVG Export Plug-In . SVG Version: 6.00 Build 0)  -->
<!DOCTYPE svg PUBLIC "-//W3C//DTD SVG 1.1//EN" "http://www.w3.org/Graphics/SVG/1.1/DTD/svg11.dtd">
<svg version="1.1" id="Layer_1" xmlns="http://www.w3.org/2000/svg" xmlns:xlink="http://www.w3.org/1999/xlink" x="0px" y="0px"
	 width="96.428px" height="87.125px" viewBox="0 0 96.428 87.125" enable-background="new 0 0 96.428 87.125" xml:space="preserve">
<g>
	<path fill-rule="evenodd" clip-rule="evenodd" fill="#A21E45" d="M82.375,34.939c3.576,12.437,1.746,24.103-5.727,34.579
		c-8.693,12.229-20.93,17.911-35.836,16.925C23.289,85.269,8.086,72.274,3.484,55.25C-3.315,30.131,13.119,5.103,38.99,1.59
		c12.365-1.698,23.492,1.698,33.151,9.661c1.869,1.557,1.869,2.002,0.193,3.664c-1.156,1.157-2.332,2.289-3.485,3.431
		c-0.803,0.802-1.621,0.888-2.508,0.147c-0.326-0.28-0.666-0.545-0.991-0.816C44.71,1.104,14.149,12.481,9.571,38.554
		c-2.383,13.583,2.473,24.802,12.626,33.61c21.336,18.493,54.564,6.71,59.842-21.037c0.841-4.442,0.883-8.868,0.016-13.312
		c-0.11-0.59-0.125-1.189-0.188-1.791C81.678,35.5,81.407,34.935,82.375,34.939z"/>
	<path fill-rule="evenodd" clip-rule="evenodd" fill="#A21E45" d="M45.05,56.629c-5.159,0-10.301,0.02-15.459,0.02
		c-2.247-0.02-2.258-0.051-2.298-2.333c-0.008-1.545,0.051-3.093-0.016-4.637c-0.042-1.288,0.404-1.892,1.779-1.822
		c1.713,0.081,3.433,0.02,5.15,0.02c8.756-0.02,17.519-0.034,26.277-0.034c2.365,0,2.371,0.034,2.383,2.43
		c0.012,1.204,0.012,2.408,0,3.612c0,2.705-0.008,2.714-2.627,2.733C55.179,56.629,50.113,56.629,45.05,56.629z"/>
	<path fill-rule="evenodd" clip-rule="evenodd" fill="#A21E45" d="M45.046,33.146c5.151,0,10.3-0.016,15.458-0.016
		c2.327,0,2.327,0,2.35,2.433c0.004,1.29,0.012,2.579,0.004,3.863c-0.026,2.304-0.031,2.327-2.227,2.354
		c-1.115,0.01-2.234,0-3.346,0.01c-8.948,0-17.889,0.016-26.831,0.016c-0.603,0-1.201,0-1.807,0c-0.973,0-1.371-0.499-1.359-1.45
		c0.004-1.8,0.081-3.615-0.045-5.416c-0.077-1.413,0.549-1.792,1.819-1.779c3.785,0.023,7.557-0.014,11.336-0.014
		c1.549-0.016,3.096-0.016,4.647-0.016V33.146z"/>
	<path fill-rule="evenodd" clip-rule="evenodd" fill="#A21E45" d="M82.375,34.939c-0.421,0.252-0.414,0.685-0.509,1.085
		c-1.258-3.942-2.925-7.71-4.746-11.422c0.21-0.198,0.428-0.198,0.636,0C79.863,27.793,81.528,31.191,82.375,34.939z"/>
	<path fill-rule="evenodd" clip-rule="evenodd" fill="#A21E45" d="M76.566,23.707c-0.491-0.454-0.907-0.962-0.846-1.695l-0.02,0.013
		c0.729,0.165,0.977,0.761,1.208,1.377C76.937,23.656,76.821,23.765,76.566,23.707z"/>
	<path fill-rule="evenodd" clip-rule="evenodd" fill="#A21E45" d="M77.756,24.603c-0.208,0-0.426,0-0.636,0
		c-0.386-0.18-0.452-0.547-0.555-0.896c0.116-0.107,0.231-0.204,0.343-0.305C77.334,23.699,77.636,24.091,77.756,24.603z"/>
	<path fill-rule="evenodd" clip-rule="evenodd" fill="#A21E45" d="M75.72,22.012c-0.232-0.016-0.318-0.097-0.271-0.256
		c0.006-0.014,0.15,0,0.171,0.034c0.046,0.062,0.046,0.167,0.081,0.235L75.72,22.012z"/>
</g>
</svg>
