<?xml version="1.0" encoding="utf-8"?>
<!-- Generator: Adobe Illustrator 16.0.0, SVG Export Plug-In . SVG Version: 6.00 Build 0)  -->
<!DOCTYPE svg PUBLIC "-//W3C//DTD SVG 1.1//EN" "http://www.w3.org/Graphics/SVG/1.1/DTD/svg11.dtd">
<svg version="1.1" id="Layer_1" xmlns="http://www.w3.org/2000/svg" xmlns:xlink="http://www.w3.org/1999/xlink" x="0px" y="0px"
	 width="96.428px" height="87.125px" viewBox="0 0 96.428 87.125" enable-background="new 0 0 96.428 87.125" xml:space="preserve">
<g>
	<path fill-rule="evenodd" clip-rule="evenodd" fill="#F59C2E" d="M26.842,46.793c0.039-10.564,0.074-21.137,0.116-31.72
		c0-0.536,0.045-1.079,0-1.626c-0.065-0.962,0.323-1.339,1.315-1.314c2.311,0.061,4.627,0.026,6.944,0.038
		c3.623,0.008,7.233,0.023,10.849,0.033c1.991,0.018,2.005,0.025,1.991,2.039C48.002,30.2,47.95,46.156,47.905,62.121
		c-0.027,5.871-0.041,11.729-0.074,17.595c-0.006,2.072-0.028,2.084-2.017,2.084c-5.723-0.012-11.459-0.03-17.189-0.063
		c-1.88-0.018-1.904-0.032-1.888-1.984C26.758,68.77,26.805,57.782,26.842,46.793z"/>
	<path fill-rule="evenodd" clip-rule="evenodd" fill="#F59C2E" d="M71.67,53.55c-0.021,8.547-0.057,17.071-0.083,25.599
		c0,0.405,0.006,0.827-0.013,1.214c-0.049,1.555-0.055,1.589-1.636,1.589c-5.941-0.01-11.885-0.034-17.812-0.069
		c-1.52,0-1.552-0.023-1.552-1.629c0.028-9.551,0.08-19.109,0.084-28.655c0-0.952,0.286-1.692,0.875-2.411
		c6.164-7.739,12.316-15.495,18.467-23.238c0.168-0.215,0.34-0.434,0.508-0.636c0.245-0.296,0.556-0.401,0.908-0.272
		c0.313,0.118,0.325,0.412,0.338,0.675c0.017,0.551,0.015,1.095,0.015,1.641C71.74,36.09,71.71,44.821,71.67,53.55z"/>
	<path fill-rule="evenodd" clip-rule="evenodd" fill="#F59C2E" d="M73.947,70.919c0.011-3,0.011-6.004,0.036-9.002
		c0.016-1.598,0.041-1.63,1.542-1.63c6.137,0,12.28,0.032,18.414,0.063c1.519,0.013,1.557,0.046,1.557,1.666
		c-0.006,6.124-0.025,12.266-0.07,18.405c-0.009,1.586-0.046,1.621-1.567,1.621c-6.139-0.015-12.281-0.035-18.414-0.062
		c-1.497-0.017-1.523-0.053-1.523-1.644C73.919,77.19,73.94,74.063,73.947,70.919z"/>
	<path fill-rule="evenodd" clip-rule="evenodd" fill="#F59C2E" d="M23.985,72.925c-0.007,2.322-0.007,4.638-0.033,6.951
		c-0.019,1.646-0.042,1.655-1.745,1.685c-1.357,0.006-2.721,0-4.084-0.029c-1.59-0.022-1.613-0.039-1.622-1.563
		c-0.02-2.462,0.019-4.919,0.016-7.368c-0.012-1.646-0.055-1.687-1.742-1.708c-1.367-0.038-2.725,0-4.085-0.038
		c-0.954-0.02-1.344,0.392-1.328,1.353c0.032,2.313,0.002,4.629-0.017,6.942c-0.022,2.621,0.249,2.344-2.466,2.36
		c-1.164,0-2.311-0.032-3.471-0.017c-0.831,0.029-1.26-0.274-1.247-1.173c0.026-4.971,0.044-9.941,0.048-14.914
		c0-1.012,0.563-1.229,1.455-1.212c2.786,0.029,5.578,0.014,8.37,0.029c3.397,0.019,6.813,0.019,10.215,0.032
		c1.685,0.035,1.742,0.093,1.75,1.721C24.017,68.291,23.99,70.613,23.985,72.925z"/>
	<path fill-rule="evenodd" clip-rule="evenodd" fill="#F59C2E" d="M13.049,62.521c-3.135-0.013-6.273-0.013-9.409-0.048
		c-0.436,0-1.011,0.204-1.21-0.433c-0.149-0.42,0.2-0.751,0.438-1.066c3.074-3.999,6.125-8.008,9.221-11.983
		c0.973-1.25,1.205-1.239,2.132-0.048c3.074,3.988,6.138,8.004,9.191,11.988c0.275,0.371,0.759,0.705,0.504,1.242
		c-0.258,0.547-0.824,0.373-1.271,0.373C19.444,62.547,16.254,62.521,13.049,62.521z"/>
	<path fill-rule="evenodd" clip-rule="evenodd" fill="#F59C2E" d="M84.567,58.729c-3.059-0.011-6.127-0.055-9.176-0.026
		c-1.057,0.016-1.434-0.324-1.408-1.397c0.142-4.418-0.584-3.589,3.454-3.615c5.438-0.042,10.884,0.026,16.32,0.053
		c1.646,0.005,1.646,0.027,1.668,1.684c0.045,3.343,0.045,3.343-3.309,3.333C89.596,58.743,87.08,58.729,84.567,58.729z"/>
	<path fill-rule="evenodd" clip-rule="evenodd" fill="#FFFFFF" d="M30.335,47.701c0.029-3.125-0.223-2.719,2.722-2.734
		c0.274,0,0.542,0,0.814,0c1.532,0.054,1.532,0.066,1.579,1.647c0,0.133,0,0.265,0,0.399c-0.106,4.081,0.741,3.533-3.742,3.596
		c-1.074,0.017-1.48-0.454-1.387-1.489C30.367,48.648,30.332,48.18,30.335,47.701z"/>
	<path fill-rule="evenodd" clip-rule="evenodd" fill="#FFFFFF" d="M44.464,47.902c-0.02,3.015,0.198,2.724-2.757,2.726
		c-0.278,0-0.556,0-0.824-0.002c-1.425-0.069-1.499-0.138-1.544-1.506c-0.01-0.322,0-0.68,0.006-1.007
		c0.052-3.635-0.417-3.08,3.161-3.093c1.926-0.021,1.926,0.013,1.959,1.858C44.464,47.217,44.464,47.563,44.464,47.902z"/>
	<path fill-rule="evenodd" clip-rule="evenodd" fill="#FFFFFF" d="M30.248,71.087c0-0.195,0-0.415,0.006-0.614
		c0.023-1.996,0.023-2.014,2.045-1.996c3.498,0.004,3.044-0.313,3.067,3.005c0,0.271,0,0.542-0.003,0.807
		c-0.052,1.761-0.052,1.761-1.843,1.774c-0.067,0-0.132,0-0.206,0C29.846,73.987,30.277,74.529,30.248,71.087z"/>
	<path fill-rule="evenodd" clip-rule="evenodd" fill="#FFFFFF" d="M44.38,71.272c-0.026,3.39,0.116,2.767-2.828,2.815
		c-0.408,0-0.818-0.025-1.223,0c-0.782,0.028-1.092-0.353-1.078-1.109c0.022-1.146,0.022-2.307,0.016-3.46
		c-0.004-0.667,0.342-0.994,0.984-1.014c0.473-0.011,0.948-0.008,1.422-0.008C44.7,68.497,44.369,68.334,44.38,71.272z"/>
	<path fill-rule="evenodd" clip-rule="evenodd" fill="#FFFFFF" d="M44.496,36.224c0,3.234-0.01,2.6-2.569,2.651
		c-0.406,0.007-0.82-0.032-1.228,0c-0.943,0.081-1.36-0.326-1.324-1.291c0.036-1.017,0.042-2.034,0.01-3.043
		c-0.026-0.85,0.304-1.277,1.16-1.264c0.338,0.01,0.682,0,1.018,0C44.862,33.313,44.496,32.986,44.496,36.224z"/>
	<path fill-rule="evenodd" clip-rule="evenodd" fill="#FFFFFF" d="M30.37,35.915c0.054-2.556-0.511-2.702,2.608-2.681
		c2.818,0.034,2.523-0.108,2.508,2.752c-0.007,3.398,0.161,2.824-2.792,2.846c-2.324,0.024-2.324-0.008-2.324-2.305
		C30.37,36.316,30.37,36.112,30.37,35.915z"/>
	<path fill-rule="evenodd" clip-rule="evenodd" fill="#FFFFFF" d="M35.408,59.722c-0.036,2.845,0.239,2.532-2.468,2.532
		c-2.896-0.017-2.663,0.268-2.641-2.592c0.022-3.208-0.385-2.819,2.78-2.839c0.21,0,0.41,0,0.607,0.002
		c1.681,0.033,1.681,0.033,1.723,1.683C35.422,58.912,35.408,59.32,35.408,59.722z"/>
	<path fill-rule="evenodd" clip-rule="evenodd" fill="#FFFFFF" d="M44.412,59.563c0,3.164,0.116,2.691-2.775,2.723
		c-0.41,0-0.822-0.012-1.226,0c-0.758,0.021-1.156-0.299-1.104-1.09c0.004-0.218-0.016-0.406,0-0.617
		c0.123-4.42-0.769-3.631,3.778-3.735c0.964-0.02,1.412,0.33,1.338,1.288C44.386,58.619,44.412,59.096,44.412,59.563z"/>
	<path fill-rule="evenodd" clip-rule="evenodd" fill="#FFFFFF" d="M30.419,24.165c0.045-2.881-0.32-2.57,2.644-2.562
		c2.55,0.017,2.482-0.437,2.469,2.543c-0.016,3.392,0.204,2.855-2.967,2.884c-0.138,0-0.271,0-0.407,0
		c-1.713-0.029-1.713-0.029-1.739-1.661C30.416,24.971,30.419,24.572,30.419,24.165z"/>
	<path fill-rule="evenodd" clip-rule="evenodd" fill="#FFFFFF" d="M39.432,24.344c0.048-3.079-0.372-2.707,2.686-2.69
		c2.378,0,2.44-0.472,2.424,2.38c-0.03,3.564,0.232,2.983-3.032,3.031c-0.197,0.016-0.404,0.016-0.601,0
		c-1.435-0.058-1.441-0.058-1.48-1.508C39.416,25.158,39.428,24.745,39.432,24.344z"/>
	<path fill-rule="evenodd" clip-rule="evenodd" fill="#FFFFFF" d="M60.135,48.705c-0.008,1.228-0.028,2.45-0.008,3.673
		c0.008,0.778-0.341,1.128-1.098,1.114c-1.565-0.002-3.128,0.038-4.683-0.037c-1.044-0.032-1.421-0.713-0.918-1.674
		c0.342-0.652,0.852-1.225,1.328-1.803c1.351-1.706,2.724-3.383,4.106-5.059c0.25-0.311,0.491-0.742,0.983-0.545
		c0.484,0.201,0.28,0.709,0.288,1.065C60.16,46.532,60.135,47.619,60.135,48.705z"/>
	<path fill-rule="evenodd" clip-rule="evenodd" fill="#F59C2E" d="M56.587,60.458c0.053,0-0.013,0-0.081,0
		c-3.365,0.055-3.914-0.617-3.262-3.904c0.111-0.547,0.368-0.851,0.936-0.851c1.703,0.015,3.407,0.015,5.115,0.034
		c0.468,0,0.741,0.27,0.791,0.753c0.021,0.126,0.007,0.253,0.021,0.401C60.382,60.376,60.389,60.376,56.587,60.458z"/>
	<path fill-rule="evenodd" clip-rule="evenodd" fill="#FFFFFF" d="M65.83,41.921c0.07,0,0.142,0,0.211,0
		c3.469,0.02,3.659,0.245,3.233,3.685c-0.082,0.657-0.356,0.989-0.997,0.989c-1.624,0.019-3.251,0-4.875-0.007
		c-0.569-0.005-0.856-0.331-0.867-0.907c0-0.059,0-0.131-0.002-0.193C62.19,41.944,62.229,41.905,65.83,41.921z"/>
	<path fill-rule="evenodd" clip-rule="evenodd" fill="#FFFFFF" d="M65.796,48.826c0.077,0,0.136,0,0.201,0
		c3.503,0,3.652,0.202,3.254,3.668c-0.085,0.668-0.333,1.012-0.988,1.012c-1.629,0.009-3.258-0.016-4.886-0.034
		c-0.588,0-0.881-0.27-0.864-0.863c0-0.062,0-0.141-0.007-0.21C62.196,48.813,62.196,48.813,65.796,48.826z"/>
	<path fill-rule="evenodd" clip-rule="evenodd" fill="#FFFFFF" d="M56.741,62.661c0.201,0,0.407-0.018,0.612,0.017
		c0.85,0.095,2.043-0.424,2.472,0.32c0.637,1.097,0.247,2.506,0.163,3.766c-0.021,0.373-0.436,0.479-0.788,0.479
		c-1.69,0.006-3.383-0.015-5.073-0.018c-0.698,0-0.867-0.412-0.935-1.05C52.84,62.644,52.835,62.644,56.741,62.661z"/>
	<path fill-rule="evenodd" clip-rule="evenodd" fill="#FFFFFF" d="M56.64,74.155c-0.134,0-0.268,0-0.401,0
		c-3.378-0.01-3.477-0.158-3.06-3.588c0.081-0.656,0.337-0.981,1.001-0.963c1.624,0.013,3.25,0.013,4.866,0.013
		c0.646,0,0.942,0.229,1.018,0.929C60.446,74.014,60.324,74.183,56.64,74.155z"/>
	<path fill-rule="evenodd" clip-rule="evenodd" fill="#FFFFFF" d="M65.704,74.187c-0.072,0-0.144,0.011-0.209,0
		c-0.979-0.159-2.397,0.516-2.858-0.391c-0.482-0.922-0.16-2.257-0.166-3.418c-0.007-0.491,0.266-0.735,0.753-0.735
		c1.709,0,3.41,0.006,5.119,0.015c0.611,0,0.834,0.353,0.814,0.924c0,0.063,0.003,0.133,0.009,0.19
		C69.422,74.197,69.422,74.197,65.704,74.187z"/>
	<path fill-rule="evenodd" clip-rule="evenodd" fill="#F59C2E" d="M65.913,55.737c0.069,0,0.139,0,0.202,0
		c3.427,0.08,3.104-0.612,3.088,3.175c-0.006,1.418-0.096,1.477-1.493,1.5c-1.29,0.033-2.583-0.036-3.865,0.018
		c-1.077,0.028-1.398-0.441-1.374-1.473C62.558,54.953,62.085,55.835,65.913,55.737z"/>
	<path fill-rule="evenodd" clip-rule="evenodd" fill="#FFFFFF" d="M65.661,67.27c-3.688-0.112-3.148,0.766-3.197-3.413
		c-0.018-0.858,0.304-1.213,1.19-1.179c1.479,0.049,2.965,0.049,4.459,0.025c0.767-0.013,1.034,0.297,1.096,1.071
		C69.5,67.288,69.53,67.288,65.661,67.27z"/>
	<path fill-rule="evenodd" clip-rule="evenodd" fill="#F59C2E" d="M69.292,35.872c-0.012,3.82-0.012,3.82-3.771,3.78
		c-0.207,0-0.412,0.002-0.616,0c-0.453-0.061-1.023,0.168-1.324-0.306c-0.388-0.635,0.215-1.029,0.515-1.42
		c1.303-1.648,2.654-3.289,3.995-4.919c0.206-0.24,0.438-0.546,0.833-0.439c0.437,0.124,0.358,0.521,0.368,0.847
		C69.303,34.244,69.292,35.045,69.292,35.872z"/>
	<path fill-rule="evenodd" clip-rule="evenodd" fill="#FFFFFF" d="M80.283,69.707c0.676,0.007,1.358,0.057,2.023-0.007
		c1.123-0.117,1.359,0.447,1.391,1.435c0.112,3.12,0.143,3.12-2.957,3.104c-1.015,0-2.04-0.011-3.045-0.006
		c-0.657,0.006-1.034-0.246-1.063-0.915c-0.005-0.071-0.005-0.129-0.005-0.208C76.268,69.778,76.352,69.689,80.283,69.707z"/>
	<path fill-rule="evenodd" clip-rule="evenodd" fill="#FFFFFF" d="M80.161,67.336c-0.201-0.006-0.411-0.006-0.607-0.006
		c-2.986,0-3.423-0.577-2.895-3.599c0.112-0.648,0.428-0.943,1.086-0.934c1.631,0.017,3.26-0.03,4.895,0.037
		c1.048,0.036,1.138,0.201,1.044,2.367c-0.032,0.815,0.527,2.067-1.069,2.128c-0.821,0.037-1.638,0-2.453,0V67.336z"/>
	<path fill-rule="evenodd" clip-rule="evenodd" fill="#FFFFFF" d="M89.617,69.742c0.263,0,0.535-0.028,0.801,0.012
		c0.787,0.085,1.943-0.399,2.299,0.298c0.573,1.129,0.241,2.486,0.132,3.763c-0.022,0.302-0.301,0.44-0.583,0.44
		c-1.901-0.016-3.883,0.326-5.664-0.139c-1.376-0.37-0.445-2.119-0.636-3.225c-0.117-0.697,0.177-1.178,1.001-1.161
		c0.886,0.023,1.762,0.012,2.65,0.019V69.742z"/>
	<path fill-rule="evenodd" clip-rule="evenodd" fill="#FFFFFF" d="M89.544,67.367c-0.269,0-0.544,0.016-0.815-0.015
		c-0.854-0.083-2.029,0.421-2.502-0.34c-0.648-1.03-0.261-2.365-0.157-3.574c0.03-0.483,0.479-0.604,0.913-0.604
		c1.707,0,3.406,0.02,5.11,0.02c0.589,0,0.865,0.314,0.87,0.899c0,0.054,0,0.128,0.007,0.195
		C93.305,67.374,93.305,67.374,89.544,67.367z"/>
</g>
</svg>
