<?xml version="1.0" encoding="utf-8"?>
<!-- Generator: Adobe Illustrator 16.0.0, SVG Export Plug-In . SVG Version: 6.00 Build 0)  -->
<!DOCTYPE svg PUBLIC "-//W3C//DTD SVG 1.1//EN" "http://www.w3.org/Graphics/SVG/1.1/DTD/svg11.dtd">
<svg version="1.1" id="Layer_1" xmlns="http://www.w3.org/2000/svg" xmlns:xlink="http://www.w3.org/1999/xlink" x="0px" y="0px"
	 width="96.428px" height="87.125px" viewBox="0 0 96.428 87.125" enable-background="new 0 0 96.428 87.125" xml:space="preserve">
<g id="Layer_1_1_">
</g>
<g id="Layer_2">
	<g>
		<g>
			<g>
				<path fill="#E52240" d="M296.49,36.325c0.909,5.34,2.764,10.431,4.029,15.687c0.292,1.25,0.606,2.527,0.935,3.863
					c-1.563,0.596-3.012,0.381-4.399,0.283c-2.01-0.17-2.43,0.754-2.395,2.531c0.063,4.682-0.013,9.379-0.035,14.063
					c-0.004,0.721,0.041,1.449-0.021,2.17c-0.216,2.455-1.472,3.809-3.472,3.785c-2.011-0.025-3.303-1.41-3.33-3.879
					c-0.05-5.066,0.027-10.107,0.035-15.174c0-0.842-0.008-1.693-0.047-2.52c-0.016-0.348-0.188-0.686-0.587-0.77
					c-0.616-0.119-0.859,0.307-0.863,0.793c-0.059,1.68-0.082,3.367-0.094,5.053c-0.009,3.738-0.027,7.467-0.052,11.195
					c0,0.715,0.058,1.461-0.066,2.17c-0.317,1.848-1.722,3.057-3.439,3.086c-1.869,0.018-3.306-1.303-3.425-3.434
					c-0.116-2.281-0.02-4.574-0.008-6.873c0.008-2.768,0.041-5.529,0.035-8.291c-0.017-4.479,0.461-3.896-3.738-3.953
					c-0.838-0.023-1.669-0.023-2.909-0.023c1.304-7.152,4.002-13.702,5.3-20.573c0.353-1.567,0.178-3.219,0.676-4.313
					c-0.074,0.767-0.502,1.83-1.439,2.647c-0.955,2.982-1.844,5.984-2.897,8.923c-0.861,2.416-1.45,2.812-4.025,2.203
					c-1.171-0.293-1.508,0.139-1.932,0.887c-1.423,2.531-2.834,5.041-4.25,7.57c-0.731,1.328-0.871,2.68-0.443,4.176
					c0.774,2.65,1.432,5.338,2.159,8.004c0.187,0.723,0.485,1.617-0.572,1.658c-1.97,0.102-1.948,1.32-1.915,2.729
					c0.04,1.932,0.067,3.867-0.045,5.787c-0.098,1.789-1.187,2.813-2.661,2.779c-1.447-0.021-2.472-1.09-2.562-2.871
					c-0.089-1.93,0.041-3.861-0.025-5.793c-0.016-0.764,0.405-1.709-0.548-2.289c-1.159,0.025-0.845,0.945-0.868,1.541
					c-0.054,2.172,0.037,4.342-0.065,6.52c-0.098,1.803-1.13,2.822-2.601,2.871c-1.496,0.021-2.646-0.947-2.783-2.758
					c-0.154-2.021-0.02-4.096-0.055-6.133c-0.01-0.809,0.271-2.047-0.724-2.182c-2.195-0.266-1.688-1.506-1.3-2.83
					c0.104-0.334,0.237-0.668,0.33-1.014c2.519-9.215,2.394-9.924-2.874-17.793c-0.502-0.76-0.849-1.035-1.957-0.764
					c-2.938,0.666-3.9-0.197-3.964-3.334c-0.082-3.976,0.021-7.95,0.027-11.938c-0.008-0.965-0.008-1.928-0.07-2.891
					c-0.039-0.603-0.232-1.208-1.048-1.116c-0.6,0.078-0.733,0.561-0.763,1.039c-0.047,0.967-0.07,1.93-0.08,2.899
					c-0.059,14.224-0.12,28.445-0.179,42.66c-0.011,0.969,0.077,1.951-0.102,2.896c-0.353,1.867-2.073,3.178-3.871,3.127
					c-1.665-0.041-3.256-1.297-3.617-3.021c-0.206-0.934-0.129-1.922-0.121-2.883c0.031-7.719,0.078-15.418,0.078-23.131
					c0-1.135,0.386-2.387-0.819-3.471c-1.288,0.744-0.889,1.932-0.896,2.873c-0.068,7.594-0.073,15.189-0.128,22.787
					c-0.016,1.182-0.022,2.414-0.271,3.584c-0.47,2.143-2.242,3.432-4.136,3.219c-1.781-0.203-3.196-1.664-3.407-3.672
					c-0.09-0.938-0.02-1.918-0.02-2.883c0.063-14.211,0.147-28.442,0.147-42.672c0-1.18,0.792-3.275-0.882-3.354
					c-1.854-0.07-1.016,2.065-1.063,3.211c-0.138,3.258-0.018,6.512-0.099,9.766c-0.072,2.439,0.054,4.627-1.739,7.008
					c-1.571,2.064-1.369,5.484-1.916,8.318c-1.314,6.852-2.605,13.711-3.903,20.561c-0.031,0.127,0,0.266-0.069,0.363
					c-0.575,0.893,0.069,2.963-1.65,2.639c-1.843-0.352-0.631-1.986-0.442-3.002c1.647-8.758,3.377-17.479,5.036-26.213
					c0.274-1.502,0.759-3.014-0.267-4.538c-0.406-0.609-0.288-1.637-0.288-2.459c0-5.785,0.261-11.586-0.008-17.363
					c-0.176-3.932,3.187-8.563,7.761-8.916c5.527-0.445,11.086-0.561,16.587,0.097c4.747,0.545,7.636,4.12,7.708,8.972
					c0.087,5.052-0.012,10.126-0.043,15.191c0,1.133-0.043,2.131,1.661,1.999c1.044-0.072,1.616,0.887,2.109,1.761
					c0.549,0.927,1.175,1.822,1.688,2.773c0.889,1.607,2.108,2.578,4.077,2.285c0.467-0.07,0.983-0.09,1.432,0
					c3.642,0.74,5.933-0.813,7.426-4.072c0.641-1.372,1.354-2.914,3.391-2.701c1.251,0.144,1.21-0.942,1.44-1.688
					c1.439-4.579,2.845-9.188,4.313-13.768c0.357-1.136,0.771-2.281,1.345-3.325c1.301-2.402,3.238-3.744,6.132-3.669
					c3.962,0.124,7.955,0.181,11.928,0.023c3.399-0.114,5.686,1.489,6.71,4.44c2.054,5.904,3.815,11.907,5.531,17.913
					c0.618,2.171-0.312,3.64-1.981,4.031c-1.484,0.336-2.705-0.443-3.415-2.499c-0.943-2.738-1.714-5.512-2.581-8.258
					c-1.116-0.939-1.326-2.297-1.438-2.943C296.15,32.796,296.261,34.577,296.49,36.325z"/>
				<path fill="#E52240" d="M230.104,12.654c-3.808-0.023-6.977-3.162-6.905-6.871c0.067-3.641,3.468-6.875,7.103-6.778
					c3.675,0.122,6.51,3.065,6.545,6.802C236.881,9.75,234.018,12.654,230.104,12.654z"/>
				<path fill="#E52240" d="M293.717,9.638c0.035,3.512-2.848,6.391-6.392,6.438c-3.582,0.07-6.453-2.659-6.547-6.221
					c-0.104-3.734,2.798-6.677,6.519-6.646C290.811,3.244,293.693,6.144,293.717,9.638z"/>
				<path fill="#E52240" d="M257.51,34.455c3.107,0.054,5.321,2.409,5.22,5.566c-0.082,2.896-2.395,5.204-5.255,5.239
					c-2.91,0.047-5.546-2.559-5.544-5.449C251.938,36.831,254.47,34.424,257.51,34.455z"/>
			</g>
		</g>
	</g>
</g>
<g>
	<path fill-rule="evenodd" clip-rule="evenodd" fill="#E4B631" d="M545.754,85.475c-0.419-0.018-0.856-0.018-1.275-0.018
		c-14.127-0.146-28.258-0.315-42.409-0.461c-14.457-0.145-28.941-0.316-43.4-0.461c-2.801-0.02-2.93,0.128-2.43,2.902
		c1.444,7.65,4.956,14.254,10.156,19.983c5.208,5.729,11.52,9.798,18.75,12.434c1.148,0.422,1.841,0.859,1.841,2.28
		c0,1.817,0.267,2.006,2.108,2.023c8.777,0.127,17.535,0.229,26.312,0.298c1.756,0,2.28-0.378,2.218-2.029
		c-0.043-1.628,0.711-2.131,2.066-2.631c5.916-2.132,11.202-5.312,15.821-9.592c6.414-5.96,10.703-13.172,12.667-21.722
		C548.762,85.937,548.384,85.518,545.754,85.475z"/>
	<path fill-rule="evenodd" clip-rule="evenodd" fill="#E4B631" d="M501.206,81.424c1.591,0,2.843,0.043,4.118,0.043
		c1.985,0,2.107-0.128,2.425-2.072c0.06-0.335,0.06-0.67,0.06-1.027c0.273-4.428-1.483-8.104-4.344-11.324
		c-3.031-3.426-3.699-7.297-2.593-11.623c0.563-2.168,1.565-4.095,2.655-6.039c1.17-2.09,0.017-3.931-2.382-3.931
		c-1.088,0-2.006,0.376-2.613,1.318c-4.496,6.833-6.416,15.968,0.205,23.239C501.643,73.209,502.731,76.865,501.206,81.424z"/>
	<path fill-rule="evenodd" clip-rule="evenodd" fill="#E4B631" d="M483.38,80.98c0.771,0.332,1.464,0.254,2.133,0.273
		c4.3,0.085,4.701-0.354,4.428-4.764c-0.017-0.419-0.128-0.838-0.188-1.256c-0.521-3.385-2.234-6.188-4.471-8.715
		c-2.758-3.133-3.324-6.79-2.491-10.721c0.523-2.428,1.608-4.619,2.886-6.752c1.045-1.756,0.171-3.445-1.841-3.742
		c-1.38-0.207-2.504,0.188-3.318,1.381c-1.173,1.693-2.053,3.533-2.738,5.456c-2.177,6.208-1.798,12.056,2.673,17.196
		C483.441,72.773,484.947,76.49,483.38,80.98z"/>
	<path fill-rule="evenodd" clip-rule="evenodd" fill="#E4B631" d="M519.22,81.398c1.275,0.402,2.466,0.215,3.639,0.231
		c2.467,0.06,2.569-0.043,2.818-2.423c0.085-0.67,0.085-1.363,0.067-2.029c-0.146-3.926-1.901-7.188-4.436-10.049
		c-2.88-3.264-3.591-6.98-2.589-11.162c0.543-2.26,1.525-4.309,2.675-6.295c1.275-2.234,0.086-4.07-2.467-4.033
		c-1.355,0.043-2.194,0.797-2.844,1.842c-1.397,2.26-2.485,4.661-3.137,7.229c-1.354,5.541-0.497,10.639,3.351,15.007
		C519.328,73.123,520.786,76.865,519.22,81.398z"/>
</g>
<g>
	<path fill-rule="evenodd" clip-rule="evenodd" fill="#FFFFFF" d="M-155.353,76.289c-1.314,4.297-2.584,8.454-3.852,12.608
		c-2.297,7.511-4.592,15.02-6.893,22.529c-0.09,0.285-0.164,0.585-0.285,0.856c-0.189,0.442-0.543,0.689-1.014,0.657
		c-0.537-0.034-0.885-0.336-0.98-0.876c-0.248-1.441-0.496-2.891-0.733-4.341c-0.711-4.292-1.416-8.599-2.133-12.895
		c-0.012-0.072-0.092-0.139-0.188-0.27c-0.314,0.083-0.369,0.408-0.496,0.639c-1.227,2.232-2.445,4.473-3.668,6.706
		c-0.122,0.229-0.24,0.46-0.365,0.688c-0.257,0.449-0.611,0.719-1.161,0.641c-0.558-0.083-0.801-0.438-0.873-0.971
		c-0.137-0.979-0.296-1.959-0.435-2.947c-0.445-3.289-0.893-6.584-1.344-9.881c-0.017-0.105-0.1-0.22-0.19-0.402
		c-0.326,0.226-0.388,0.572-0.517,0.847c-0.953,2.086-1.932,4.158-2.818,6.266c-0.337,0.803-0.805,1.091-1.668,1.079
		c-4.407-0.053-8.815-0.057-13.229-0.076c-0.214,0-0.435,0.011-0.646-0.02c-0.489-0.071-0.759-0.396-0.813-0.874
		c-0.062-0.478,0.153-0.825,0.6-1.038c0.414-0.197,0.848-0.119,1.273-0.119c3.848,0.008,7.699,0.008,11.547,0.062
		c0.799,0.014,1.226-0.22,1.551-0.974c1.281-2.975,2.637-5.918,3.963-8.871c0.106-0.239,0.209-0.479,0.314-0.711
		c0.232-0.533,0.641-0.823,1.231-0.723c0.537,0.096,0.771,0.466,0.834,1.008c0.128,1.025,0.308,2.045,0.448,3.072
		c0.447,3.25,0.878,6.497,1.324,9.75c0.042,0.293,0.14,0.582,0.235,0.973c0.405-0.391,0.562-0.833,0.776-1.225
		c1.125-2.047,2.242-4.099,3.361-6.145c0.143-0.268,0.289-0.529,0.44-0.79c0.248-0.422,0.625-0.583,1.098-0.501
		c0.485,0.079,0.744,0.404,0.829,0.874c0.242,1.405,0.487,2.802,0.718,4.208c0.617,3.704,1.228,7.404,1.839,11.111
		c0.037,0.214,0.098,0.417,0.367,0.648c0.566-1.827,1.123-3.609,1.666-5.395c2.836-9.277,5.668-18.568,8.498-27.856
		c0.027-0.08,0.074-0.157,0.098-0.238c0.156-0.548,0.303-1.118,1-1.203c0.768-0.094,1.039,0.462,1.309,1.024
		c1.654,3.467,3.314,6.937,4.967,10.402c0.131,0.27,0.258,0.559,0.314,0.846c0.104,0.545-0.158,0.92-0.65,1.133
		c-0.465,0.205-0.857,0.018-1.152-0.336c-0.184-0.23-0.291-0.525-0.424-0.797c-1.119-2.336-2.234-4.679-3.352-7.017
		C-154.797,77.085-154.9,76.701-155.353,76.289z"/>
	<path fill-rule="evenodd" clip-rule="evenodd" fill="#FFFFFF" d="M-148.916,103.02c-0.984-1.038-2.037-2.167-3.109-3.278
		c-0.93-0.965-1.91-1.877-2.814-2.865c-1.658-1.814-1.623-4.6,0.029-6.363c1.301-1.388,3.111-1.578,4.662-0.453
		c0.516,0.376,0.98,0.827,1.484,1.254c0.523-0.416,1.012-0.841,1.541-1.212c1.793-1.261,3.813-0.876,5.061,0.94
		c1.123,1.642,1.164,4.13-0.195,5.553C-144.338,98.781-146.592,100.796-148.916,103.02z"/>
</g>
<path opacity="0.95" fill="#2CBBE1" d="M-345.821-6.959c-0.323-0.024-0.644-0.013-0.976-0.013
	c-18.33-0.143-36.664-0.292-54.998-0.428c-0.488-0.009-0.979-0.028-1.467,0c-1.456,0.092-1.733,0.405-1.527,1.786
	c0.195,1.363,0.48,2.716,0.692,4.085c1.607,10.43,3.196,20.879,4.826,31.313c1.178,7.543,2.42,15.081,3.609,22.614
	c0.33,2.068,0.501,2.28,2.645,2.328c2.93,0.047,5.864,0.077,8.795,0.059c1.131,0,1.671,0.253,1.881,1.571
	c0.351,2.27,0.111,4.565,0.597,6.803c0.189,0.918-0.381,1.083-1.129,1.138c-1.145,0.096-2.353-0.323-3.716,0.451
	c3.57,3.63,6.983,7.111,10.415,10.572c1.32,1.328,1.358,1.33,2.658,0.063c3.149-3.081,6.284-6.17,9.411-9.264
	c0.369-0.382,0.966-0.646,0.857-1.529c-1.045-0.293-2.18-0.097-3.271-0.16c-0.725-0.037-1.417-0.209-1.236-1.094
	c0.505-2.243,0.302-4.539,0.66-6.794c0.191-1.146,0.67-1.656,1.919-1.615c3.089,0.096,6.192,0.093,9.281,0.084
	c1.966,0,2.027-0.084,2.339-1.973c1.218-7.539,2.43-15.07,3.652-22.616c1.931-11.776,3.873-23.562,5.815-35.349
	C-343.814-6.614-344.039-6.864-345.821-6.959z M-366.014,39.526c-1.633,2.693-4.038,4.185-7.214,4.259
	c-1.544,0.047-3.108,0.197-4.605-0.256c-4.821-1.488-7.659-5.907-6.183-12.067c0.263-1.108,0.715-2.168,1.333-3.131
	c2.645-4.091,5.32-8.158,8.223-12.61c1.587,2.427,2.925,4.447,4.236,6.486c1.271,1.979,2.632,3.918,3.763,5.98
	C-364.46,31.859-363.677,35.66-366.014,39.526z M-346.866-2.979c-0.452,2.557-0.957,5.124-1.383,7.689
	c-0.146,0.849-0.606,1.065-1.351,0.979c-2.197-0.282-4.153,0.452-6.156,1.212c-2.886,1.11-5.843,2-8.978,2.176
	c-4.431,0.26-8.542-0.885-12.568-2.566c-2.933-1.227-5.882-2.409-9.182-2.127c-1.063,0.088-2.088,0.218-3.093,0.619
	c-2.647,1.086-5.423,1.755-8.24,2.2c-1.766,0.276-2.083,0.05-2.437-1.741c-0.581-2.874-1.092-5.744-1.667-8.625
	c-0.197-0.945,0.092-1.388,1.079-1.361c0.57,0.015,1.146,0,1.716,0.001c8.234,0.073,16.469,0.135,24.7,0.201
	c8.233,0.066,16.461,0.125,24.703,0.189c0.642,0.006,1.299,0.024,1.95,0.04C-347.027-4.081-346.744-3.647-346.866-2.979z"/>
<g>
	<g>
		<path fill-rule="evenodd" clip-rule="evenodd" fill="#F9C21C" d="M-53.857,146.095c1.092,0,1.868-0.698,2.102-1.925
			c0.028-0.146,0.038-0.319,0.038-0.478c-0.017-3.136,0.019-6.277-0.063-9.411c-0.034-1.455-1.06-2.444-2.197-2.384
			c-1.145,0.051-1.942,1.031-1.991,2.567c-0.034,1.525,0.012,3.059,0.017,4.59h0.01c0.015,1.69-0.049,3.379,0.057,5.068
			C-55.806,145.371-54.958,146.084-53.857,146.095z"/>
		<path fill-rule="evenodd" clip-rule="evenodd" fill="#F9C21C" d="M-53.549,200.891c-1.186-0.025-2.063,1.086-2.104,2.748
			c-0.034,1.451,0,2.91,0.013,4.371c0.005,1.533-0.026,3.074,0.028,4.607c0.068,1.611,0.833,2.494,2.063,2.508
			c1.233,0.008,2.091-0.869,2.118-2.461c0.055-3.072,0.03-6.154-0.028-9.23C-51.501,201.93-52.41,200.93-53.549,200.891z"/>
		<path fill-rule="evenodd" clip-rule="evenodd" fill="#F9C21C" d="M-67.191,197.404c-0.986-0.646-1.86-0.279-2.58,0.473
			c-0.325,0.338-0.523,0.813-0.756,1.229c-1.311,2.307-2.62,4.615-3.925,6.932c-0.266,0.486-0.585,0.986-0.707,1.518
			c-0.298,1.303,0.658,2.459,1.982,2.443c0.621-0.092,1.264-0.242,1.615-0.85c1.751-3.086,3.506-6.143,5.197-9.26
			C-65.825,198.885-66.277,198.006-67.191,197.404z"/>
		<path fill-rule="evenodd" clip-rule="evenodd" fill="#F9C21C" d="M-88.901,155.933c2.816,1.593,5.612,3.229,8.457,4.755
			c1.557,0.842,3.128-0.046,3.147-1.609c0.01-0.801-0.334-1.413-1.027-1.801c-2.962-1.676-5.924-3.328-8.875-5.012
			c-1.05-0.595-1.906-0.245-2.573,0.594c-0.627,0.793-0.372,2.146,0.452,2.836C-89.194,155.793-89.043,155.859-88.901,155.933z"/>
		<path fill-rule="evenodd" clip-rule="evenodd" fill="#F9C21C" d="M-27.096,160.398c2.828-1.578,5.618-3.234,8.412-4.85
			c0.772-0.441,1.229-1.045,1.18-1.955c-0.041-1.637-1.539-2.449-3.158-1.565c-2.837,1.555-5.631,3.196-8.401,4.866
			c-1.162,0.695-1.498,1.911-0.964,2.867C-29.48,160.767-28.315,161.074-27.096,160.398z"/>
		<path fill-rule="evenodd" clip-rule="evenodd" fill="#F9C21C" d="M-18.89,190.924c-2.527-1.428-5.057-2.861-7.571-4.297
			c-0.502-0.289-0.99-0.545-1.577-0.555c-1.387-0.02-2.291,1.051-2.02,2.375c0.162,0.799,0.72,1.24,1.364,1.602
			c2.665,1.508,5.33,3.027,7.999,4.523c0.352,0.191,0.741,0.361,1.126,0.42c0.865,0.115,1.666-0.135,2.05-0.949
			c0.391-0.852,0.378-1.744-0.372-2.455C-18.178,191.326-18.542,191.123-18.89,190.924z"/>
		<path fill-rule="evenodd" clip-rule="evenodd" fill="#F9C21C" d="M-37.232,197.936c-0.673-1.098-1.789-1.264-2.727-0.693
			c-0.95,0.594-1.278,1.602-0.692,2.725c0.931,1.797,1.986,3.521,2.993,5.275c0.688,1.195,1.362,2.393,2.09,3.551
			c0.617,0.969,1.56,1.1,2.574,0.771c0.892-0.293,1.16-1.037,1.156-2.076c-0.057-0.16-0.093-0.506-0.242-0.775
			C-33.779,203.783-35.452,200.82-37.232,197.936z"/>
		<path fill-rule="evenodd" clip-rule="evenodd" fill="#F9C21C" d="M-39.117,149.906c0.813-0.023,1.375-0.432,1.761-1.117
			c1.63-2.877,3.302-5.741,4.87-8.662c0.623-1.155,0.275-2.176-0.659-2.754c-0.917-0.561-2.129-0.379-2.757,0.675
			c-1.77,2.983-3.504,6.009-5.109,9.088C-41.746,148.525-40.64,149.982-39.117,149.906z"/>
		<path fill-rule="evenodd" clip-rule="evenodd" fill="#F9C21C" d="M-70.64,148.443c0.206,0.346,0.406,0.717,0.674,1.01
			c0.701,0.733,1.578,0.76,2.452,0.392c0.751-0.321,0.984-1.019,1.014-1.458c-0.017-1.083-0.435-1.689-0.801-2.313
			c-1.215-2.094-2.433-4.186-3.667-6.262c-0.369-0.637-0.697-1.298-1.158-1.848c-0.566-0.674-1.353-0.881-2.201-0.542
			c-0.935,0.398-1.279,1.15-1.214,2.146c0.038,0.604,0.366,1.063,0.648,1.549C-73.481,143.559-72.059,146.008-70.64,148.443z"/>
		<path fill-rule="evenodd" clip-rule="evenodd" fill="#F9C21C" d="M-79.429,186.375c-0.591,0.057-1.067,0.377-1.545,0.648
			c-2.444,1.412-4.874,2.83-7.305,4.273c-0.416,0.234-0.839,0.498-1.154,0.846c-0.618,0.668-0.599,1.477-0.255,2.26
			c0.325,0.75,1.026,0.959,1.266,0.959c1.207,0.014,1.763-0.314,2.322-0.635c2.437-1.428,4.875-2.842,7.308-4.273
			c0.34-0.205,0.707-0.404,1-0.676c0.763-0.686,0.844-1.555,0.408-2.416C-77.798,186.566-78.529,186.293-79.429,186.375z"/>
		<path fill-rule="evenodd" clip-rule="evenodd" fill="#F9C21C" d="M-83.659,175.711c1.611-0.043,2.508-0.777,2.541-1.971
			c0.03-1.227-0.814-2.033-2.435-2.061c-3.141-0.055-6.286-0.039-9.448,0.037c-1.455,0.036-2.267,0.813-2.299,1.955
			c-0.043,1.211,0.875,2.033,2.437,2.078c1.532,0.043,3.07,0,4.6-0.008C-86.734,175.732-85.189,175.756-83.659,175.711z"/>
		<path fill-rule="evenodd" clip-rule="evenodd" fill="#F9C21C" d="M-14.515,171.363c-3.147-0.055-6.304-0.039-9.455,0.038
			c-1.509,0.042-2.275,0.786-2.306,1.94c-0.03,1.25,0.833,2.059,2.402,2.102c1.53,0.041,3.071-0.01,4.602-0.01
			c1.537-0.014,3.069,0.016,4.609-0.029c1.624-0.041,2.52-0.76,2.558-1.951C-12.064,172.223-12.915,171.383-14.515,171.363z"/>
	</g>
	<g>
		<path fill="#F9C21C" d="M-49.887,162.051c-0.334,2.381-0.175,4.133,1.918,5.826c3.179,2.542,3.236,7.543,0.695,10.766
			c-2.475,3.158-6.976,4.035-10.477,2.035c-5.034-2.875-5.61-9.783-1.02-13.5c1.024-0.826,1.47-1.583,1.321-2.82
			c-0.089-0.754,0.13-1.559-0.204-2.295c-5.618,1.66-9.239,7.554-8.313,13.285c1.024,6.268,6.241,10.635,12.581,10.521
			c6.127-0.115,11.206-4.723,12.002-10.908C-40.651,169.293-44.412,163.49-49.887,162.051z"/>
		<path fill="#F9C21C" d="M-53.685,149.776c-12.418-0.003-24.028,10.046-23.988,24.122c0.042,13.219,10.792,23.805,24.056,23.742
			c12.15,0.176,23.867-9.578,23.856-23.932C-29.767,159.153-41.853,149.793-53.685,149.776z M-55.442,159.391
			c0.024-1.027,0.742-1.695,1.738-1.66c0.967,0.048,1.594,0.709,1.611,1.774c0.022,1.288,0.019,2.589,0.022,3.882l0,0
			c0.006,1.297,0.021,2.582,0.017,3.87c0,1.079-0.62,1.725-1.617,1.757c-0.982,0.023-1.727-0.551-1.74-1.621
			C-55.461,164.726-55.487,162.063-55.442,159.391z M-41.384,174.961c-0.797,6.186-5.875,10.793-12.002,10.908
			c-6.339,0.113-11.557-4.254-12.581-10.521c-0.926-5.731,2.696-11.625,8.313-13.285c0.334,0.736,0.115,1.541,0.204,2.295
			c0.149,1.237-0.297,1.994-1.321,2.82c-4.59,3.717-4.014,10.625,1.02,13.5c3.5,2,8.002,1.123,10.477-2.035
			c2.541-3.223,2.483-8.224-0.695-10.766c-2.093-1.693-2.252-3.445-1.918-5.826C-44.412,163.49-40.651,169.293-41.384,174.961z"/>
	</g>
</g>
<g>
	<g>
		<path fill-rule="evenodd" clip-rule="evenodd" fill="#F9C21C" d="M147.407,204.713c1.102,0,1.884-0.697,2.12-1.92
			c0.029-0.145,0.039-0.318,0.039-0.477c-0.018-3.129,0.019-6.264-0.063-9.39c-0.034-1.451-1.068-2.438-2.217-2.378
			c-1.154,0.051-1.959,1.029-2.008,2.561c-0.035,1.523,0.011,3.051,0.017,4.58h0.01c0.015,1.687-0.05,3.371,0.057,5.057
			C145.441,203.992,146.296,204.702,147.407,204.713z"/>
		<path fill-rule="evenodd" clip-rule="evenodd" fill="#F9C21C" d="M147.718,259.385c-1.197-0.026-2.082,1.082-2.123,2.74
			c-0.035,1.449,0,2.904,0.013,4.361c0.006,1.53-0.026,3.068,0.028,4.598c0.069,1.606,0.841,2.488,2.082,2.502
			c1.244,0.007,2.109-0.867,2.136-2.456c0.056-3.064,0.031-6.141-0.028-9.209C149.783,260.422,148.866,259.423,147.718,259.385z"/>
		<path fill-rule="evenodd" clip-rule="evenodd" fill="#F9C21C" d="M133.953,255.906c-0.995-0.645-1.878-0.279-2.604,0.471
			c-0.327,0.337-0.528,0.81-0.763,1.227c-1.322,2.302-2.644,4.604-3.961,6.915c-0.268,0.486-0.59,0.984-0.713,1.514
			c-0.301,1.301,0.664,2.453,2,2.438c0.627-0.093,1.275-0.241,1.63-0.848c1.767-3.078,3.537-6.13,5.243-9.238
			C135.331,257.384,134.876,256.506,133.953,255.906z"/>
		<path fill-rule="evenodd" clip-rule="evenodd" fill="#F9C21C" d="M112.048,214.529c2.842,1.588,5.663,3.221,8.533,4.742
			c1.57,0.842,3.156-0.045,3.176-1.605c0.01-0.799-0.338-1.409-1.037-1.795c-2.988-1.672-5.977-3.321-8.954-5
			c-1.06-0.594-1.923-0.245-2.596,0.592c-0.633,0.791-0.376,2.141,0.456,2.828C111.753,214.389,111.906,214.455,112.048,214.529z"/>
		<path fill-rule="evenodd" clip-rule="evenodd" fill="#F9C21C" d="M174.407,218.984c2.854-1.574,5.668-3.227,8.487-4.838
			c0.779-0.441,1.241-1.043,1.191-1.951c-0.042-1.634-1.554-2.444-3.187-1.563c-2.863,1.551-5.683,3.189-8.478,4.855
			c-1.172,0.693-1.512,1.906-0.972,2.86C172.003,219.352,173.179,219.658,174.407,218.984z"/>
		<path fill-rule="evenodd" clip-rule="evenodd" fill="#F9C21C" d="M182.687,249.44c-2.55-1.426-5.102-2.855-7.639-4.288
			c-0.507-0.286-0.999-0.543-1.592-0.552c-1.398-0.02-2.312,1.047-2.037,2.368c0.164,0.797,0.726,1.238,1.376,1.599
			c2.689,1.503,5.379,3.021,8.071,4.513c0.354,0.19,0.748,0.36,1.136,0.419c0.873,0.114,1.683-0.134,2.068-0.948
			c0.396-0.848,0.382-1.739-0.375-2.447C183.406,249.841,183.037,249.64,182.687,249.44z"/>
		<path fill-rule="evenodd" clip-rule="evenodd" fill="#F9C21C" d="M164.181,256.436c-0.679-1.095-1.805-1.262-2.75-0.691
			c-0.959,0.591-1.29,1.598-0.699,2.72c0.938,1.791,2.004,3.512,3.021,5.261c0.693,1.193,1.374,2.389,2.107,3.543
			c0.623,0.968,1.575,1.098,2.599,0.77c0.898-0.292,1.17-1.035,1.165-2.071c-0.056-0.16-0.093-0.503-0.243-0.772
			C167.665,262.27,165.976,259.313,164.181,256.436z"/>
		<path fill-rule="evenodd" clip-rule="evenodd" fill="#F9C21C" d="M162.279,208.517c0.819-0.024,1.388-0.431,1.776-1.116
			c1.645-2.869,3.331-5.727,4.913-8.641c0.629-1.153,0.278-2.171-0.665-2.748c-0.924-0.559-2.147-0.379-2.781,0.674
			c-1.785,2.975-3.534,5.994-5.154,9.066C159.626,207.139,160.742,208.592,162.279,208.517z"/>
		<path fill-rule="evenodd" clip-rule="evenodd" fill="#F9C21C" d="M130.473,207.057c0.208,0.344,0.409,0.716,0.681,1.008
			c0.707,0.73,1.592,0.758,2.474,0.39c0.759-0.32,0.993-1.015,1.023-1.454c-0.017-1.08-0.438-1.686-0.808-2.307
			c-1.226-2.089-2.455-4.177-3.699-6.248c-0.372-0.635-0.704-1.295-1.169-1.844c-0.571-0.672-1.364-0.878-2.22-0.541
			c-0.944,0.398-1.291,1.148-1.227,2.142c0.039,0.603,0.37,1.06,0.654,1.545C127.607,202.182,129.042,204.627,130.473,207.057z"/>
		<path fill-rule="evenodd" clip-rule="evenodd" fill="#F9C21C" d="M121.605,244.901c-0.596,0.057-1.076,0.377-1.559,0.646
			c-2.467,1.411-4.918,2.826-7.371,4.267c-0.418,0.232-0.846,0.494-1.164,0.841c-0.623,0.668-0.604,1.475-0.257,2.257
			c0.327,0.748,1.034,0.956,1.276,0.956c1.219,0.014,1.779-0.313,2.343-0.634c2.458-1.423,4.919-2.834,7.374-4.263
			c0.343-0.206,0.713-0.403,1.008-0.676c0.77-0.684,0.852-1.55,0.412-2.41C123.251,245.092,122.515,244.82,121.605,244.901z"/>
		<path fill-rule="evenodd" clip-rule="evenodd" fill="#F9C21C" d="M117.337,234.263c1.626-0.044,2.531-0.776,2.564-1.968
			c0.03-1.224-0.822-2.027-2.457-2.057c-3.17-0.054-6.344-0.037-9.533,0.039c-1.469,0.035-2.287,0.81-2.32,1.95
			c-0.043,1.208,0.883,2.027,2.459,2.072c1.546,0.044,3.098,0,4.641-0.007C114.236,234.283,115.794,234.307,117.337,234.263z"/>
		<path fill-rule="evenodd" clip-rule="evenodd" fill="#F9C21C" d="M187.101,229.924c-3.175-0.055-6.359-0.039-9.538,0.038
			c-1.524,0.042-2.297,0.784-2.328,1.936c-0.03,1.248,0.841,2.054,2.425,2.098c1.544,0.041,3.099-0.009,4.643-0.009
			c1.552-0.014,3.097,0.015,4.65-0.031c1.64-0.041,2.543-0.757,2.581-1.946C189.575,230.781,188.715,229.943,187.101,229.924z"/>
	</g>
	<g>
		<path fill="#F9C21C" d="M151.413,220.633c-0.338,2.375-0.178,4.124,1.934,5.813c3.209,2.537,3.266,7.527,0.701,10.743
			c-2.496,3.15-7.037,4.025-10.569,2.028c-5.079-2.868-5.661-9.76-1.029-13.469c1.033-0.824,1.483-1.58,1.333-2.814
			c-0.09-0.752,0.131-1.555-0.207-2.289c-5.668,1.656-9.321,7.536-8.387,13.254c1.032,6.256,6.297,10.61,12.693,10.498
			c6.182-0.115,11.305-4.712,12.109-10.884C160.732,227.858,156.936,222.068,151.413,220.633z"/>
		<path fill="#F9C21C" d="M147.58,208.387c-12.529-0.004-24.243,10.022-24.203,24.066c0.042,13.188,10.888,23.75,24.271,23.688
			c12.259,0.175,24.081-9.557,24.07-23.877C171.712,217.742,159.519,208.404,147.58,208.387z M145.808,217.979
			c0.025-1.024,0.749-1.691,1.754-1.656c0.975,0.048,1.608,0.707,1.625,1.77c0.023,1.286,0.02,2.584,0.023,3.873l0,0
			c0.006,1.295,0.021,2.576,0.017,3.861c0,1.077-0.625,1.722-1.632,1.754c-0.99,0.022-1.742-0.551-1.755-1.617
			C145.788,223.302,145.762,220.645,145.808,217.979z M159.991,233.513c-0.805,6.172-5.928,10.769-12.109,10.884
			c-6.396,0.112-11.661-4.242-12.693-10.498c-0.935-5.718,2.719-11.598,8.387-13.254c0.338,0.734,0.117,1.537,0.207,2.289
			c0.15,1.234-0.3,1.99-1.333,2.814c-4.632,3.709-4.05,10.601,1.029,13.469c3.532,1.997,8.073,1.122,10.569-2.028
			c2.564-3.216,2.508-8.206-0.701-10.743c-2.111-1.688-2.271-3.438-1.934-5.813C156.936,222.068,160.732,227.858,159.991,233.513z"
			/>
	</g>
</g>
<g>
	<rect x="-425.795" y="257.201" fill="#A21E45" width="89.58" height="74.792"/>
	<g>
		<path fill-rule="evenodd" clip-rule="evenodd" fill="#A21E45" d="M-221.519,179.145c-1.363-0.16-1.444-1.143-1.459-2.233
			c-0.047-5.328-0.133-10.672-0.205-16.013c-0.108-8.241-0.185-16.491-0.35-24.736c-0.041-1.688,0.421-2.948,1.677-4.146
			c4.614-4.376,9.113-8.866,13.657-13.313c0.172-0.16,0.329-0.346,0.512-0.49c0.603-0.453,1.002-1.474,1.88-1.167
			c0.957,0.331,0.493,1.36,0.5,2.068c0.132,6.675,0.202,13.339,0.288,20.021c0.169,12.402,0.34,24.807,0.493,37.208
			c0.012,0.976,0.389,2.122-0.989,2.582C-210.833,179.28-216.172,179.348-221.519,179.145z"/>
		<path fill-rule="evenodd" clip-rule="evenodd" fill="#A21E45" d="M-237.203,148.08c2.15-2.212,4.351-4.452,6.55-6.695
			c0.444-0.449,0.854-0.935,1.328-1.328c0.766-0.626,1.328-0.433,1.489,0.505c0.088,0.542,0.043,1.104,0.051,1.651
			c0.153,11.321,0.308,22.644,0.463,33.954c0,0.475,0.011,0.957,0.006,1.42c-0.03,1.055-0.579,1.548-1.642,1.558
			c-5.101,0.068-10.211,0.136-15.317,0.206c-1.2,0.03-1.738-0.563-1.709-1.726c0.005-0.318-0.008-0.629-0.013-0.936
			c-0.152-11.243-0.307-22.49-0.434-33.725c0-0.783-0.506-1.901,0.585-2.283c0.884-0.307,1.354,0.639,1.91,1.146
			C-241.745,143.848-239.567,145.888-237.203,148.08z"/>
		<path fill-rule="evenodd" clip-rule="evenodd" fill="#A21E45" d="M-250.954,128.414c-2.505,2.631-4.986,5.256-7.496,7.851
			c-3.774,3.889-7.561,7.767-11.354,11.651c-1.308,1.337-1.364,1.359-2.567,0.164c-3.516-3.498-3.391-2.398-0.138-5.781
			c6.552-6.791,13.147-13.518,19.731-20.269c0.168-0.168,0.325-0.331,0.495-0.505c1.399-1.385,1.416-1.398,2.793-0.076
			c3.047,2.938,6.098,5.898,9.102,8.888c0.901,0.884,1.637,1.913,2.3,2.714c1.284-0.514,1.698-1.195,2.231-1.756
			c8.127-8.317,16.234-16.657,24.351-24.982c1.494-1.536,1.469-1.229,0.04-2.69c-0.582-0.616-1.393-1.031-1.61-1.939
			c0.184-0.761,0.864-0.604,1.346-0.72c3.497-0.87,6.995-1.711,10.512-2.539c1.546-0.358,1.726-0.217,1.445,1.229
			c-0.729,3.699-1.461,7.381-2.256,11.055c-0.285,1.354-0.569,1.396-1.634,0.516c-0.777-0.642-1.341-1.925-2.29-1.863
			c-1.028,0.086-1.641,1.342-2.402,2.115c-9.1,9.332-18.204,18.685-27.309,28.039c-2.1,2.154-1.781,1.837-3.593,0.104
			C-243.056,135.982-246.86,132.342-250.954,128.414z"/>
		<path fill-rule="evenodd" clip-rule="evenodd" fill="#A21E45" d="M-251.001,158.258c0.09,6.203,0.172,12.412,0.243,18.608
			c0.036,2.529,0,2.56-2.4,2.597c-4.628,0.078-9.263,0.143-13.901,0.187c-2.023,0.019-2.169-0.115-2.199-2.085
			c-0.118-7.148-0.177-14.288-0.314-21.43c-0.024-1.284,0.344-2.26,1.265-3.146c5.071-4.935,10.107-9.88,15.153-14.819
			c0.391-0.367,0.753-0.893,1.394-0.646c0.693,0.254,0.484,0.915,0.491,1.424C-251.165,145.382-251.087,151.816-251.001,158.258z"/>
		<path fill-rule="evenodd" clip-rule="evenodd" fill="#A21E45" d="M-221.519,179.145c5.339-0.22,10.667-0.283,16.004-0.22
			c-0.408,0.479-0.98,0.423-1.518,0.426c-4.313,0.063-8.628,0.119-12.948,0.184C-220.522,179.534-221.086,179.605-221.519,179.145z"
			/>
	</g>
</g>
<rect x="-167.343" y="-40.831" fill="#ED6E2F" width="89.581" height="74.792"/>
<rect x="110.657" y="-64.831" fill="#ED6E2F" width="89.581" height="74.792"/>
<rect x="-26.277" y="255.424" fill="#DC196A" width="89.581" height="74.789"/>
<g>
	<path fill-rule="evenodd" clip-rule="evenodd" fill="#A21E45" d="M-170.322,302.246c3.576,12.438,1.746,24.104-5.727,34.579
		c-8.693,12.229-20.93,17.911-35.836,16.925c-17.523-1.174-32.727-14.168-37.329-31.192c-6.798-25.118,9.636-50.147,35.506-53.659
		c12.365-1.698,23.492,1.697,33.151,9.66c1.869,1.557,1.869,2.003,0.193,3.664c-1.156,1.158-2.332,2.289-3.485,3.432
		c-0.803,0.803-1.621,0.888-2.508,0.146c-0.326-0.279-0.666-0.545-0.991-0.816c-20.64-16.572-51.201-5.195-55.779,20.877
		c-2.383,13.584,2.473,24.803,12.626,33.61c21.336,18.493,54.564,6.71,59.842-21.037c0.841-4.442,0.883-8.868,0.016-13.312
		c-0.11-0.59-0.125-1.189-0.188-1.791C-171.019,302.807-171.289,302.242-170.322,302.246z"/>
	<path fill-rule="evenodd" clip-rule="evenodd" fill="#A21E45" d="M-207.647,323.937c-5.159,0-10.301,0.02-15.459,0.02
		c-2.247-0.02-2.258-0.051-2.298-2.333c-0.008-1.545,0.051-3.093-0.016-4.637c-0.042-1.288,0.404-1.892,1.779-1.822
		c1.713,0.081,3.433,0.02,5.15,0.02c8.756-0.02,17.519-0.034,26.277-0.034c2.365,0,2.371,0.034,2.383,2.43
		c0.012,1.204,0.012,2.408,0,3.612c0,2.705-0.008,2.714-2.627,2.733C-197.518,323.937-202.584,323.937-207.647,323.937z"/>
	<path fill-rule="evenodd" clip-rule="evenodd" fill="#A21E45" d="M-207.651,300.454c5.151,0,10.3-0.017,15.458-0.017
		c2.327,0,2.327,0,2.35,2.434c0.004,1.289,0.012,2.578,0.004,3.862c-0.026,2.304-0.031,2.327-2.227,2.354
		c-1.115,0.01-2.234,0-3.346,0.01c-8.948,0-17.889,0.016-26.831,0.016c-0.603,0-1.201,0-1.807,0c-0.973,0-1.371-0.499-1.359-1.45
		c0.004-1.801,0.081-3.615-0.045-5.416c-0.077-1.412,0.549-1.792,1.819-1.778c3.785,0.023,7.557-0.014,11.336-0.014
		c1.549-0.017,3.096-0.017,4.647-0.017V300.454z"/>
	<path fill-rule="evenodd" clip-rule="evenodd" fill="#A21E45" d="M-170.322,302.246c-0.421,0.252-0.414,0.686-0.509,1.086
		c-1.258-3.941-2.925-7.71-4.746-11.422c0.21-0.197,0.428-0.197,0.636,0C-172.834,295.102-171.169,298.499-170.322,302.246z"/>
	<path fill-rule="evenodd" clip-rule="evenodd" fill="#A21E45" d="M-176.131,291.015c-0.491-0.454-0.907-0.962-0.846-1.695
		l-0.02,0.013c0.729,0.166,0.977,0.762,1.208,1.378C-175.76,290.963-175.876,291.072-176.131,291.015z"/>
	<path fill-rule="evenodd" clip-rule="evenodd" fill="#A21E45" d="M-174.941,291.91c-0.208,0-0.426,0-0.636,0
		c-0.386-0.18-0.452-0.547-0.555-0.896c0.116-0.106,0.231-0.204,0.343-0.305C-175.363,291.007-175.061,291.398-174.941,291.91z"/>
	<path fill-rule="evenodd" clip-rule="evenodd" fill="#A21E45" d="M-176.977,289.319c-0.232-0.017-0.318-0.097-0.271-0.256
		c0.006-0.014,0.15,0,0.171,0.034c0.046,0.061,0.046,0.166,0.081,0.234L-176.977,289.319z"/>
</g>
<rect x="324.24" y="211.981" fill="#F59C2E" width="89.578" height="74.792"/>
<g>
	<path fill-rule="evenodd" clip-rule="evenodd" fill="#F59C2E" d="M214.861,149.783c0.038-10.564,0.074-21.137,0.115-31.721
		c0-0.535,0.046-1.078,0-1.625c-0.064-0.963,0.323-1.34,1.316-1.314c2.311,0.061,4.627,0.025,6.943,0.038
		c3.623,0.009,7.234,0.022,10.85,0.033c1.99,0.018,2.005,0.025,1.99,2.039c-0.055,15.957-0.106,31.913-0.152,47.878
		c-0.027,5.871-0.041,11.729-0.074,17.595c-0.006,2.072-0.027,2.084-2.016,2.084c-5.723-0.012-11.459-0.03-17.189-0.063
		c-1.881-0.018-1.904-0.032-1.888-1.984C214.777,171.76,214.823,160.772,214.861,149.783z"/>
	<path fill-rule="evenodd" clip-rule="evenodd" fill="#F59C2E" d="M259.689,156.54c-0.021,8.547-0.057,17.071-0.083,25.599
		c0,0.405,0.006,0.827-0.013,1.214c-0.049,1.555-0.055,1.589-1.636,1.589c-5.941-0.01-11.885-0.034-17.812-0.069
		c-1.52,0-1.552-0.023-1.552-1.629c0.028-9.551,0.08-19.109,0.084-28.655c0-0.952,0.286-1.692,0.875-2.411
		c6.164-7.739,12.316-15.495,18.467-23.238c0.168-0.216,0.34-0.435,0.508-0.636c0.245-0.297,0.556-0.401,0.908-0.272
		c0.313,0.118,0.325,0.412,0.338,0.675c0.017,0.552,0.015,1.096,0.015,1.641C259.758,139.08,259.729,147.812,259.689,156.54z"/>
	<path fill-rule="evenodd" clip-rule="evenodd" fill="#F59C2E" d="M261.965,173.909c0.011-3,0.011-6.004,0.036-9.002
		c0.016-1.598,0.041-1.63,1.542-1.63c6.137,0,12.28,0.032,18.414,0.063c1.519,0.013,1.557,0.046,1.557,1.666
		c-0.006,6.124-0.025,12.266-0.07,18.405c-0.009,1.586-0.046,1.621-1.567,1.621c-6.139-0.015-12.281-0.035-18.414-0.062
		c-1.497-0.017-1.523-0.053-1.523-1.644C261.938,180.181,261.958,177.053,261.965,173.909z"/>
	<path fill-rule="evenodd" clip-rule="evenodd" fill="#F59C2E" d="M212.003,175.915c-0.008,2.322-0.008,4.638-0.033,6.951
		c-0.019,1.646-0.041,1.655-1.744,1.685c-1.357,0.006-2.721,0-4.085-0.029c-1.591-0.022-1.612-0.039-1.622-1.563
		c-0.02-2.462,0.02-4.919,0.016-7.368c-0.012-1.646-0.055-1.687-1.742-1.708c-1.367-0.038-2.725,0-4.084-0.038
		c-0.954-0.02-1.345,0.392-1.328,1.353c0.031,2.313,0.002,4.629-0.017,6.942c-0.022,2.621,0.249,2.344-2.466,2.36
		c-1.164,0-2.311-0.032-3.471-0.017c-0.831,0.029-1.261-0.274-1.248-1.173c0.026-4.971,0.045-9.941,0.049-14.914
		c0-1.012,0.563-1.229,1.454-1.212c2.786,0.029,5.578,0.014,8.37,0.029c3.396,0.019,6.813,0.019,10.215,0.032
		c1.685,0.035,1.742,0.093,1.75,1.721C212.035,171.281,212.009,173.604,212.003,175.915z"/>
	<path fill-rule="evenodd" clip-rule="evenodd" fill="#F59C2E" d="M201.068,165.512c-3.135-0.013-6.273-0.013-9.409-0.048
		c-0.436,0-1.011,0.204-1.21-0.433c-0.15-0.42,0.199-0.751,0.438-1.066c3.074-3.999,6.125-8.008,9.221-11.983
		c0.973-1.25,1.205-1.239,2.133-0.048c3.074,3.988,6.138,8.004,9.191,11.988c0.275,0.371,0.76,0.705,0.504,1.242
		c-0.258,0.547-0.823,0.373-1.271,0.373C207.462,165.537,204.273,165.512,201.068,165.512z"/>
	<path fill-rule="evenodd" clip-rule="evenodd" fill="#F59C2E" d="M272.585,161.72c-3.059-0.011-6.127-0.055-9.176-0.026
		c-1.057,0.016-1.434-0.324-1.408-1.397c0.142-4.418-0.584-3.589,3.454-3.615c5.438-0.042,10.884,0.026,16.32,0.053
		c1.646,0.005,1.646,0.027,1.668,1.684c0.045,3.343,0.045,3.343-3.309,3.333C277.615,161.733,275.099,161.72,272.585,161.72z"/>
	<path fill-rule="evenodd" clip-rule="evenodd" fill="#FFFFFF" d="M218.353,150.691c0.029-3.125-0.223-2.719,2.723-2.734
		c0.273,0,0.542,0,0.814,0c1.531,0.054,1.531,0.066,1.578,1.647c0,0.133,0,0.265,0,0.399c-0.105,4.081,0.741,3.533-3.741,3.596
		c-1.073,0.017-1.479-0.454-1.387-1.489C218.386,151.639,218.351,151.17,218.353,150.691z"/>
	<path fill-rule="evenodd" clip-rule="evenodd" fill="#FFFFFF" d="M232.483,150.893c-0.021,3.015,0.198,2.724-2.757,2.726
		c-0.279,0-0.557,0-0.824-0.002c-1.426-0.069-1.499-0.138-1.545-1.506c-0.01-0.322,0-0.68,0.006-1.007
		c0.053-3.635-0.416-3.08,3.161-3.093c1.927-0.021,1.927,0.013,1.959,1.858C232.483,150.207,232.483,150.553,232.483,150.893z"/>
	<path fill-rule="evenodd" clip-rule="evenodd" fill="#FFFFFF" d="M218.267,174.077c0-0.195,0-0.415,0.006-0.614
		c0.023-1.996,0.023-2.014,2.045-1.996c3.498,0.004,3.045-0.313,3.067,3.005c0,0.271,0,0.542-0.003,0.807
		c-0.053,1.761-0.053,1.761-1.843,1.774c-0.067,0-0.132,0-0.206,0C217.865,176.978,218.296,177.52,218.267,174.077z"/>
	<path fill-rule="evenodd" clip-rule="evenodd" fill="#FFFFFF" d="M232.399,174.263c-0.026,3.39,0.116,2.767-2.827,2.815
		c-0.408,0-0.818-0.025-1.223,0c-0.782,0.028-1.092-0.353-1.078-1.109c0.021-1.146,0.021-2.307,0.016-3.46
		c-0.004-0.667,0.342-0.994,0.984-1.014c0.473-0.011,0.947-0.008,1.422-0.008C232.718,171.487,232.388,171.324,232.399,174.263z"/>
	<path fill-rule="evenodd" clip-rule="evenodd" fill="#FFFFFF" d="M232.515,139.214c0,3.233-0.01,2.601-2.57,2.651
		c-0.406,0.007-0.82-0.032-1.228,0c-0.942,0.081-1.36-0.326-1.324-1.291c0.036-1.016,0.042-2.033,0.01-3.043
		c-0.026-0.85,0.304-1.276,1.16-1.264c0.339,0.01,0.683,0,1.019,0C232.88,136.304,232.515,135.977,232.515,139.214z"/>
	<path fill-rule="evenodd" clip-rule="evenodd" fill="#FFFFFF" d="M218.389,138.905c0.054-2.556-0.511-2.702,2.608-2.681
		c2.818,0.033,2.523-0.108,2.508,2.752c-0.007,3.398,0.161,2.824-2.793,2.846c-2.323,0.023-2.323-0.008-2.323-2.305
		C218.389,139.307,218.389,139.102,218.389,138.905z"/>
	<path fill-rule="evenodd" clip-rule="evenodd" fill="#FFFFFF" d="M223.427,162.712c-0.036,2.845,0.239,2.532-2.469,2.532
		c-2.896-0.017-2.662,0.268-2.641-2.592c0.022-3.208-0.385-2.819,2.779-2.839c0.211,0,0.41,0,0.607,0.002
		c1.681,0.033,1.681,0.033,1.723,1.683C223.441,161.902,223.427,162.311,223.427,162.712z"/>
	<path fill-rule="evenodd" clip-rule="evenodd" fill="#FFFFFF" d="M232.431,162.553c0,3.164,0.115,2.691-2.775,2.723
		c-0.41,0-0.822-0.012-1.227,0c-0.758,0.021-1.156-0.299-1.104-1.09c0.004-0.218-0.017-0.406,0-0.617
		c0.122-4.42-0.769-3.631,3.778-3.735c0.963-0.02,1.412,0.33,1.338,1.288C232.405,161.609,232.431,162.086,232.431,162.553z"/>
	<path fill-rule="evenodd" clip-rule="evenodd" fill="#FFFFFF" d="M218.437,127.155c0.045-2.881-0.319-2.569,2.645-2.562
		c2.549,0.017,2.482-0.438,2.469,2.543c-0.016,3.393,0.203,2.855-2.967,2.885c-0.139,0-0.271,0-0.407,0
		c-1.713-0.029-1.713-0.029-1.739-1.661C218.435,127.961,218.437,127.563,218.437,127.155z"/>
	<path fill-rule="evenodd" clip-rule="evenodd" fill="#FFFFFF" d="M227.45,127.334c0.048-3.078-0.372-2.707,2.686-2.689
		c2.379,0,2.439-0.473,2.424,2.379c-0.029,3.564,0.232,2.983-3.031,3.031c-0.197,0.017-0.404,0.017-0.602,0
		c-1.434-0.057-1.44-0.057-1.48-1.508C227.435,128.148,227.447,127.735,227.45,127.334z"/>
	<path fill-rule="evenodd" clip-rule="evenodd" fill="#FFFFFF" d="M248.154,151.695c-0.008,1.228-0.028,2.45-0.008,3.673
		c0.008,0.778-0.341,1.128-1.098,1.114c-1.565-0.002-3.128,0.038-4.683-0.037c-1.044-0.032-1.421-0.713-0.918-1.674
		c0.342-0.652,0.852-1.225,1.328-1.803c1.351-1.706,2.724-3.383,4.106-5.059c0.25-0.311,0.491-0.742,0.983-0.545
		c0.484,0.201,0.28,0.709,0.288,1.065C248.179,149.522,248.154,150.609,248.154,151.695z"/>
	<path fill-rule="evenodd" clip-rule="evenodd" fill="#F59C2E" d="M244.606,163.448c0.053,0-0.013,0-0.081,0
		c-3.365,0.055-3.914-0.617-3.262-3.904c0.111-0.547,0.368-0.851,0.936-0.851c1.703,0.015,3.407,0.015,5.115,0.034
		c0.468,0,0.741,0.27,0.791,0.753c0.021,0.126,0.007,0.253,0.021,0.401C248.401,163.366,248.407,163.366,244.606,163.448z"/>
	<path fill-rule="evenodd" clip-rule="evenodd" fill="#FFFFFF" d="M253.849,144.912c0.07,0,0.142,0,0.211,0
		c3.469,0.02,3.659,0.244,3.233,3.685c-0.082,0.657-0.356,0.989-0.997,0.989c-1.624,0.019-3.251,0-4.875-0.007
		c-0.569-0.005-0.856-0.331-0.867-0.907c0-0.059,0-0.131-0.002-0.193C250.208,144.934,250.247,144.895,253.849,144.912z"/>
	<path fill-rule="evenodd" clip-rule="evenodd" fill="#FFFFFF" d="M253.815,151.816c0.077,0,0.136,0,0.201,0
		c3.503,0,3.652,0.202,3.254,3.668c-0.085,0.668-0.333,1.012-0.988,1.012c-1.629,0.009-3.258-0.016-4.886-0.034
		c-0.588,0-0.881-0.27-0.864-0.863c0-0.062,0-0.141-0.007-0.21C250.214,151.803,250.214,151.803,253.815,151.816z"/>
	<path fill-rule="evenodd" clip-rule="evenodd" fill="#FFFFFF" d="M244.76,165.651c0.201,0,0.407-0.018,0.612,0.017
		c0.85,0.095,2.043-0.424,2.472,0.32c0.637,1.097,0.247,2.506,0.163,3.766c-0.021,0.373-0.436,0.479-0.788,0.479
		c-1.69,0.006-3.383-0.015-5.073-0.018c-0.698,0-0.867-0.412-0.935-1.05C240.859,165.634,240.854,165.634,244.76,165.651z"/>
	<path fill-rule="evenodd" clip-rule="evenodd" fill="#FFFFFF" d="M244.658,177.146c-0.134,0-0.268,0-0.401,0
		c-3.378-0.01-3.477-0.158-3.06-3.588c0.081-0.656,0.337-0.981,1.001-0.963c1.624,0.013,3.25,0.013,4.866,0.013
		c0.646,0,0.942,0.229,1.018,0.929C248.464,177.004,248.343,177.173,244.658,177.146z"/>
	<path fill-rule="evenodd" clip-rule="evenodd" fill="#FFFFFF" d="M253.723,177.177c-0.072,0-0.144,0.011-0.209,0
		c-0.979-0.159-2.397,0.516-2.858-0.391c-0.482-0.922-0.16-2.257-0.166-3.418c-0.007-0.491,0.266-0.735,0.753-0.735
		c1.709,0,3.41,0.006,5.119,0.015c0.611,0,0.834,0.353,0.814,0.924c0,0.063,0.003,0.133,0.009,0.19
		C257.441,177.188,257.441,177.188,253.723,177.177z"/>
	<path fill-rule="evenodd" clip-rule="evenodd" fill="#F59C2E" d="M253.932,158.728c0.069,0,0.139,0,0.202,0
		c3.427,0.08,3.104-0.612,3.088,3.175c-0.006,1.418-0.096,1.477-1.493,1.5c-1.29,0.033-2.583-0.036-3.865,0.018
		c-1.077,0.028-1.398-0.441-1.374-1.473C250.576,157.943,250.104,158.825,253.932,158.728z"/>
	<path fill-rule="evenodd" clip-rule="evenodd" fill="#FFFFFF" d="M253.68,170.26c-3.688-0.112-3.148,0.766-3.197-3.413
		c-0.018-0.858,0.304-1.213,1.19-1.179c1.479,0.049,2.965,0.049,4.459,0.025c0.767-0.013,1.034,0.297,1.096,1.071
		C257.519,170.278,257.548,170.278,253.68,170.26z"/>
	<path fill-rule="evenodd" clip-rule="evenodd" fill="#F59C2E" d="M257.311,138.861c-0.012,3.82-0.012,3.82-3.771,3.78
		c-0.207,0-0.412,0.003-0.616,0c-0.453-0.061-1.023,0.168-1.324-0.306c-0.388-0.635,0.215-1.029,0.515-1.42
		c1.303-1.648,2.654-3.289,3.995-4.92c0.206-0.24,0.438-0.545,0.833-0.438c0.437,0.124,0.358,0.521,0.368,0.847
		C257.322,137.234,257.311,138.035,257.311,138.861z"/>
	<path fill-rule="evenodd" clip-rule="evenodd" fill="#FFFFFF" d="M268.302,172.697c0.676,0.007,1.358,0.057,2.023-0.007
		c1.123-0.117,1.359,0.447,1.391,1.435c0.112,3.12,0.143,3.12-2.957,3.104c-1.015,0-2.04-0.011-3.045-0.006
		c-0.657,0.006-1.034-0.246-1.063-0.915c-0.005-0.071-0.005-0.129-0.005-0.208C264.286,172.769,264.37,172.68,268.302,172.697z"/>
	<path fill-rule="evenodd" clip-rule="evenodd" fill="#FFFFFF" d="M268.18,170.326c-0.201-0.006-0.411-0.006-0.607-0.006
		c-2.986,0-3.423-0.577-2.895-3.599c0.112-0.648,0.428-0.943,1.086-0.934c1.631,0.017,3.26-0.03,4.895,0.037
		c1.048,0.036,1.138,0.201,1.044,2.367c-0.032,0.815,0.527,2.067-1.069,2.128c-0.821,0.037-1.638,0-2.453,0V170.326z"/>
	<path fill-rule="evenodd" clip-rule="evenodd" fill="#FFFFFF" d="M277.636,172.732c0.263,0,0.535-0.028,0.801,0.012
		c0.787,0.085,1.943-0.399,2.299,0.298c0.573,1.129,0.241,2.486,0.132,3.763c-0.022,0.302-0.301,0.44-0.583,0.44
		c-1.901-0.016-3.883,0.326-5.664-0.139c-1.376-0.37-0.445-2.119-0.636-3.225c-0.117-0.697,0.177-1.178,1.001-1.161
		c0.886,0.023,1.762,0.012,2.65,0.019V172.732z"/>
	<path fill-rule="evenodd" clip-rule="evenodd" fill="#FFFFFF" d="M277.563,170.357c-0.269,0-0.544,0.016-0.815-0.015
		c-0.854-0.083-2.029,0.421-2.502-0.34c-0.648-1.03-0.261-2.365-0.157-3.574c0.03-0.483,0.479-0.604,0.913-0.604
		c1.707,0,3.406,0.02,5.11,0.02c0.589,0,0.865,0.314,0.87,0.899c0,0.054,0,0.128,0.007,0.195
		C281.323,170.364,281.323,170.364,277.563,170.357z"/>
</g>
<rect x="115.294" y="111.553" fill="#C6982D" width="89.578" height="74.792"/>
<g>
	<path fill-rule="evenodd" clip-rule="evenodd" fill="#C6982D" d="M31.68,59.33c-0.848-0.782-1.594-1.416-2.255-2.107
		c-0.697-0.72-0.599-1.168,0.26-1.583c0.245-0.127,0.521-0.186,0.789-0.258c3.658-1.013,7.318-2.053,10.982-3.062
		c1.718-0.475,2.125-0.207,1.883,1.456c-0.593,3.977-1.248,7.925-1.958,11.863c-0.273,1.496-0.708,1.58-1.905,0.665
		c-0.763-0.593-1.337-1.738-2.247-1.697c-0.858,0.033-1.673,0.854-2.52,1.3C23.219,72.163,6.478,66.994,3.669,51.66
		c-0.866-4.739-0.629-9.538,1.007-14.145c2.553-7.145,7.713-11.361,15.038-12.833c8.31-1.681,15.444,0.709,21.347,6.789
		c3.946,4.074,6.831,8.866,9.401,13.879c1.347,2.646,2.772,5.261,4.582,7.641c3.127,4.092,7.08,6.985,12.107,8.268
		c8.024,2.019,14.648-2.079,16.32-10.13c0.647-3.133,0.587-6.313-0.103-9.471c-1.392-6.459-6.272-9.783-12.404-10.397
		c-4.854-0.502-8.94,1.331-12.467,4.56c-1.425,1.312-2.693,2.784-3.876,4.327c-1.304,1.689-1.615,1.655-2.714-0.267
		c-0.622-1.068-1.205-2.177-1.887-3.217c-0.544-0.814-0.544-1.479,0.085-2.244c5.488-6.627,12.141-10.932,21.13-10.225
		c10.985,0.871,18.466,8.027,19.567,19.024c0.388,3.842,0.174,7.598-0.884,11.297c-2.87,10.159-12.67,16.039-23.032,13.937
		c-7.184-1.458-12.85-5.256-17.319-10.979c-1.967-2.519-3.575-5.25-5.009-8.109c-2.158-4.265-4.518-8.421-7.712-12.028
		c-2.534-2.874-5.562-4.88-9.362-5.767c-8.393-1.976-16.129,3.419-16.959,12.002c-0.165,1.732-0.156,3.463-0.072,5.192
		c0.286,6.411,5.175,11.655,11.552,12.464C25.98,61.728,28.898,61.175,31.68,59.33z"/>
</g>
</svg>
