<?xml version="1.0" encoding="utf-8"?>
<!-- Generator: Adobe Illustrator 16.0.0, SVG Export Plug-In . SVG Version: 6.00 Build 0)  -->
<!DOCTYPE svg PUBLIC "-//W3C//DTD SVG 1.1//EN" "http://www.w3.org/Graphics/SVG/1.1/DTD/svg11.dtd">
<svg version="1.1" id="Layer_1" xmlns="http://www.w3.org/2000/svg" xmlns:xlink="http://www.w3.org/1999/xlink" x="0px" y="0px"
	 width="96.428px" height="87.125px" viewBox="0 0 96.428 87.125" enable-background="new 0 0 96.428 87.125" xml:space="preserve">
<g>
	<path fill="#3F7E44" d="M95.185,44.273c-3.389-4.752-18.715-23.726-47.204-23.726c-28.497,0-43.818,18.973-47.21,23.726
		c-0.144,0.203-0.27,0.38-0.37,0.529c0.1,0.152,0.226,0.328,0.37,0.534c3.392,4.749,18.714,23.726,47.21,23.726
		c28.489,0,43.815-18.977,47.204-23.726c0.147-0.206,0.27-0.382,0.367-0.534C95.454,44.653,95.332,44.477,95.185,44.273
		 M32.087,32.547c0.256-0.378,1.111-1.453,1.214-1.588c0.219-0.285,0.655-0.344,0.961-0.397c0.301-0.059,0.705,0.112,0.753,0.341
		c0.051,0.229-0.117,1.11-0.267,1.262c-0.418,0.434-1.505,1.046-2.105,0.949C32.181,33.04,31.999,32.682,32.087,32.547
		 M31.07,34.569c0.046-0.054,0.085-0.098,0.102-0.12c0.359-0.409,1.072-0.495,1.564-0.573c0.495-0.083,1.153,0.166,1.233,0.493
		c0.085,0.327-1.239,0.926-1.481,1.151c-0.685,0.631-1.757,1.919-2.385,2.056c-0.206,0.045-0.374,0.015-0.513-0.054
		C30.003,36.494,30.497,35.503,31.07,34.569 M41.732,56.445c-0.384,1.518-0.836,2.063-1.221,2.543
		c-0.382,0.483-1.803,1.102-2.705,1.034c-0.904-0.068-1.029-2.477-1.029-3.718c0-0.425-0.606,0.844-0.921-1.736
		c-0.205-1.651-1.263,0.174-1.337-0.929c-0.077-1.098-0.604-0.88-1.16-1.564c-0.554-0.688-1.246,0.065-2.021,0.413
		c-0.768,0.343-0.452,0.522-1.546,0.177c-0.028-0.008-0.042-0.018-0.069-0.026c-1.004-2.375-1.56-4.985-1.56-7.725
		c0-0.67,0.036-1.329,0.098-1.981c0.038-0.068,0.077-0.132,0.123-0.185c1.051-1.243,1.027-1.534,1.027-1.534l1.162-0.402
		c0,0,1.852,0.285,3.25,0.81c1.15,0.431,2.962,1.409,4.016,0.98c0.762-0.315,1.357-0.734,1.287-1.365
		c-0.086-0.798-0.712-0.988-1.47-0.452c-0.281,0.199-0.878-1.199-1.345-1.125c-0.468,0.069,0.579,1.641,0.181,1.707
		c-0.396,0.067-1.196-1.638-1.334-1.915c-0.134-0.274-0.751-0.959-1.304-0.436c-1.172,1.111-3.073,1.043-3.454,1.329
		c-1.163,0.87-1.469-0.286-1.444-0.989c0.049-0.162,0.094-0.324,0.148-0.483c0.378-0.417,1.74-0.556,2.207-0.246
		c0.515,0.346,0.883-0.087,1.083-0.297c0.203-0.203,0.13-0.532,0.003-0.805c-0.129-0.275,0.258-0.477,0.524-0.548
		c0.267-0.071,1.15-0.689,1.504-0.898c0.355-0.205,2.19-0.428,3.014-0.018c0.822,0.414,1.577,0.078,1.982-0.399
		c0.504-0.603,1.151-1.061,1.437-1.201c0.289-0.132-0.707-1.061-1.527-0.049c-0.82,1.009-1.236,1.101-1.624,1.101
		c-0.385,0-2.676-0.57-2.958-1.293c-0.279-0.725,0.716-1.266,1.563-1.675c0.845-0.404,3.159-0.397,3.751-0.532
		c1.203-0.263,2.739-0.868,3.513-0.341c0.773,0.517-3.233,1.43-1.918,2.141c0.468,0.258,2.586-1.217,3.313-1.594
		c1.707-0.882-1.655-1.173-1.219-2.961c0.492-2.024-4.125-1.24-6.424-1.068c3.084-1.979,6.751-3.13,10.687-3.13
		c9.362,0,17.207,6.486,19.299,15.21c0.013,0.431-0.054,0.741-0.098,0.917c-0.181,0.717-1.535,1.332-2.324,0.18
		c-0.2-0.29-1.054-1.093-1.023,0.281c0.028,1.376,1.338,1.517,0.067,2.342c-1.266,0.825-1.5,0.626-2.087,0.835
		c-0.585,0.207-1.151,1.623-1.011,2.38c0.141,0.758,1.949,2.828,0.61,2.743c-0.317-0.024-2.689-1.644-3.08-2.685
		c-0.413-1.098-0.865-2.171-1.184-2.997c-0.324-0.824-1.161-1.036-1.871-0.55c-0.703,0.483,0.196,0.966-0.311,2
		c-0.506,1.032-0.87,1.954-1.612,1.1c-1.938-2.219-4.753-1.124-5.195-3.594c-0.24-1.339-1.393-1.21-2.354-1.969
		c-0.97-0.754-1.509-1.166-1.673-0.62c-0.143,0.479,3.034,3,3.26,3.643c0.336,0.958-0.952,1.807-1.895,2.033
		c-0.938,0.225-1.354-0.529-2.276-1.492c-0.926-0.96-1.331-1.65-1.394-0.896c-0.093,1.092,0.879,2.694,1.819,3.294
		c0.804,0.51,1.705,0.739,1.442,1.563c-0.26,0.829-0.003,0.361-0.903,1.251c-0.901,0.896-1.072,1.183-1.009,2.419
		c0.066,1.239-0.256,1.311-0.451,2.341C42.569,55.823,42.123,54.932,41.732,56.445 M63.024,48.529
		c0.666-0.055,1.669,0.869,1.275,1.226c-0.39,0.35-1.39,0.223-1.893-0.171C61.909,49.197,62.722,48.554,63.024,48.529
		 M62.179,47.918c-0.215-0.078-0.402-0.281-0.563-0.769c-0.163-0.488,0.248-0.766,0.648-0.57c0.405,0.207,0.936,0.815,0.936,1.139
		C63.199,48.044,62.399,48.006,62.179,47.918 M53.418,47.886c-0.391,0.349-1.394,0.222-1.896-0.17
		c-0.499-0.389,0.317-1.032,0.615-1.059C52.806,46.599,53.808,47.531,53.418,47.886 M45.315,51.825
		c-0.275,0.446-1.021,3.786-1.521,3.396c-0.503-0.388,0.204-3.87,0.348-4.136C44.925,49.647,46.621,49.721,45.315,51.825
		 M48.013,64.765c-1.94,0-3.81-0.284-5.579-0.8c-0.255-0.207-0.399-0.555-0.241-0.97c0.614-1.603,2.442-2.228,3.886-2.367
		c3.22-0.314,7.448,2.088,8.121,1.701c0.677-0.388,2.036-2.158,4.035-2.083c1.361,0.054,1.352,0.281,1.808,0.454
		C56.706,63.247,52.538,64.765,48.013,64.765 M62.011,58.987c-0.199-0.057-0.403-0.123-0.622-0.232
		c-1.085-0.551-0.954,0.329-1.487,0.135c-0.536-0.198,0.602-1.436-1.001-0.389c-1.593,1.042-1.161-0.162-1.856-1.928
		c-0.703-1.769,0.8-3.784,2.054-4.243c1.725-0.624,2.794-0.749,3.604-0.952c2.383-0.594,2.888-2.009,3.319-1.147
		c0.082,0.161,0.161,0.313,0.232,0.458c0.14,0.258,0.299,0.779,0.309,1.294C65.547,54.638,63.986,57.02,62.011,58.987
		 M67.448,48.966c-0.533-0.145-2.763-3.229-1-5.254c0.294-0.333-0.589-1.313-0.35-1.334c0.965-0.074,1.478,0.524,1.73,1.388
		c0.018,0.38,0.035,0.763,0.035,1.15C67.864,46.304,67.718,47.656,67.448,48.966"/>
</g>
</svg>
