<?xml version="1.0" encoding="utf-8"?>
<!-- Generator: Adobe Illustrator 16.0.0, SVG Export Plug-In . SVG Version: 6.00 Build 0)  -->
<!DOCTYPE svg PUBLIC "-//W3C//DTD SVG 1.1//EN" "http://www.w3.org/Graphics/SVG/1.1/DTD/svg11.dtd">
<svg version="1.1" id="Layer_1" xmlns="http://www.w3.org/2000/svg" xmlns:xlink="http://www.w3.org/1999/xlink" x="0px" y="0px"
	 width="96.428px" height="87.125px" viewBox="0 0 96.428 87.125" enable-background="new 0 0 96.428 87.125" xml:space="preserve">
<g>
	<path fill-rule="evenodd" clip-rule="evenodd" fill="#2794D2" d="M24.457,56.618c4.26-3.308,6.66-6.191,11.198-8.608
		c4.335-2.327,8.822-4.25,13.632-5.275c7.868-1.685,15.393-0.553,22.53,3.087c7.091,3.635,14.697,8.837,19.71,14.959
		c0.717,0.878,0.946,1.51,0.118,2.516c-5.567,6.868-13.858,12.607-22.01,16.24c-8.225,3.666-16.573,3.755-25.013,0.835
		c-7.23-2.49-11.93-6.304-18.066-10.812c-0.261-0.2-0.5-0.419-0.764-0.608c-1.3-0.924-1.331-0.938-2.186,0.422
		c-2.011,3.221-4.415,6.065-7.415,8.384c-2.953,2.302-6.228,3.868-9.886,4.563c-0.758,0.146-1.741,0.583-2.282-0.157
		c-0.496-0.68,0.248-1.377,0.586-1.995c1.631-3.017,3.03-6.134,4.015-9.434c2.169-7.176,1.385-14.18-1.602-20.97
		c-0.891-2.001-1.981-3.923-2.937-5.908c-0.618-1.276-0.391-1.661,0.996-1.557c2.137,0.157,4.155,0.789,6.087,1.666
		c4.726,2.172,8.431,5.528,11.362,9.762C23.134,54.598,23.704,55.476,24.457,56.618z"/>
	<path fill-rule="evenodd" clip-rule="evenodd" fill="#2794D2" d="M91.182,10.004c0.104,0.243,0.2,0.396,0.213,0.536
		c0.371,3.967-0.055,4.765-3.623,6.435c-4.992,2.338-11.339,1.065-15.629-1.865c-0.924-0.639-1.618-1.969-2.771-1.785
		c-0.938,0.168-1.709,1.171-2.572,1.775c-4.656,3.24-9.637,3.624-14.858,1.628c-1.837-0.711-3.589-1.612-5.104-2.866
		c-0.923-0.773-1.574-0.722-2.512-0.034c-2.758,2.121-5.809,3.5-9.305,4.028c-4.324,0.625-6.208-0.665-9.595-3.178
		c-1.946-1.425-1.91-1.457-3.949,0.089c-2.858,2.155-5.938,3.664-9.65,3.609c-2.911-0.042-5.383-1.159-7.64-2.859
		c-0.914-0.696-1.403-4.096-0.777-4.978c0.417-0.553,0.875-0.222,1.309-0.032c1.882,0.759,3.801,1.355,5.871,1.557
		c4.277,0.409,8.023-0.75,11.387-3.375c1.839-1.44,1.871-1.412,3.921-0.142c2.953,1.815,4.264,3.101,7.767,3.32
		c3.833,0.234,7.201-0.975,10.189-3.376c1.689-1.341,1.709-1.305,3.428,0.032c4.823,3.736,10.089,4.169,15.667,1.983
		c1.749-0.689,3.407-1.565,4.937-2.674c0.71-0.515,1.355-0.754,2.17-0.058c5.707,4.951,13.828,5.244,20.502,2.235
		C90.681,9.951,90.854,10.004,91.182,10.004z"/>
	<path fill-rule="evenodd" clip-rule="evenodd" fill="#2794D2" d="M91.51,26.089c0.325,1.483-0.457,2.53-1.833,3.428
		c-4.3,2.798-10.521,2.905-15.033,0.62c-1.384-0.694-2.748-1.494-3.823-2.614c-0.98-1.032-1.721-0.895-2.619,0.041
		c-0.92,0.933-2.061,1.589-3.218,2.206c-4.158,2.2-8.439,2.2-12.764,0.573c-1.992-0.732-3.872-1.73-5.556-3.055
		c-0.773-0.623-1.355-0.623-2.128,0c-1.653,1.332-3.5,2.371-5.506,3.116c-5.843,2.157-9.402,1.355-14.181-2.705
		c-0.998-0.824-1.582-0.935-2.591-0.004c-2.143,1.927-4.639,3.286-7.488,3.953c-4.07,0.943-7.562-0.251-10.705-2.764
		c-0.775-0.625-1.179-4.08-0.62-4.81c0.302-0.403,0.709-0.298,1.087-0.134C5.873,24.534,7.255,25,8.702,25.318
		c5.039,1.107,9.531-0.027,13.518-3.241c1.626-1.311,1.616-1.335,3.444-0.156c2.493,1.6,3.335,2.695,6.265,3.27
		c4.487,0.867,8.37-0.388,11.896-3.089c1.753-1.352,1.729-1.389,3.375-0.089c4.795,3.75,10.04,4.266,15.646,2.085
		c1.68-0.643,3.354-1.378,4.721-2.516c1.246-1.048,2.005-0.716,3.094,0.208c3.471,2.93,9.355,4.111,13.887,3.59
		c1.799-0.189,3.479-0.78,5.156-1.441c1.659-0.637,1.736-0.56,1.807,1.22C91.52,25.409,91.51,25.641,91.51,26.089z"/>
	<path fill-rule="evenodd" clip-rule="evenodd" fill="#FFFFFF" d="M61.889,61.333c-2.567,0.049-4.676-1.976-4.692-4.496
		c-0.026-2.552,2.049-4.663,4.556-4.663c2.407,0,4.512,2.022,4.598,4.427C66.44,59.136,64.422,61.272,61.889,61.333z"/>
</g>
</svg>
