<?xml version="1.0" encoding="utf-8"?>
<!-- Generator: Adobe Illustrator 16.0.0, SVG Export Plug-In . SVG Version: 6.00 Build 0)  -->
<!DOCTYPE svg PUBLIC "-//W3C//DTD SVG 1.1//EN" "http://www.w3.org/Graphics/SVG/1.1/DTD/svg11.dtd">
<svg version="1.1" id="Layer_1" xmlns="http://www.w3.org/2000/svg" xmlns:xlink="http://www.w3.org/1999/xlink" x="0px" y="0px"
	 width="96.428px" height="87.125px" viewBox="0 0 96.428 87.125" enable-background="new 0 0 96.428 87.125" xml:space="preserve">
<g>
	<path fill-rule="evenodd" clip-rule="evenodd" fill="#63B448" d="M42.389,20.819c2.578,0.838,4.736,1.928,6.46,3.726
		c3.919,4.112,4.885,8.997,3.019,14.212c-1.893,5.297-5.964,8.195-11.56,8.775c-1.744,0.186-3.53,0.028-5.287,0.028
		c-4.284,0-8.569-0.011-12.855,0.019c-3.997,0.021-7.292-1.36-9.276-4.951c-1.941-3.558-1.669-7.101,0.675-10.451
		c0.147-0.197,0.237-0.445,0.397-0.766c-2.809-2.042-4.387-4.757-4.212-8.319c0.193-3.886,3.237-7.619,7.057-8.082
		c1.879-0.229,2.444-0.962,2.873-2.61c1.281-4.79,5.417-8.289,10.006-8.701c5.507-0.488,9.939,1.823,12.349,6.47
		c1.366,2.622,1.727,5.392,0.992,8.286C42.844,19.182,42.637,19.907,42.389,20.819z"/>
	<path fill-rule="evenodd" clip-rule="evenodd" fill="#63B448" d="M48.35,68.942c12.847-0.033,25.699-0.059,38.549-0.092
		c0.507,0,1.021,0.033,1.523,0c1.178-0.065,1.648,0.453,1.634,1.652c-0.058,5.362,0.532,4.341-4.134,4.349
		c-25.28,0.102-50.567,0.152-75.851,0.204c-2.927,0.003-3.21,0.726-3.179-3.096c0-0.335-0.013-0.674,0-1.013
		c0.067-1.717,0.166-1.866,1.888-1.881c3.957-0.056,7.899-0.044,11.842-0.056C29.869,68.993,39.106,68.968,48.35,68.942z"/>
	<path fill-rule="evenodd" clip-rule="evenodd" fill="#63B448" d="M48.39,79.015c12.875-0.037,25.735-0.07,38.596-0.096
		c0.599,0,1.178,0.025,1.769-0.007c0.984-0.04,1.327,0.467,1.327,1.389c-0.025,5.56,0.532,4.539-4.239,4.564
		c-25.059,0.08-50.113,0.124-75.165,0.192c-0.507,0-1.01,0.012-1.517,0c-2.191-0.043-2.208-0.043-2.238-2.307
		c-0.048-4.394-0.115-3.612,3.645-3.643C23.176,79.058,35.787,79.055,48.39,79.015z"/>
	<path fill-rule="evenodd" clip-rule="evenodd" fill="#63B448" d="M67.098,34.383c1.902-0.018,3.732,0.58,5.365,1.673
		c0.981,0.646,1.718,0.689,2.72,0.015c2.002-1.353,4.262-1.892,6.696-1.717c2.1,0.175,3.842,1.119,5.396,2.46
		c0.467,0.401,0.86,0.89,0.499,1.534c-0.401,0.708-0.992,0.368-1.546,0.171c-3.947-1.371-7.411-0.211-10.618,2.14
		c-1.787,1.327-1.765,1.309-3.558-0.011c-3.212-2.352-6.671-3.481-10.616-2.02c-0.483,0.175-0.95,0.39-1.341-0.142
		c-0.467-0.609-0.131-1.13,0.303-1.539C62.245,35.196,64.433,34.285,67.098,34.383z"/>
	<path fill-rule="evenodd" clip-rule="evenodd" fill="#63B448" d="M29.373,57.17c0-1.59,0.042-3.183-0.022-4.791
		c-0.043-1.129,0.284-1.673,1.549-1.654c5.271,0.069,4.349-0.554,4.433,4.108c0.04,2.428-0.019,4.854,0.029,7.304
		c0.025,1.231-0.352,1.818-1.724,1.786c-5.142-0.105-4.138,0.608-4.249-3.98C29.369,59.009,29.381,58.1,29.373,57.17z"/>
	<path fill-rule="evenodd" clip-rule="evenodd" fill="#63B448" d="M74.592,15.813c-0.108,0.715-0.579,0.955-1.242,0.748
		c-0.971-0.328-1.933-0.492-2.957-0.405c-2.252,0.193-4.257,1.017-5.814,2.643c-1.042,1.086-1.852,1.002-3.011,0.186
		c-2.592-1.812-5.438-2.533-8.529-1.331c-0.554,0.211-1.123,0.609-1.517-0.124c-0.311-0.572-0.032-1.13,0.426-1.556
		c2.358-2.209,5.191-2.964,8.107-1.746c2.06,0.853,3.547,0.74,5.432-0.368c2.676-1.582,5.464-1.174,8.038,0.572
		C74.009,14.76,74.45,15.146,74.592,15.813z"/>
	<path fill-rule="evenodd" clip-rule="evenodd" fill="#63B448" d="M72.07,3.58c1.422-0.058,2.858,0.46,3.934,1.583
		c0.904,0.973,1.786,1.229,3.102,1.002c2.355-0.397,4.518,0.146,6.073,2.162c0.324,0.387,0.664,0.773,0.697,1.309
		c0.025,0.346-0.037,0.674-0.325,0.907c-0.287,0.251-0.627,0.237-0.907,0c-2.312-1.877-4.813-1.625-7.353-0.609
		c-0.776,0.31-1.313,0.091-1.739-0.514c-1.597-2.253-3.598-3.719-6.51-3.547c-0.307,0.008-0.661-0.105-0.76-0.51
		c-0.09-0.375,0.056-0.678,0.303-0.908C69.536,3.613,70.717,3.58,72.07,3.58z"/>
</g>
</svg>
