<?xml version="1.0" encoding="utf-8"?>
<!-- Generator: Adobe Illustrator 16.0.0, SVG Export Plug-In . SVG Version: 6.00 Build 0)  -->
<!DOCTYPE svg PUBLIC "-//W3C//DTD SVG 1.1//EN" "http://www.w3.org/Graphics/SVG/1.1/DTD/svg11.dtd">
<svg version="1.1" id="Layer_1" xmlns="http://www.w3.org/2000/svg" xmlns:xlink="http://www.w3.org/1999/xlink" x="0px" y="0px"
	 width="96.428px" height="87.125px" viewBox="0 0 96.428 87.125" enable-background="new 0 0 96.428 87.125" xml:space="preserve">
<g>
	<g>
		
			<image overflow="visible" opacity="0.2" width="81" height="72" xlink:href="6354EFAF.png"  transform="matrix(1 0 0 1 7.4915 11.5068)">
		</image>
		<g>
			<path fill-rule="evenodd" clip-rule="evenodd" fill="#116C9E" d="M72.407,30.801c-0.358-2.119-0.358-2.119-2.209-1.538
				c-3.615,1.151-5.485,3.739-5.791,8.176c-0.099,1.396-0.026,2.832-0.047,4.233c-0.105,6.404-2.932,11.171-8.555,14.244
				c-2.735,1.491-5.635,2.464-8.701,3.017c-2.261,0.386-2.316,0.439-2.249,2.644c0.046,1.709-0.79,3.9,0.434,5.025
				c1.091,1.01,3.201,0.236,4.854,0.326c4.665,0.238,9.309,0.21,13.936-0.49c1.726-0.268,1.847-0.21,1.771-1.956
				c-0.155-3.725,0.619-3.425,3.533-3.403c3.244,0.004,6.503-0.037,9.756,0.014c2.132,0.036,2.249,0.178,2.254,2.317
				c0.018,3.751,0.018,7.511-0.02,11.269c-0.016,1.687-0.176,1.851-1.878,1.862c-3.915,0.047-7.842,0.037-11.765-0.012
				c-1.592-0.025-1.772-0.287-1.862-1.954c-0.168-2.999-0.168-3.04-3.191-3.461c-3.555-0.476-7.101-0.63-10.704-0.469
				c-6.505,0.29-13.016,0.226-19.521,0.347c-5.503,0.109-11.002,0.274-16.507,0.379c-2.084,0.027-2.128-0.008-2.109-2.001
				c0.018-3.362-0.421-3.224,2.999-3.117c6.088,0.221,12.187-0.03,18.258,0.483c0.499,0.036,1-0.022,1.5,0.004
				c0.897,0.05,1.159-0.434,1.159-1.229c-0.007-1.586-0.023-3.174,0.014-4.754c0.025-0.904-0.263-1.325-1.254-1.421
				c-4.856-0.414-9.167-2.304-13.17-5c-1.454-0.974-5.333-3.03-6.849-3.9c0.425-1.193,3.576,0.724,4.3,0.817
				c3.201,0.168,6.089-0.651,8.671-2.595c1.844-1.397,3.865-2.531,6.333-3.586c-6.563-1.392-9.819-5.621-11.479-11.343
				c-0.812-2.794-1.342-5.667-2.103-8.478c-0.782-2.839-1.858-5.534-5.031-7.415c4.796-0.549,8.896-0.046,12.812,1.801
				c3.533,1.659,6.495,4.063,9.218,6.801c2.325,2.341,4.926,4.203,8.242,4.928c3.862,0.856,7.036-0.517,9.934-2.867
				c1.29-1.052,2.505-2.205,3.78-3.276c0.64-0.54,1.325-1.018,2.015-1.482c3.523-2.302,5.861-2.001,8.106,0.853
				c0.195,0.257,0.488,0.451,0.731,0.693c1.022-0.288,0.727-1.456,1.376-1.95c0.498-0.061,0.772,0.071,0.552,0.639
				c-0.633,1.553-0.779,2.974,1.08,3.879c0.325,0.162,0.153,0.391-0.096,0.51c-0.134,0.061-0.317,0.023-0.477,0.023
				c-0.813,0.18-1.525,0.412-1.391,1.503C73.116,30.303,73.171,30.886,72.407,30.801z"/>
		</g>
	</g>
	<g>
		<path fill-rule="evenodd" clip-rule="evenodd" fill="#116C9E" d="M73.116,82.892c-2.249,0-4.505,0.021-6.756-0.017
			c-1.732-0.034-2.704-0.837-2.712-2.114c-0.016-1.276,0.979-2.145,2.694-2.16c4.597-0.059,9.189-0.022,13.783,0
			c0.256,0,0.522,0.016,0.785,0.047c1.179,0.221,1.848,0.921,1.887,2.113c0.055,1.173-0.774,2.067-2.143,2.114
			c-2.51,0.064-5.025,0.017-7.539,0.005C73.116,82.892,73.116,82.892,73.116,82.892z"/>
		<path fill-rule="evenodd" clip-rule="evenodd" fill="#116C9E" d="M73.403,55.544c2.259,0,4.513-0.024,6.771,0.015
			c1.812,0.032,2.679,0.756,2.663,2.093c-0.007,1.332-0.918,2.133-2.669,2.147c-4.598,0.035-9.191,0-13.783,0
			c-0.257,0-0.522,0-0.78-0.055c-1.169-0.228-1.854-0.94-1.928-2.115c-0.062-1.146,0.83-2.038,2.19-2.07
			c2.512-0.052,5.03-0.015,7.538-0.015H73.403z"/>
		<path fill-rule="evenodd" clip-rule="evenodd" fill="#116C9E" d="M5.029,69.003c0.005-0.681-0.082-1.392,0.023-2.058
			c0.188-1.286,1.037-1.919,2.359-1.892c1.343,0.014,2.133,0.616,2.241,1.976c0.107,1.371,0.075,2.751,0,4.128
			c-0.062,1.26-0.852,1.782-2.076,1.82c-1.516,0.052-2.269-0.352-2.5-1.647c-0.129-0.753-0.024-1.55-0.024-2.327
			C5.041,69.003,5.041,69.003,5.029,69.003z"/>
		<path fill-rule="evenodd" clip-rule="evenodd" fill="#116C9E" d="M87.084,7.462c-0.101,2.73-2.199,4.789-4.858,4.815
			c-0.629,0.009-0.933-0.186-1.029-0.843c-0.385-2.772,2.366-5.656,5.115-5.328C86.984,6.181,87.127,6.433,87.084,7.462z"/>
		<path fill-rule="evenodd" clip-rule="evenodd" fill="#116C9E" d="M74.174,16.01c-0.172,1.185-0.125,2.84-1.387,3.085
			c-1.196,0.247-1.957-1.17-2.561-2.215c-0.167-0.294-0.296-0.623-0.367-0.958c-0.322-1.528,0.567-4.083,1.429-4.106
			c0.902-0.047,2.593,2.013,2.806,3.429C74.129,15.506,74.154,15.758,74.174,16.01z"/>
		<path fill-rule="evenodd" clip-rule="evenodd" fill="#116C9E" d="M74.304,10.21c0.143-1.063,0.127-2.362,1.28-3.086
			c0.583-0.371,2.13,1.03,2.725,2.379c0.636,1.437,0.322,3.725-0.621,4.648c-0.28,0.281-0.558,0.295-0.907,0.16
			C75.505,13.792,74.31,11.896,74.304,10.21z"/>
		<path fill-rule="evenodd" clip-rule="evenodd" fill="#116C9E" d="M82.687,22.054c-2.32,2.131-4.355,2.177-6.305,0.25
			c-0.721-0.716-0.78-1.206,0.144-1.791C78.891,19.021,80.676,19.45,82.687,22.054z"/>
		<path fill-rule="evenodd" clip-rule="evenodd" fill="#116C9E" d="M83.167,18.675c-1.311,0.011-3.219-0.89-3.315-1.581
			c-0.098-0.758,1.817-2.137,3.162-2.27c1.548-0.174,3.709,0.831,3.696,1.732C86.7,17.385,84.571,18.653,83.167,18.675z"/>
		<path fill-rule="evenodd" clip-rule="evenodd" fill="#116C9E" d="M73.541,22.367c-0.208-0.221-0.397-0.432-0.586-0.661
			c0.498-1.723,1.773-2.927,2.915-4.212c1.15-1.288,2.35-2.552,3.535-3.8c0.314-0.344,0.547-1.104,1.148-0.557
			c0.526,0.472-0.044,0.958-0.339,1.323c-0.597,0.735-1.218,1.48-1.89,2.145C76.526,18.371,74.908,20.267,73.541,22.367z"/>
		<path fill-rule="evenodd" clip-rule="evenodd" fill="#116C9E" d="M71.915,29.49c0.466-0.348,0.443-0.856,0.455-1.346
			c0.02-1.194,0.736-1.354,1.694-1.156c-0.921,0.337-1.395,0.921-1.161,1.95c0.268,1.259,0.517,2.532,0.802,3.779
			c0.085,0.354,0.176,0.746-0.164,0.908c-0.531,0.227-0.828-0.182-0.931-0.608C72.314,31.865,71.772,30.739,71.915,29.49z"/>
	</g>
</g>
</svg>
