<?xml version="1.0" encoding="utf-8"?>
<!-- Generator: Adobe Illustrator 16.0.0, SVG Export Plug-In . SVG Version: 6.00 Build 0)  -->
<!DOCTYPE svg PUBLIC "-//W3C//DTD SVG 1.1//EN" "http://www.w3.org/Graphics/SVG/1.1/DTD/svg11.dtd">
<svg version="1.1" id="Layer_1" xmlns="http://www.w3.org/2000/svg" xmlns:xlink="http://www.w3.org/1999/xlink" x="0px" y="0px"
	 width="96.428px" height="87.125px" viewBox="0 0 96.428 87.125" enable-background="new 0 0 96.428 87.125" xml:space="preserve">
<g>
	<path fill-rule="evenodd" clip-rule="evenodd" fill="#E4B631" d="M91.754,45.873c-0.419-0.018-0.856-0.018-1.275-0.018
		C76.352,45.71,62.221,45.54,48.07,45.395c-14.458-0.145-28.941-0.316-43.401-0.461c-2.801-0.02-2.929,0.128-2.429,2.902
		c1.444,7.65,4.956,14.254,10.156,19.983c5.208,5.729,11.521,9.798,18.75,12.434c1.149,0.422,1.841,0.859,1.841,2.28
		c0,1.817,0.267,2.006,2.108,2.023c8.778,0.127,17.535,0.229,26.312,0.298c1.756,0,2.28-0.378,2.218-2.029
		c-0.043-1.628,0.711-2.131,2.066-2.631c5.916-2.132,11.202-5.312,15.821-9.592c6.414-5.96,10.703-13.172,12.667-21.722
		C94.762,46.335,94.384,45.916,91.754,45.873z"/>
	<path fill-rule="evenodd" clip-rule="evenodd" fill="#E4B631" d="M47.206,41.823c1.591,0,2.843,0.043,4.119,0.043
		c1.985,0,2.107-0.128,2.425-2.072c0.06-0.335,0.06-0.671,0.06-1.028c0.273-4.428-1.483-8.104-4.344-11.324
		c-3.031-3.427-3.699-7.297-2.593-11.623c0.564-2.168,1.566-4.095,2.656-6.039c1.17-2.09,0.017-3.931-2.382-3.931
		c-1.087,0-2.006,0.376-2.613,1.318c-4.497,6.833-6.417,15.968,0.205,23.24C47.643,33.607,48.731,37.264,47.206,41.823z"/>
	<path fill-rule="evenodd" clip-rule="evenodd" fill="#E4B631" d="M29.381,41.379c0.771,0.333,1.463,0.254,2.132,0.273
		c4.3,0.085,4.702-0.353,4.428-4.764c-0.017-0.418-0.128-0.837-0.188-1.256c-0.521-3.384-2.234-6.187-4.471-8.714
		c-2.758-3.134-3.324-6.791-2.491-10.722c0.523-2.427,1.608-4.619,2.886-6.751C32.722,7.69,31.848,6,29.836,5.704
		c-1.38-0.208-2.504,0.188-3.318,1.38c-1.172,1.694-2.053,3.534-2.738,5.457c-2.177,6.208-1.798,12.056,2.672,17.196
		C29.441,33.171,30.947,36.888,29.381,41.379z"/>
	<path fill-rule="evenodd" clip-rule="evenodd" fill="#E4B631" d="M65.22,41.797c1.275,0.401,2.466,0.214,3.639,0.231
		c2.467,0.06,2.569-0.043,2.818-2.422c0.085-0.671,0.085-1.363,0.067-2.03c-0.146-3.926-1.901-7.188-4.436-10.049
		c-2.88-3.264-3.591-6.981-2.589-11.162c0.543-2.26,1.525-4.309,2.675-6.295C68.67,7.835,67.481,6,64.928,6.037
		c-1.355,0.042-2.194,0.796-2.844,1.841c-1.397,2.26-2.485,4.662-3.137,7.229c-1.354,5.542-0.497,10.639,3.351,15.007
		C65.328,33.521,66.786,37.264,65.22,41.797z"/>
</g>
</svg>
