<?xml version="1.0" encoding="utf-8"?>
<!-- Generator: Adobe Illustrator 16.0.0, SVG Export Plug-In . SVG Version: 6.00 Build 0)  -->
<!DOCTYPE svg PUBLIC "-//W3C//DTD SVG 1.1//EN" "http://www.w3.org/Graphics/SVG/1.1/DTD/svg11.dtd">
<svg version="1.1" id="Layer_1" xmlns="http://www.w3.org/2000/svg" xmlns:xlink="http://www.w3.org/1999/xlink" x="0px" y="0px"
	 width="96.428px" height="87.125px" viewBox="0 0 96.428 87.125" enable-background="new 0 0 96.428 87.125" xml:space="preserve">
<g>
	<path fill-rule="evenodd" clip-rule="evenodd" fill="#4D9F46" d="M72.752,16.899c-2.138,6.987-4.202,13.747-6.264,20.503
		c-3.734,12.213-7.465,24.423-11.207,36.635c-0.146,0.463-0.268,0.951-0.464,1.394c-0.308,0.719-0.883,1.12-1.648,1.067
		c-0.874-0.056-1.438-0.547-1.595-1.425c-0.402-2.344-0.806-4.7-1.191-7.059c-1.156-6.979-2.302-13.981-3.468-20.967
		c-0.019-0.119-0.15-0.226-0.306-0.439c-0.511,0.136-0.6,0.664-0.806,1.039c-1.995,3.631-3.977,7.273-5.964,10.905
		c-0.199,0.372-0.391,0.748-0.594,1.119c-0.418,0.731-0.994,1.169-1.888,1.043c-0.907-0.136-1.302-0.714-1.42-1.58
		c-0.222-1.592-0.481-3.186-0.707-4.793c-0.724-5.348-1.451-10.706-2.185-16.067c-0.027-0.172-0.162-0.357-0.31-0.654
		c-0.531,0.367-0.63,0.931-0.84,1.377c-1.55,3.392-3.142,6.762-4.583,10.189c-0.549,1.305-1.309,1.774-2.713,1.755
		c-7.167-0.086-14.335-0.093-21.511-0.124c-0.348,0-0.706,0.017-1.049-0.032c-0.796-0.116-1.234-0.645-1.323-1.421
		c-0.1-0.776,0.249-1.341,0.975-1.688c0.674-0.321,1.379-0.194,2.071-0.194c6.256,0.013,12.52,0.013,18.777,0.099
		c1.299,0.023,1.993-0.355,2.521-1.582c2.083-4.837,4.288-9.624,6.444-14.425c0.173-0.39,0.339-0.778,0.511-1.156
		c0.377-0.867,1.042-1.339,2.002-1.175c0.874,0.155,1.255,0.757,1.356,1.638c0.208,1.667,0.5,3.326,0.729,4.997
		c0.728,5.284,1.428,10.563,2.154,15.854c0.068,0.477,0.227,0.947,0.382,1.582c0.659-0.635,0.913-1.354,1.262-1.991
		c1.83-3.328,3.646-6.666,5.466-9.992c0.232-0.434,0.47-0.86,0.716-1.285c0.403-0.686,1.017-0.948,1.785-0.815
		c0.79,0.129,1.21,0.658,1.348,1.421c0.394,2.286,0.794,4.556,1.168,6.843c1.002,6.023,1.997,12.04,2.99,18.068
		c0.062,0.347,0.159,0.679,0.598,1.055c0.922-2.971,1.827-5.868,2.709-8.772c4.612-15.086,9.217-30.194,13.819-45.298
		c0.044-0.13,0.12-0.256,0.158-0.387c0.254-0.891,0.493-1.818,1.626-1.957c1.25-0.152,1.69,0.751,2.128,1.667
		c2.69,5.638,5.391,11.28,8.078,16.916c0.211,0.438,0.418,0.908,0.511,1.375c0.167,0.886-0.258,1.496-1.059,1.842
		c-0.756,0.333-1.395,0.029-1.873-0.546c-0.299-0.375-0.474-0.854-0.689-1.295c-1.82-3.799-3.633-7.609-5.45-11.41
		C73.657,18.193,73.49,17.568,72.752,16.899z"/>
	<path fill-rule="evenodd" clip-rule="evenodd" fill="#4D9F46" d="M83.222,60.366c-1.602-1.689-3.313-3.524-5.057-5.332
		c-1.513-1.568-3.107-3.052-4.578-4.658c-2.696-2.95-2.639-7.48,0.049-10.348c2.114-2.257,5.059-2.566,7.581-0.737
		c0.839,0.611,1.595,1.345,2.414,2.039c0.851-0.677,1.645-1.367,2.506-1.97c2.916-2.051,6.199-1.424,8.229,1.529
		c1.826,2.67,1.894,6.716-0.318,9.03C90.666,53.474,87.001,56.749,83.222,60.366z"/>
</g>
</svg>
