<?xml version="1.0" encoding="utf-8"?>
<!-- Generator: Adobe Illustrator 16.0.0, SVG Export Plug-In . SVG Version: 6.00 Build 0)  -->
<!DOCTYPE svg PUBLIC "-//W3C//DTD SVG 1.1//EN" "http://www.w3.org/Graphics/SVG/1.1/DTD/svg11.dtd">
<svg version="1.1" id="Layer_1" xmlns="http://www.w3.org/2000/svg" xmlns:xlink="http://www.w3.org/1999/xlink" x="0px" y="0px"
	 width="96.428px" height="87.125px" viewBox="0 0 96.428 87.125" enable-background="new 0 0 96.428 87.125" xml:space="preserve">
<g>
	<path fill-rule="evenodd" clip-rule="evenodd" fill="#C62231" d="M37.368,74.068c-0.407,0.176-0.791,0.054-1.174-0.068
		c-8.73-2.703-17.461-5.441-26.214-8.074c-1.225-0.375-1.645-0.879-1.636-2.156C8.49,46.556,8.574,29.354,8.671,12.136
		c0-0.224,0.073-0.441,0.11-0.653c0.687-0.321,1.105,0.188,1.548,0.449c8.668,5.047,17.311,10.155,25.995,15.183
		c1.106,0.625,1.54,1.3,1.523,2.625c-0.136,14.309-0.198,28.634-0.29,42.948C37.557,73.156,37.666,73.643,37.368,74.068z"/>
	<path fill-rule="evenodd" clip-rule="evenodd" fill="#C62231" d="M70.359,11.716c0,0.726-0.007,1.36-0.007,1.988
		c-0.101,16.586-0.192,33.174-0.3,49.748c-0.008,2.335,0.469,2.177-2.139,2.938c-8.628,2.528-17.253,5.085-25.874,7.613
		c-0.37,0.106-0.762,0.176-1.139,0.254c-0.574-0.615-0.339-1.284-0.339-1.874c0.067-14.085,0.177-28.175,0.206-42.258
		c0-1.471,0.461-2.26,1.759-2.984c8.694-4.861,17.331-9.832,25.995-14.763C68.99,12.115,69.411,11.709,70.359,11.716z"/>
	<path fill-rule="evenodd" clip-rule="evenodd" fill="#C62231" d="M5.719,11.189c-0.007,1.117-0.007,1.986-0.012,2.858
		C5.602,31.11,5.499,48.165,5.407,65.229c-0.003,0.475,0.07,0.975-0.029,1.437c-0.248,1.262,0.479,1.691,1.515,1.975
		c4.715,1.333,9.415,2.67,14.132,4.015c4.855,1.384,9.728,2.739,14.578,4.177c2.389,0.697,4.689,0.697,7.089-0.086
		c9.385-3.046,18.81-5.979,28.208-8.968c2.034-0.654,2.034-0.658,2.049-2.771c0.104-16.985,0.199-33.96,0.297-50.943
		c0.007-0.769,0.014-1.547,0.021-2.671c2.011,1.271,3.364,2.16,3.337,4.706c-0.24,17.067-0.261,34.119-0.379,51.176
		c-0.026,2.539,0.45,2.038-2.189,2.86c-10.426,3.247-20.84,6.486-31.251,9.755c-2.373,0.743-4.699,0.79-7.093,0.104
		c-10.5-2.979-21.004-5.939-31.508-8.915c-2.01-0.558-2.015-0.575-2.002-2.767c0.1-17.372,0.257-34.758,0.238-52.135
		C2.415,13.726,3.218,12.246,5.719,11.189z"/>
	<path fill-rule="evenodd" clip-rule="evenodd" fill="#C62231" d="M89.003,76.307c-1.427-5.625-3.454-11.006-3.289-17.032
		c0.343-13.348,0.228-26.699,0.308-40.054c0-0.485,0.046-0.978,0.014-1.447c-0.067-0.914,0.297-1.307,1.251-1.25
		c1.82,0.125,3.673-0.137,5.496,0.201c0.612,1.708,0.258,3.474,0.247,5.208c-0.04,13.427-0.149,26.87-0.2,40.3
		c-0.003,1.869-0.239,3.661-0.805,5.445c-0.812,2.521-1.502,5.082-2.239,7.624C89.676,75.685,89.618,76.096,89.003,76.307z"/>
	<path fill-rule="evenodd" clip-rule="evenodd" fill="#C62231" d="M89.45,14.053c-0.161,0-0.322,0-0.483-0.005
		c-3.215-0.083-2.953,0.606-2.867-3.22c0.058-2.804,1.592-4.296,3.912-4.073c1.487,0.159,2.811,1.227,3.004,2.684
		c0.172,1.262,0.074,2.559,0.057,3.842c-0.003,0.617-0.439,0.778-0.979,0.778c-0.88,0-1.767-0.011-2.643-0.011V14.053z"/>
</g>
</svg>
