<?xml version="1.0" encoding="utf-8"?>
<!-- Generator: Adobe Illustrator 16.0.0, SVG Export Plug-In . SVG Version: 6.00 Build 0)  -->
<!DOCTYPE svg PUBLIC "-//W3C//DTD SVG 1.1//EN" "http://www.w3.org/Graphics/SVG/1.1/DTD/svg11.dtd">
<svg version="1.1" id="Layer_1" xmlns="http://www.w3.org/2000/svg" xmlns:xlink="http://www.w3.org/1999/xlink" x="0px" y="0px"
	 width="96.428px" height="87.125px" viewBox="0 0 96.428 87.125" enable-background="new 0 0 96.428 87.125" xml:space="preserve">
<g>
	<path fill-rule="evenodd" clip-rule="evenodd" fill="#E84430" d="M63.31,10.31c-1.741,0-3.473,0.009-5.207-0.031
		c-1.52-0.026-1.562-0.075-1.586-1.636c-0.018-1.084-0.014-2.187,0.003-3.276c0.032-1.564,0.043-1.604,1.583-1.617
		c4.153-0.019,8.315,0,12.473,0.013c1.029,0,2.044,0.013,3.07,0.027c1.675,0.028,1.699,0.04,1.699,1.646
		c0.004,3.716-0.014,7.448-0.024,11.17c-0.003,1.604-0.041,3.212-0.007,4.816c0.018,0.843-0.299,1.189-1.14,1.163
		c-1.391-0.036-2.774-0.045-4.165-0.005c-0.922,0.018-1.312-0.356-1.279-1.299c0.042-1.67,0.021-3.353,0.024-5.002
		c-0.758-0.259-0.96,0.359-1.283,0.672c-1.786,1.735-3.535,3.48-5.287,5.246c-1.183,1.182-1.172,1.189-0.32,2.694
		c4.141,7.295,4.593,14.827,1.057,22.432c-3.163,6.805-8.586,11.095-15.825,13.076c-1.853,0.504-1.865,0.473-1.879,2.416
		c-0.001,1.162,0.045,2.343-0.026,3.508c-0.063,1.096,0.257,1.596,1.462,1.526c1.535-0.094,3.072,0.024,4.597-0.024
		c0.947-0.024,1.317,0.33,1.286,1.272c-0.044,1.529-0.038,3.069-0.018,4.599c0.021,0.96-0.426,1.259-1.335,1.231
		c-1.384-0.053-2.773-0.015-4.157-0.028c-2.096-0.01-1.821-0.01-1.842,1.943c-0.014,1.245-0.047,2.492,0,3.727
		c0.033,1.019-0.334,1.46-1.399,1.419c-1.528-0.063-3.061-0.056-4.594-0.011c-0.969,0.017-1.274-0.435-1.255-1.342
		c0.049-1.384,0-2.774,0.024-4.162c0.03-1.74-0.107-1.612-1.523-1.609c-1.524,0.011-3.057-0.038-4.595,0.011
		c-0.915,0.024-1.347-0.309-1.33-1.251c0.033-1.533,0.043-3.077,0.003-4.604c-0.024-0.98,0.426-1.258,1.327-1.237
		c1.605,0.039,3.213-0.021,4.82,0.034c0.896,0.022,1.418-0.215,1.323-1.212c-0.019-0.213,0.001-0.436,0.001-0.657
		c-0.001-1.537,0.447-3.285-0.135-4.537c-0.644-1.339-2.682-0.998-4.09-1.463c-10.566-3.48-17.344-13.834-16.38-25.139
		c0.919-10.752,9.491-19.756,20.261-21.369c6.216-0.936,11.87,0.452,17.082,3.848c1.354,0.883,1.367,0.9,2.501-0.212
		c2.114-2.098,4.217-4.208,6.32-6.313C63.467,10.611,63.39,10.458,63.31,10.31z"/>
	<path fill-rule="evenodd" clip-rule="evenodd" fill="#E84430" d="M23.812,36.865c-0.231-9.06,7.951-17.547,17.928-17.24
		c9.353,0.274,17.107,8.083,17.043,17.545c-0.066,9.787-8.011,17.654-17.788,17.48C30.377,54.463,23.327,45.366,23.812,36.865z"/>
	<path fill-rule="evenodd" clip-rule="evenodd" fill="#FFFFFF" d="M41.455,39.044c3.058,0,6.113-0.013,9.176,0.024
		c1.649,0.01,1.649,0.045,1.688,1.738c0.094,4.03,0.094,4.03-3.979,4.019c-5.313-0.017-10.63-0.024-15.944-0.052
		c-1.956-0.003-1.956-0.021-1.979-1.832c-0.053-3.93-0.053-3.93,3.834-3.93c1.24,0.009,2.479,0.019,3.709,0.019
		C39.124,39.03,40.295,39.032,41.455,39.044z"/>
	<path fill-rule="evenodd" clip-rule="evenodd" fill="#FFFFFF" d="M41.217,35.522c-3.125-0.007-6.259-0.038-9.386,0
		c-0.995,0.01-1.505-0.226-1.405-1.336c0.128-1.372-0.52-3.068,0.271-4.04c0.845-1.038,2.596-0.346,3.945-0.356
		c5.315-0.04,10.634,0,15.945,0.028c1.713,0.003,1.722,0.038,1.752,1.672c0.019,0.942-0.039,1.886,0.01,2.836
		c0.054,0.97-0.397,1.25-1.298,1.241C47.777,35.522,44.496,35.533,41.217,35.522z"/>
</g>
</svg>
