<?xml version="1.0" encoding="utf-8"?>
<!-- Generator: Adobe Illustrator 16.0.0, SVG Export Plug-In . SVG Version: 6.00 Build 0)  -->
<!DOCTYPE svg PUBLIC "-//W3C//DTD SVG 1.1//EN" "http://www.w3.org/Graphics/SVG/1.1/DTD/svg11.dtd">
<svg version="1.1" id="Layer_1" xmlns="http://www.w3.org/2000/svg" xmlns:xlink="http://www.w3.org/1999/xlink" x="0px" y="0px"
	 width="96.428px" height="87.125px" viewBox="0 0 96.428 87.125" enable-background="new 0 0 96.428 87.125" xml:space="preserve">
<g>
	<path fill="#FCC30B" d="M48.21,18.662c-13.87,0-25.115,11.246-25.115,25.117C23.095,57.658,34.34,68.9,48.21,68.9
		c13.867,0,25.113-11.242,25.113-25.122C73.323,29.908,62.077,18.662,48.21,18.662 M46.348,28.584c0-0.835,0.84-1.758,1.872-1.758
		c1.029,0,1.861,0.919,1.861,1.758v8.622c0,0.834-0.832,1.744-1.861,1.744c-1.032,0-1.872-0.91-1.872-1.744V28.584z M48.213,56.648
		c-7.214,0-13.064-5.844-13.064-13.063c0-5.862,3.86-10.828,9.181-12.475v4.861c-2.768,1.417-4.669,4.288-4.669,7.614
		c0,4.724,3.828,8.552,8.553,8.552c4.724,0,8.55-3.828,8.55-8.552c0-3.333-1.908-6.211-4.688-7.627V31.1
		c5.328,1.646,9.203,6.612,9.203,12.485C61.279,50.805,55.429,56.648,48.213,56.648"/>
	<path fill="#FCC30B" d="M19.377,43.558c0-1.137-1.007-2.063-1.93-2.063h-11c-0.927,0-1.944,0.925-1.944,2.063
		c0,1.144,1.018,2.069,1.944,2.069h11C18.368,45.629,19.377,44.701,19.377,43.558"/>
	<path fill="#FCC30B" d="M91.925,43.558c0-1.137-1.008-2.063-1.932-2.063H78.995c-0.926,0-1.945,0.925-1.945,2.063
		c0,1.144,1.02,2.069,1.945,2.069h10.998C90.917,45.629,91.925,44.701,91.925,43.558"/>
	<path fill="#FCC30B" d="M48.217,14.725c1.14,0,2.062-1.008,2.062-1.928v-11c0-0.928-0.922-1.944-2.062-1.944
		c-1.139,0-2.068,1.017-2.068,1.944v11C46.149,13.716,47.08,14.725,48.217,14.725"/>
	<path fill="#FCC30B" d="M48.217,87.273c1.14,0,2.062-1.008,2.062-1.93V74.348c0-0.926-0.922-1.945-2.062-1.945
		c-1.139,0-2.068,1.02-2.068,1.945v10.996C46.149,86.266,47.08,87.273,48.217,87.273"/>
	<path fill="#FCC30B" d="M23.187,29.233c0.566-0.988,0.149-2.286-0.65-2.747l-9.547-5.463c-0.804-0.461-2.146-0.166-2.712,0.822
		c-0.566,0.989-0.145,2.302,0.661,2.763l9.547,5.467C21.285,30.529,22.621,30.226,23.187,29.233"/>
	<path fill="#FCC30B" d="M86.152,65.271c0.564-0.988,0.148-2.287-0.648-2.746l-9.547-5.465c-0.803-0.465-2.15-0.164-2.713,0.822
		c-0.566,0.99-0.145,2.303,0.662,2.762l9.543,5.465C84.251,66.566,85.587,66.262,86.152,65.271"/>
	<path fill="#FCC30B" d="M62.544,18.536c0.988,0.563,2.283,0.146,2.744-0.653l5.463-9.545c0.461-0.806,0.164-2.147-0.818-2.715
		c-0.992-0.566-2.307-0.143-2.766,0.665l-5.463,9.545C61.245,16.635,61.55,17.97,62.544,18.536"/>
	<path fill="#FCC30B" d="M26.507,81.502c0.986,0.563,2.288,0.148,2.746-0.65l5.462-9.547c0.462-0.805,0.165-2.145-0.821-2.713
		c-0.988-0.566-2.303-0.145-2.763,0.66l-5.463,9.545C25.209,79.596,25.514,80.936,26.507,81.502"/>
	<path fill="#FCC30B" d="M33.842,18.562c0.986-0.568,1.284-1.906,0.825-2.7l-5.484-9.539c-0.464-0.804-1.768-1.227-2.757-0.658
		c-0.99,0.568-1.286,1.913-0.821,2.718l5.481,9.535C31.548,18.716,32.849,19.129,33.842,18.562"/>
	<path fill="#FCC30B" d="M70.005,81.453c0.986-0.566,1.285-1.902,0.826-2.699l-5.48-9.537c-0.465-0.803-1.77-1.227-2.76-0.656
		c-0.99,0.564-1.285,1.91-0.822,2.717l5.484,9.537C67.71,81.613,69.017,82.023,70.005,81.453"/>
	<path fill="#FCC30B" d="M73.216,29.188c0.566,0.986,1.9,1.285,2.699,0.828l9.537-5.482c0.803-0.464,1.227-1.773,0.658-2.758
		c-0.572-0.989-1.914-1.285-2.719-0.825l-9.535,5.482C73.058,26.89,72.648,28.2,73.216,29.188"/>
	<path fill="#FCC30B" d="M10.323,65.355c0.566,0.988,1.902,1.283,2.701,0.826l9.534-5.482c0.804-0.461,1.229-1.77,0.657-2.756
		c-0.566-0.99-1.913-1.287-2.716-0.822L10.967,62.6C10.166,63.061,9.756,64.365,10.323,65.355"/>
</g>
</svg>
