<?xml version="1.0" encoding="utf-8"?>
<!-- Generator: Adobe Illustrator 16.0.0, SVG Export Plug-In . SVG Version: 6.00 Build 0)  -->
<!DOCTYPE svg PUBLIC "-//W3C//DTD SVG 1.1//EN" "http://www.w3.org/Graphics/SVG/1.1/DTD/svg11.dtd">
<svg version="1.1" id="Layer_1" xmlns="http://www.w3.org/2000/svg" xmlns:xlink="http://www.w3.org/1999/xlink" x="0px" y="0px"
	 width="96.428px" height="87.125px" viewBox="0 0 96.428 87.125" enable-background="new 0 0 96.428 87.125" xml:space="preserve">
<g>
	<g>
		<path fill-rule="evenodd" clip-rule="evenodd" fill="#A21E45" d="M61.699,85.052c-1.363-0.16-1.444-1.143-1.459-2.233
			c-0.047-5.328-0.133-10.672-0.205-16.013c-0.108-8.241-0.185-16.491-0.35-24.736c-0.041-1.687,0.421-2.948,1.677-4.146
			c4.614-4.376,9.113-8.866,13.657-13.313c0.172-0.161,0.329-0.346,0.512-0.49c0.603-0.454,1.002-1.474,1.88-1.167
			c0.957,0.331,0.493,1.36,0.5,2.068c0.132,6.675,0.202,13.339,0.288,20.021c0.169,12.402,0.34,24.807,0.493,37.208
			c0.012,0.976,0.389,2.122-0.989,2.582C72.385,85.188,67.046,85.255,61.699,85.052z"/>
		<path fill-rule="evenodd" clip-rule="evenodd" fill="#A21E45" d="M46.015,53.987c2.15-2.212,4.351-4.452,6.55-6.695
			c0.444-0.449,0.854-0.935,1.328-1.328c0.766-0.626,1.328-0.433,1.489,0.505c0.088,0.542,0.043,1.104,0.051,1.651
			c0.153,11.321,0.308,22.644,0.463,33.954c0,0.475,0.011,0.957,0.006,1.42c-0.03,1.055-0.579,1.548-1.642,1.558
			c-5.101,0.068-10.211,0.136-15.317,0.206c-1.2,0.03-1.738-0.563-1.709-1.726c0.005-0.318-0.008-0.629-0.013-0.936
			c-0.152-11.243-0.307-22.49-0.434-33.725c0-0.783-0.506-1.901,0.585-2.283c0.884-0.307,1.354,0.639,1.91,1.146
			C41.473,49.755,43.652,51.795,46.015,53.987z"/>
		<path fill-rule="evenodd" clip-rule="evenodd" fill="#A21E45" d="M32.264,34.322c-2.505,2.63-4.986,5.255-7.496,7.85
			c-3.774,3.889-7.561,7.767-11.354,11.651c-1.308,1.337-1.364,1.359-2.567,0.164c-3.516-3.498-3.391-2.398-0.138-5.781
			c6.552-6.791,13.147-13.518,19.731-20.269c0.168-0.168,0.325-0.331,0.495-0.504c1.399-1.385,1.416-1.399,2.793-0.077
			c3.047,2.937,6.098,5.898,9.102,8.888c0.901,0.883,1.637,1.913,2.3,2.714c1.284-0.514,1.698-1.196,2.231-1.756
			c8.127-8.318,16.234-16.658,24.351-24.983c1.494-1.536,1.469-1.229,0.04-2.69c-0.582-0.617-1.393-1.031-1.61-1.939
			c0.184-0.76,0.864-0.605,1.346-0.72C74.986,6,78.484,5.159,82,4.332c1.546-0.359,1.726-0.217,1.445,1.228
			c-0.729,3.699-1.461,7.381-2.256,11.055c-0.285,1.354-0.569,1.397-1.634,0.516c-0.777-0.641-1.341-1.924-2.29-1.863
			c-1.028,0.086-1.641,1.341-2.402,2.115c-9.1,9.332-18.204,18.685-27.309,28.039c-2.1,2.154-1.781,1.837-3.593,0.104
			C40.162,41.89,36.358,38.249,32.264,34.322z"/>
		<path fill-rule="evenodd" clip-rule="evenodd" fill="#A21E45" d="M32.218,64.165c0.09,6.203,0.172,12.412,0.243,18.608
			c0.036,2.529,0,2.56-2.4,2.597c-4.628,0.078-9.263,0.143-13.901,0.187c-2.023,0.019-2.169-0.115-2.199-2.085
			c-0.118-7.148-0.177-14.288-0.314-21.43c-0.024-1.284,0.344-2.26,1.265-3.146c5.071-4.935,10.107-9.88,15.153-14.819
			c0.391-0.368,0.753-0.892,1.394-0.646c0.693,0.254,0.484,0.915,0.491,1.424C32.053,51.289,32.132,57.724,32.218,64.165z"/>
		<path fill-rule="evenodd" clip-rule="evenodd" fill="#A21E45" d="M61.699,85.052c5.339-0.22,10.667-0.283,16.004-0.22
			c-0.408,0.479-0.98,0.423-1.518,0.426c-4.313,0.063-8.628,0.119-12.948,0.184C62.697,85.441,62.132,85.513,61.699,85.052z"/>
	</g>
</g>
</svg>
