<?xml version="1.0" encoding="utf-8"?>
<!-- Generator: Adobe Illustrator 16.0.0, SVG Export Plug-In . SVG Version: 6.00 Build 0)  -->
<!DOCTYPE svg PUBLIC "-//W3C//DTD SVG 1.1//EN" "http://www.w3.org/Graphics/SVG/1.1/DTD/svg11.dtd">
<svg version="1.1" id="Layer_1" xmlns="http://www.w3.org/2000/svg" xmlns:xlink="http://www.w3.org/1999/xlink" x="0px" y="0px"
	 width="96.428px" height="87.125px" viewBox="0 0 96.428 87.125" enable-background="new 0 0 96.428 87.125" xml:space="preserve">
<g>
	<path fill="#FD6925" d="M87.557,48.27L67.896,36.921v-22.7c0-0.479-0.255-0.924-0.671-1.162L46.897,1.324
		c-0.416-0.241-0.926-0.241-1.341,0L25.227,13.06c-0.415,0.241-0.67,0.683-0.67,1.162v22.7L4.899,48.27
		c-0.415,0.242-0.67,0.683-0.67,1.161v23.478c0,0.479,0.256,0.922,0.67,1.163l20.328,11.732c0.208,0.118,0.44,0.179,0.672,0.179
		c0.23,0,0.462-0.061,0.67-0.179l19.659-11.349l19.658,11.349c0.206,0.118,0.437,0.179,0.667,0.179c0.235,0,0.465-0.061,0.672-0.179
		l20.332-11.732c0.415-0.241,0.671-0.684,0.671-1.163V49.431C88.228,48.952,87.974,48.509,87.557,48.27 M44.886,70.585
		l-16.305-9.414l16.306-9.415v18.829H44.886z M63.871,37.695L47.57,47.111V28.28L63.871,37.695z M44.886,47.107l-16.305-9.412
		l16.305-9.416V47.107z M48.911,49.433l17.644-10.188l17.65,10.187l-17.65,10.188L48.911,49.433z M65.215,35.372L48.91,25.957
		l16.305-9.414V35.372z M43.544,25.96L27.24,35.374v-18.83L43.544,25.96z M24.556,82.319L6.91,72.134v-20.38l17.646,10.191V82.319z
		 M27.24,82.319V63.494l16.304,9.414L27.24,82.319z M85.547,72.134L67.896,82.319V61.945l17.651-10.191V72.134z"/>
</g>
</svg>
