<?xml version="1.0" encoding="utf-8"?>
<!-- Generator: Adobe Illustrator 16.0.0, SVG Export Plug-In . SVG Version: 6.00 Build 0)  -->
<!DOCTYPE svg PUBLIC "-//W3C//DTD SVG 1.1//EN" "http://www.w3.org/Graphics/SVG/1.1/DTD/svg11.dtd">
<svg version="1.1" id="Layer_1" xmlns="http://www.w3.org/2000/svg" xmlns:xlink="http://www.w3.org/1999/xlink" x="0px" y="0px"
	 width="61.93px" height="54.425px" viewBox="0 0 61.93 54.425" enable-background="new 0 0 61.93 54.425" xml:space="preserve">
<g>
	<path fill="#60BA46" d="M20.381,20.763c0.6-1.024,1.321-1.964,2.151-2.794l-7.058-7.805c-1.774,1.711-3.29,3.696-4.481,5.882
		L20.381,20.763z"/>
	<path fill="#E4B631" d="M37.68,15.247c1.068,0.494,2.063,1.125,2.962,1.871l7.076-7.794c-1.865-1.621-3.978-2.958-6.274-3.946
		L37.68,15.247z"/>
	<path fill="#C4222F" d="M53.89,17.594l-9.38,4.716c0.447,1.054,0.764,2.174,0.938,3.342l10.437-0.994
		C55.572,22.166,54.89,19.793,53.89,17.594"/>
	<path fill="#4A9E46" d="M43.835,20.943l9.377-4.715c-1.159-2.18-2.641-4.156-4.381-5.87l-7.078,7.793
		C42.562,18.985,43.26,19.923,43.835,20.943"/>
	<path fill="#428044" d="M18.516,27.667c0-0.213,0.006-0.425,0.016-0.638L8.094,26.085c-0.031,0.524-0.051,1.047-0.051,1.579
		c0,2.02,0.25,3.982,0.709,5.854l10.08-2.913C18.626,29.656,18.516,28.673,18.516,27.667"/>
	<path fill="#F7C318" d="M42.522,36.318c-0.742,0.91-1.599,1.721-2.546,2.415l5.512,8.998c2.046-1.397,3.866-3.104,5.394-5.057
		L42.522,36.318z"/>
	<path fill="#EE412B" d="M45.595,27.667c0,0.996-0.107,1.969-0.311,2.905l10.076,2.919c0.461-1.866,0.706-3.817,0.706-5.824
		c0-0.501-0.017-0.995-0.046-1.487l-10.436,0.994C45.592,27.339,45.595,27.5,45.595,27.667"/>
	<path fill="#F89F27" d="M21.758,36.52l-8.341,6.391c1.551,1.929,3.387,3.609,5.45,4.979l5.507-8.988
		C23.403,38.224,22.522,37.422,21.758,36.52"/>
	<path fill="#1B95D2" d="M18.686,25.51c0.187-1.19,0.529-2.325,0.999-3.391l-9.376-4.711c-1.037,2.224-1.746,4.629-2.068,7.157
		L18.686,25.51z"/>
	<path fill="#A21C45" d="M44.205,48.543L38.7,39.557c-0.996,0.57-2.073,1.017-3.209,1.315l1.943,10.396
		C39.849,50.709,42.127,49.781,44.205,48.543"/>
	<path fill="#29BCE1" d="M44.882,32.042c-0.365,1.083-0.859,2.103-1.464,3.043l8.366,6.366c1.359-1.97,2.437-4.15,3.168-6.49
		L44.882,32.042z"/>
	<path fill="#F16B2D" d="M34.008,41.178c-0.639,0.093-1.288,0.143-1.955,0.143c-0.528,0-1.055-0.033-1.575-0.095L28.54,51.625
		c1.147,0.167,2.32,0.258,3.513,0.258c1.328,0,2.627-0.109,3.897-0.318L34.008,41.178z"/>
	<path fill="#E8253D" d="M32.918,14.039c1.165,0.073,2.29,0.298,3.354,0.651l3.76-9.866c-2.235-0.797-4.625-1.271-7.114-1.359
		V14.039L32.918,14.039z"/>
	<path fill="#DC1768" d="M28.988,40.966c-1.174-0.272-2.288-0.706-3.324-1.268l-5.514,8.993c2.121,1.225,4.441,2.131,6.899,2.66
		L28.988,40.966z"/>
	<path fill="#19496B" d="M27.987,14.642c1.089-0.346,2.233-0.559,3.419-0.615V3.457c-2.521,0.067-4.939,0.531-7.211,1.325
		L27.987,14.642z"/>
	<path fill="#C5962D" d="M20.84,35.304c-0.668-0.991-1.21-2.076-1.599-3.229L9.17,34.99c0.762,2.423,1.893,4.682,3.324,6.709
		L20.84,35.304z"/>
	<path fill="#056A9D" d="M23.667,16.954c0.885-0.707,1.859-1.302,2.902-1.771l-3.787-9.855c-2.257,0.955-4.336,2.248-6.179,3.816
		L23.667,16.954z"/>
</g>
</svg>
