<?xml version="1.0" encoding="utf-8"?>
<!-- Generator: Adobe Illustrator 16.0.0, SVG Export Plug-In . SVG Version: 6.00 Build 0)  -->
<!DOCTYPE svg PUBLIC "-//W3C//DTD SVG 1.1//EN" "http://www.w3.org/Graphics/SVG/1.1/DTD/svg11.dtd">
<svg version="1.1" xmlns="http://www.w3.org/2000/svg" xmlns:xlink="http://www.w3.org/1999/xlink" x="0px" y="0px" width="30px"
	 height="37.333px" viewBox="0 0 30 37.333" enable-background="new 0 0 30 37.333" xml:space="preserve">
<g id="Layer_1">
</g>
<g id="Layer_2">
	<g>
		<path stroke="#FFFFFF" stroke-miterlimit="10" d="M16.717,31.852l8.88-8.571c1.146-1.109,1.174-2.896,0.064-4.042
			c-1.11-1.146-2.896-1.174-4.041-0.064l-3.916,3.793l0.273-17.171c0.025-1.565-1.239-2.871-2.807-2.896
			c-1.566-0.025-2.871,1.238-2.896,2.806l-0.273,17.17l-3.793-3.884c-1.11-1.146-2.896-1.174-4.041-0.064
			C3.593,19.482,3.3,20.199,3.288,20.92c-0.011,0.721,0.259,1.477,0.814,2.019l8.572,8.85c0.523,0.541,1.239,0.865,1.991,0.878
			C15.418,32.678,16.175,32.376,16.717,31.852z"/>
	</g>
</g>
</svg>
