<?xml version="1.0" encoding="utf-8"?>
<!-- Generator: Adobe Illustrator 16.0.0, SVG Export Plug-In . SVG Version: 6.00 Build 0)  -->
<!DOCTYPE svg PUBLIC "-//W3C//DTD SVG 1.1//EN" "http://www.w3.org/Graphics/SVG/1.1/DTD/svg11.dtd">
<svg version="1.1" id="Layer_1" xmlns="http://www.w3.org/2000/svg" xmlns:xlink="http://www.w3.org/1999/xlink" x="0px" y="0px"
	 width="67px" height="43px" viewBox="0 0 67 43" enable-background="new 0 0 67 43" xml:space="preserve">
<g>
	<path fill="#FFFFFF" d="M39.451,36.636c-0.515-0.059-0.543-0.43-0.552-0.839c-0.019-2.007-0.047-4.021-0.074-6.032
		c-0.041-3.104-0.069-6.212-0.131-9.314c-0.019-0.638,0.155-1.111,0.631-1.562c1.739-1.649,3.431-3.339,5.146-5.015
		c0.063-0.061,0.123-0.131,0.19-0.185c0.229-0.171,0.378-0.555,0.71-0.441c0.359,0.124,0.183,0.514,0.188,0.781
		c0.049,2.514,0.074,5.022,0.108,7.542c0.063,4.668,0.182,14.251,0.182,14.012c0-0.368,0.15,0.801-0.37,0.974
		C43.475,36.687,41.465,36.712,39.451,36.636z"/>
	<path fill="#FFFFFF" d="M33.543,24.936c0.812-0.832,1.639-1.677,2.468-2.518c0.169-0.173,0.32-0.357,0.502-0.505
		c0.288-0.233,0.498-0.163,0.56,0.191c0.033,0.204,0.016,0.417,0.021,0.624c0.056,4.26,0.117,8.526,0.173,12.785
		c0,0.178,0.002,0.361,0.002,0.537c-0.012,0.396-0.221,0.578-0.619,0.584c-1.922,0.027-3.846,0.051-5.771,0.077
		c-0.447,0.012-0.652-0.213-0.642-0.649c0.002-0.121-0.003-0.238-0.006-0.354c-0.058-4.234-0.115-8.468-0.162-12.699
		c0-0.296-0.188-0.719,0.221-0.863c0.332-0.116,0.512,0.241,0.719,0.431C31.834,23.344,32.654,24.113,33.543,24.936z"/>
	<path fill="#FFFFFF" d="M28.364,17.528c-0.944,0.992-1.878,1.98-2.822,2.958c-1.423,1.463-2.849,2.926-4.279,4.387
		c-0.489,0.507-0.512,0.514-0.963,0.063c-1.325-1.315-1.279-0.902-0.053-2.177c2.468-2.556,4.954-5.093,7.431-7.634
		c0.066-0.065,0.124-0.125,0.185-0.189c0.527-0.522,0.534-0.527,1.054-0.029c1.148,1.106,2.298,2.222,3.429,3.346
		c0.34,0.335,0.616,0.721,0.865,1.024c0.483-0.194,0.639-0.452,0.838-0.662c3.063-3.135,6.118-6.274,9.174-9.412
		c0.563-0.575,0.553-0.463,0.018-1.012c-0.22-0.231-0.524-0.389-0.608-0.731c0.069-0.284,0.324-0.226,0.507-0.271
		c1.317-0.324,2.636-0.646,3.959-0.956c0.583-0.136,0.65-0.078,0.545,0.461c-0.273,1.397-0.551,2.783-0.851,4.165
		c-0.105,0.512-0.216,0.527-0.613,0.197c-0.294-0.242-0.507-0.726-0.864-0.704c-0.389,0.033-0.615,0.505-0.904,0.796
		c-3.428,3.516-6.856,7.037-10.287,10.561c-0.791,0.813-0.67,0.692-1.354,0.04C31.339,20.382,29.908,19.008,28.364,17.528z"/>
	<path fill="#FFFFFF" d="M28.347,28.771c0.033,2.336,0.066,4.677,0.091,7.007c0.016,0.954,0,0.967-0.904,0.979
		c-1.742,0.031-3.488,0.053-5.234,0.072c-0.765,0.007-0.817-0.044-0.83-0.786c-0.042-2.692-0.066-5.383-0.119-8.071
		c-0.011-0.482,0.13-0.852,0.476-1.185c1.91-1.857,3.809-3.723,5.708-5.582c0.145-0.139,0.283-0.336,0.524-0.243
		c0.263,0.097,0.183,0.345,0.185,0.536C28.286,23.922,28.315,26.345,28.347,28.771z"/>
	<path fill="#FFFFFF" d="M39.451,36.636c2.012-0.08,4.018-0.109,6.027-0.08c-0.153,0.179-0.369,0.157-0.57,0.159
		c-1.623,0.024-3.249,0.044-4.878,0.07C39.825,36.784,39.612,36.809,39.451,36.636z"/>
</g>
</svg>
