<?xml version="1.0" encoding="utf-8"?>
<!-- Generator: Adobe Illustrator 16.0.0, SVG Export Plug-In . SVG Version: 6.00 Build 0)  -->
<!DOCTYPE svg PUBLIC "-//W3C//DTD SVG 1.1//EN" "http://www.w3.org/Graphics/SVG/1.1/DTD/svg11.dtd">
<svg version="1.1" id="Layer_1" xmlns="http://www.w3.org/2000/svg" xmlns:xlink="http://www.w3.org/1999/xlink" x="0px" y="0px"
	 width="66px" height="43px" viewBox="0 0 66 43" enable-background="new 0 0 66 43" xml:space="preserve">
<path fill="#FFFFFF" d="M50.982,12.877c-2.635-2.039-5.789-2.259-7.025-2.259c-0.65,0-1.254,0.058-1.693,0.161l-0.176,0.038
	c-1.668,0.388-4.457,1.032-7.707,4.985l-0.094,0.117c-0.055,0.075-0.082,0.155-0.082,0.239c0,0.072,0.02,0.142,0.057,0.21
	l0.074,0.119c0.535,0.879,0.982,1.643,1.336,2.29c0.127,0.241,0.467,0.32,0.695,0.096c0.021-0.029,0.045-0.061,0.061-0.083
	c2.807-3.806,5.006-4.313,6.461-4.649l0.18-0.041c0.201-0.046,0.525-0.073,0.891-0.073c0.678,0,3.029,0.109,4.863,1.53
	c1.633,1.264,2.459,3.281,2.459,5.998c0,4.551-2.244,6.326-4.129,7.014c-0.721,0.263-1.494,0.398-2.305,0.398
	c-1.939,0-3.434-0.764-3.455-0.773l-0.135-0.063c-1.621-0.689-4.041-2.128-6.328-6.633c-4.69-9.238-8.631-10.113-11.239-10.692
	l-0.138-0.03c-0.199-0.045-0.764-0.147-1.681-0.147c-1.512,0-4.418,0.291-6.908,2.24c-1.701,1.329-3.729,3.914-3.729,8.667
	c0,2.897,0.609,4.811,2.168,6.823c0.294,0.392,3.012,3.834,8.231,3.834c0.772,0,1.574-0.078,2.383-0.229
	c0.952-0.181,2.423-0.642,4.066-1.821l1.372,1.213c0.152,0.139,0.419,0.123,0.556-0.024c0.067-0.069,0.104-0.164,0.099-0.256
	l1.062-6.411l0.001-0.073c-0.001-0.109-0.05-0.216-0.129-0.279c-0.066-0.066-0.157-0.101-0.273-0.101h-0.003l-6.365,1.725
	l-0.122,0.021c-0.081,0.017-0.15,0.058-0.202,0.115c-0.073,0.077-0.109,0.178-0.104,0.282c0.006,0.103,0.052,0.198,0.131,0.266
	l1.317,1.169c-0.692,0.417-1.384,0.693-2.06,0.821c-0.574,0.107-1.143,0.162-1.688,0.162c-3.605,0-5.382-2.319-5.455-2.42
	l-0.035-0.048c-1.098-1.412-1.467-2.614-1.467-4.769c0-2.724,0.813-4.743,2.416-6.001c1.786-1.395,4.084-1.504,4.746-1.504
	c0.361,0,0.689,0.026,0.901,0.073l0.14,0.032c2.083,0.462,4.934,1.095,8.889,8.883c2.089,4.11,4.708,6.801,8,8.217
	c0.383,0.193,2.422,1.146,5.041,1.146c1.221,0,2.404-0.205,3.518-0.611c1.922-0.703,6.395-3.108,6.395-10.217
	C54.764,16.804,52.709,14.213,50.982,12.877z"/>
</svg>
