<?xml version="1.0" encoding="utf-8"?>
<!-- Generator: Adobe Illustrator 16.0.0, SVG Export Plug-In . SVG Version: 6.00 Build 0)  -->
<!DOCTYPE svg PUBLIC "-//W3C//DTD SVG 1.1//EN" "http://www.w3.org/Graphics/SVG/1.1/DTD/svg11.dtd">
<svg version="1.1" id="Layer_1" xmlns="http://www.w3.org/2000/svg" xmlns:xlink="http://www.w3.org/1999/xlink" x="0px" y="0px"
	 width="67px" height="43px" viewBox="0 0 67 43" enable-background="new 0 0 67 43" xml:space="preserve">
<g>
	<path fill="#FFFFFF" d="M45.213,5.564h-7.439c-0.051,0-0.094,0.042-0.094,0.095v2.473c0,0.053,0.043,0.096,0.094,0.096h2.963
		l-3.291,3.291c-1.658-1.302-3.742-2.082-6.01-2.082c-5.372,0-9.746,4.373-9.746,9.747c0,4.949,3.708,9.045,8.489,9.665v2.85h-2.935
		c-0.054,0-0.096,0.041-0.096,0.093v2.651c0,0.052,0.042,0.095,0.096,0.095h2.935v2.805c0,0.052,0.042,0.094,0.094,0.094h2.648
		c0.054,0,0.097-0.042,0.097-0.094v-2.805h2.935c0.051,0,0.094-0.043,0.094-0.095v-2.651c0-0.052-0.043-0.093-0.094-0.093h-2.935
		v-2.897c4.625-0.759,8.166-4.78,8.166-9.617c0-2.086-0.66-4.019-1.781-5.605l3.244-3.244v2.768c0,0.054,0.041,0.096,0.096,0.096
		h2.471c0.055,0,0.098-0.042,0.098-0.096V5.659C45.311,5.606,45.27,5.564,45.213,5.564z M31.435,26.359
		c-3.955,0-7.173-3.219-7.173-7.176c0-3.956,3.218-7.173,7.173-7.173c3.958,0,7.176,3.217,7.176,7.173
		C38.611,23.141,35.393,26.359,31.435,26.359z"/>
	<path fill="#FFFFFF" d="M35.818,16.239h-8.703c-0.052,0-0.095,0.039-0.095,0.085v2.107c0,0.049,0.043,0.086,0.095,0.086h8.703
		c0.053,0,0.098-0.037,0.098-0.086v-2.107C35.916,16.278,35.871,16.239,35.818,16.239z"/>
	<path fill="#FFFFFF" d="M35.818,20.001h-8.703c-0.052,0-0.095,0.039-0.095,0.087v2.107c0,0.048,0.043,0.086,0.095,0.086h8.703
		c0.053,0,0.098-0.038,0.098-0.086v-2.107C35.916,20.04,35.871,20.001,35.818,20.001z"/>
</g>
</svg>
