<?xml version="1.0" encoding="utf-8"?>
<!-- Generator: Adobe Illustrator 16.0.0, SVG Export Plug-In . SVG Version: 6.00 Build 0)  -->
<!DOCTYPE svg PUBLIC "-//W3C//DTD SVG 1.1//EN" "http://www.w3.org/Graphics/SVG/1.1/DTD/svg11.dtd">
<svg version="1.1" id="Layer_1" xmlns="http://www.w3.org/2000/svg" xmlns:xlink="http://www.w3.org/1999/xlink" x="0px" y="0px"
	 width="67px" height="43px" viewBox="0 0 67 43" enable-background="new 0 0 67 43" xml:space="preserve">
<g>
	<g>
		<path fill="#FFFFFF" d="M53.713,20.908c-0.708-0.958-1.493-1.86-2.36-2.677c-6.365-6.025-13.902-8.304-22.512-6.835
			c-6.417,1.101-11.553,4.409-15.562,9.505c-0.497,0.633-0.502,0.498,0,1.186c0.064,0.092,0.127,0.178,0.197,0.266
			c5.099,6.25,11.681,9.471,18.96,9.683c5.497,0.024,9.925-1.07,14.002-3.495c2.84-1.686,5.288-3.828,7.288-6.459
			C54.268,21.378,54.173,21.536,53.713,20.908z M26.707,16.17c0.158-0.34,0.344-0.678,0.752-0.795
			c0.109-0.031,0.213-0.029,0.303,0.046c0.13,0.103,0.106,0.242,0.068,0.367c-0.082,0.29-0.56,0.619-0.882,0.619
			C26.792,16.4,26.64,16.313,26.707,16.17z M27.472,16.985c-0.669,0.4-1.084,0.916-1.621,1.306c-0.037,0.027-0.103,0.01-0.153,0.019
			C25.886,17.05,26.402,16.604,27.472,16.985z M30.622,26.991c-0.179,0.456-0.472,0.805-0.952,0.973
			c-0.579,0.199-0.816,0.068-0.942-0.524c-0.087-0.388,0.082-0.851-0.319-1.149c0.053-0.696-0.608-0.929-0.927-1.377
			c-0.331-0.463-0.506-0.453-1.061-0.191c-0.706,0.339-0.778,0.295-1.047-0.461c-0.299-0.844-0.395-1.727-0.463-2.605
			c-0.063-0.733,0.182-1.359,0.797-1.805c-0.006-0.048-0.008-0.101-0.01-0.153l-0.062-0.014l-0.062,0.026
			c-0.443-0.196-0.465-0.29-0.202-0.815c0.157-0.041,0.326-0.139,0.476-0.117c0.493,0.082,1.006,0.258,1.002-0.551
			c0.576-0.41,1.188-0.791,1.912-0.523c0.762,0.29,1.11-0.256,1.566-0.625c0.082-0.067,0.063-0.156,0-0.208
			c-0.058-0.051-0.146-0.106-0.213-0.101c-0.274,0.024-0.408,0.266-0.594,0.424c-0.388,0.324-1.352,0.195-1.65-0.22
			c-0.125-0.169-0.056-0.317,0.068-0.438c0.242-0.243,0.55-0.405,0.878-0.43c0.746-0.064,1.48-0.175,2.209-0.356
			c0.144-0.027,0.322-0.062,0.482,0.114c-0.14,0.391-0.777,0.304-0.832,0.836c0.684,0.041,1.117-0.424,1.618-0.724
			c0.179-0.108,0.071-0.302-0.08-0.402c-0.345-0.231-0.56-0.496-0.533-0.952c0.014-0.302-0.269-0.37-0.528-0.422
			c-0.605-0.115-1.21,0.036-1.831,0.016c0.014-0.247,0.227-0.271,0.375-0.348c4.72-2.41,10.663,0.199,12.058,5.29
			c0.034,0.13,0.071,0.269,0.082,0.405c0.025,0.266-0.029,0.51-0.298,0.63c-0.213,0.096-0.429,0.067-0.611-0.112
			c-0.112-0.11-0.2-0.258-0.38-0.292c-0.263,0.194-0.232,0.465-0.099,0.668c0.304,0.455,0.033,0.645-0.316,0.818
			c-0.122,0.059-0.261,0.086-0.388,0.136c-0.628,0.243-0.844,0.779-0.587,1.398c0.113,0.27,0.382,0.48,0.29,0.888
			c-0.673-0.255-1.173-0.641-1.459-1.268c-0.158-0.354-0.299-0.709-0.439-1.071c-0.109-0.281-0.273-0.489-0.609-0.453
			c-0.363,0.041-0.412,0.297-0.388,0.606c0.03,0.386-0.155,0.685-0.476,1.016c-0.499-0.587-1.182-0.802-1.86-1.023
			c-0.213-0.071-0.452-0.197-0.49-0.412c-0.102-0.651-0.603-0.881-1.098-1.135c-0.227-0.12-0.394-0.379-0.683-0.37
			c-0.161,0.233,0.008,0.347,0.111,0.459c0.287,0.297,0.596,0.573,0.883,0.873c0.348,0.37,0.368,0.578,0.117,0.856
			c-0.302,0.331-0.803,0.434-1.104,0.197c-0.193-0.156-0.346-0.355-0.521-0.533c-0.147-0.153-0.251-0.369-0.543-0.407
			c-0.092,0.748,0.302,1.206,0.838,1.583c0.645,0.451,0.666,0.555,0.128,1.124c-0.278,0.295-0.478,0.597-0.464,1.02
			c0.02,0.532-0.101,1.024-0.467,1.456C30.758,26.421,30.722,26.733,30.622,26.991z M40.036,23.16
			c0.235-0.02,0.41,0.092,0.482,0.286c0.018,0.164-0.047,0.239-0.165,0.266c-0.252,0.032-0.514,0.008-0.609-0.247
			C39.682,23.299,39.864,23.174,40.036,23.16z M39.471,22.497c-0.008-0.058,0.079-0.183,0.12-0.178
			c0.205,0.021,0.349,0.14,0.41,0.34c-0.009,0.099-0.063,0.17-0.145,0.174C39.627,22.849,39.49,22.72,39.471,22.497z M35.82,22.744
			c-0.088,0.199-0.265,0.17-0.418,0.145c-0.178-0.037-0.407-0.075-0.342-0.341c0.046-0.178,0.219-0.222,0.397-0.178
			C35.656,22.418,35.798,22.521,35.82,22.744z M32.504,24.096c-0.271,0.566-0.343,1.229-0.788,1.866
			c-0.131-0.65-0.027-1.147,0.114-1.639c0.058-0.191,0.17-0.347,0.356-0.429c0.07-0.023,0.174-0.038,0.229-0.004
			C32.471,23.921,32.524,24.045,32.504,24.096z M34.899,30.013c-1.156,0.206-2.31,0.144-3.447-0.144
			c-0.502-0.125-0.577-0.349-0.269-0.763c0.375-0.505,0.926-0.682,1.516-0.727c0.819-0.066,1.589,0.165,2.337,0.46
			c0.686,0.263,1.272,0.363,1.874-0.248c0.409-0.418,1.003-0.549,1.709-0.184C37.439,29.313,36.219,29.782,34.899,30.013z
			 M41.445,24.816c-0.398,0.922-0.915,1.76-1.595,2.504c-0.191,0.212-0.388,0.312-0.643,0.165c-0.415,0.096-0.825-0.382-1.239,0.031
			c-0.095,0.099-0.24-0.031-0.302-0.18c-0.623-1.48-0.179-2.361,1.209-2.735c0.721-0.196,1.469-0.286,2.099-0.73
			c0.179-0.13,0.299-0.017,0.389,0.151C41.506,24.274,41.564,24.54,41.445,24.816z M41.922,23.181
			c-0.501-0.302-0.597-0.777-0.679-1.256c-0.087-0.487,0.408-0.85,0.163-1.51C42.2,20.982,42.245,21.337,41.922,23.181z"/>
	</g>
	<path fill="#FFFFFF" d="M27.752,20.093c0.512,0.176,1.044,0.484,1.631-0.074c-0.334-0.165-0.613-0.312-0.928-0.362
		c0.043,0.067,0.068,0.134,0.024,0.156c-0.186,0.079-0.232-0.062-0.262-0.202c-0.027-0.007-0.06-0.004-0.087-0.018
		c-0.332-0.391-0.696-0.464-1.163-0.213c-0.385,0.213-0.815,0.341-1.27,0.317c0.003,0.053,0.005,0.105,0.01,0.154
		C26.44,19.485,27.083,19.863,27.752,20.093z"/>
	<path fill="#FFFFFF" d="M28.13,19.593c0.027,0.014,0.059,0.011,0.087,0.018c-0.005-0.018-0.009-0.033-0.014-0.05
		c-0.103-0.165-0.199-0.326-0.307-0.484c-0.103-0.151-0.307-0.251-0.425-0.151c-0.508,0.465-1.256,0.354-1.776,0.772
		c0.455,0.023,0.886-0.105,1.269-0.317C27.434,19.129,27.797,19.202,28.13,19.593z"/>
	<path fill="#FFFFFF" d="M28.787,20.591c0.318,0.01,0.591-0.091,0.796-0.35c0.115-0.136,0.135-0.292,0.042-0.45
		c-0.07-0.122-0.188-0.254-0.325-0.183c-0.349,0.19-0.469-0.1-0.677-0.253c-0.274-0.208-0.214,0.075-0.25,0.206
		c0.03,0.025,0.06,0.062,0.082,0.096c0.315,0.05,0.594,0.197,0.928,0.362c-0.587,0.561-1.118,0.251-1.631,0.075
		c-0.669-0.231-1.313-0.608-2.047-0.243c0.737-0.074,1.398,0.202,2.062,0.459C28.098,20.44,28.421,20.589,28.787,20.591z"/>
	<path fill="#FFFFFF" d="M25.373,18.896c-0.265,0.525-0.24,0.619,0.202,0.815C25.179,19.522,25.27,19.207,25.373,18.896z"/>
	<path fill="#FFFFFF" d="M25.373,18.896c-0.104,0.312-0.194,0.626,0.202,0.815C25.277,19.497,25.269,19.207,25.373,18.896z"/>
	<path fill="#FFFFFF" d="M28.295,19.626c0.025,0.012,0.051,0.004,0.078-0.067c-0.06,0-0.112,0-0.169,0
		c0.027,0.012,0.055,0.048,0.082,0.067C28.288,19.626,28.293,19.626,28.295,19.626z"/>
	<path fill="#FFFFFF" d="M28.294,19.626c-0.003,0-0.005,0-0.005,0c-0.026-0.004-0.049-0.011-0.073-0.016
		c0.029,0.139,0.075,0.281,0.262,0.201c0.045-0.021,0.021-0.089-0.023-0.155c-0.034-0.005-0.07-0.017-0.106-0.02
		C28.333,19.638,28.315,19.629,28.294,19.626z"/>
	<path fill="#FFFFFF" d="M28.294,19.626c0.019,0.002,0.035,0.012,0.055,0.012c0.038,0.003,0.074,0.015,0.106,0.019
		c-0.025-0.034-0.052-0.071-0.082-0.096C28.346,19.631,28.32,19.638,28.294,19.626z"/>
	<path fill="#FFFFFF" d="M28.286,19.626c-0.027-0.019-0.055-0.055-0.082-0.067c0.003,0.017,0.008,0.032,0.014,0.051
		C28.24,19.616,28.263,19.622,28.286,19.626z"/>
</g>
</svg>
