<?xml version="1.0" encoding="utf-8"?>
<!-- Generator: Adobe Illustrator 16.0.0, SVG Export Plug-In . SVG Version: 6.00 Build 0)  -->
<!DOCTYPE svg PUBLIC "-//W3C//DTD SVG 1.1//EN" "http://www.w3.org/Graphics/SVG/1.1/DTD/svg11.dtd">
<svg version="1.1" id="Layer_1" xmlns="http://www.w3.org/2000/svg" xmlns:xlink="http://www.w3.org/1999/xlink" x="0px" y="0px"
	 width="66px" height="43px" viewBox="0 0 66 43" enable-background="new 0 0 66 43" xml:space="preserve">
<g>
	<path fill="#FFFFFF" d="M28.178,23.801c0.073,0,0.132,0.059,0.132,0.132v4.345c0,0.073-0.059,0.132-0.132,0.132h-1.757
		c-0.074,0-0.134-0.059-0.134-0.132v-4.345c0-0.073,0.06-0.132,0.134-0.132H28.178z"/>
	<path fill="#FFFFFF" d="M47.486,30.274H18.513c-0.072,0-0.132,0.063-0.132,0.137v1.771c0,0.072,0.06,0.131,0.132,0.131h28.974
		c0.07,0,0.133-0.059,0.133-0.131v-1.771C47.619,30.337,47.559,30.274,47.486,30.274z"/>
	<path fill="#FFFFFF" d="M47.486,33.795H18.513c-0.072,0-0.132,0.058-0.132,0.129v1.778c0,0.069,0.06,0.131,0.132,0.131h28.974
		c0.07,0,0.133-0.062,0.133-0.131v-1.778C47.619,33.852,47.559,33.795,47.486,33.795z"/>
	<path fill="#FFFFFF" d="M41.973,18.991c-0.361-0.282-1.328-0.944-2.506-0.944c-0.842,0-1.627,0.332-2.326,0.989
		c-0.051,0.047-0.078,0.111-0.078,0.182v0.158c0,0.077,0.025,0.15,0.084,0.198c0.063,0.047,0.127,0.065,0.203,0.047
		c0.016-0.003,0.037-0.007,0.053-0.014c0.055-0.018,0.105-0.051,0.146-0.092c0.152-0.102,0.566-0.241,1.16-0.241
		c0.613,0,1.818,0.164,2.986,1.251l0.025,0.024c0.066,0.066,0.156,0.104,0.252,0.104c0.092,0,0.188-0.038,0.246-0.103l0.025-0.024
		c1.17-1.089,2.373-1.253,2.986-1.253c0.6,0,1.012,0.14,1.164,0.241c0.043,0.041,0.094,0.074,0.16,0.1
		c0.027,0.007,0.1,0.021,0.17,0.004c0.107-0.029,0.184-0.127,0.184-0.239v-0.139c0-0.066-0.029-0.134-0.078-0.18
		c-0.709-0.674-1.5-1.015-2.355-1.015C43.307,18.046,42.346,18.697,41.973,18.991z"/>
	<path fill="#FFFFFF" d="M40.178,7.443c-0.063,0.028-0.107,0.085-0.129,0.153L40.02,7.693C39.998,7.77,40.014,7.85,40.059,7.91
		c0.045,0.06,0.107,0.094,0.18,0.097c0.012,0.002,0.025,0.006,0.035,0.002c0.051-0.002,0.096-0.013,0.141-0.035
		c0.025-0.006,0.078-0.021,0.176-0.021c0.129,0,1.297,0.039,2.07,1.354l0.008,0.017c0.043,0.077,0.109,0.129,0.186,0.149
		c0.023,0.007,0.066,0.014,0.094,0.014c0.055,0,0.107-0.014,0.146-0.037l0.02-0.009c0.422-0.211,0.859-0.319,1.291-0.319
		c0.732,0,1.211,0.299,1.322,0.423c0.021,0.042,0.057,0.079,0.096,0.108c0.025,0.014,0.068,0.036,0.096,0.045
		c0.014,0.003,0.029,0.005,0.043,0.006c0.008,0.002,0.016,0.002,0.025,0.002c0.039,0,0.076-0.01,0.115-0.028
		c0.059-0.03,0.104-0.085,0.123-0.149l0.023-0.085c0.008-0.022,0.012-0.046,0.012-0.071c0-0.044-0.014-0.088-0.035-0.124
		c-0.563-0.976-1.379-1.181-1.965-1.181c-0.438,0-0.818,0.114-1.043,0.195c-0.266-0.356-0.936-1.095-1.953-1.095
		C40.904,7.169,40.539,7.261,40.178,7.443z"/>
	<path fill="#FFFFFF" d="M34.053,11.901l0.008,0.132c0.006,0.08,0.049,0.151,0.117,0.193c0.057,0.036,0.131,0.049,0.193,0.03
		c0.016-0.003,0.031-0.009,0.045-0.013c0.049-0.021,0.092-0.053,0.123-0.093c0.125-0.089,0.521-0.25,1.107-0.25
		c0.563,0,1.418,0.149,2.291,0.866l0.02,0.021c0.063,0.053,0.143,0.084,0.223,0.084h0.021c0.092-0.008,0.176-0.049,0.227-0.11
		l0.021-0.021c0.965-1.022,2.006-1.174,2.539-1.174c0.381,0,0.65,0.078,0.756,0.139c0.039,0.033,0.09,0.061,0.15,0.078
		c0.018,0.004,0.061,0.011,0.105,0.007c0.02-0.002,0.043-0.009,0.063-0.015c0.102-0.037,0.17-0.138,0.162-0.249l-0.006-0.113
		c-0.004-0.067-0.035-0.129-0.088-0.173c-0.574-0.484-1.197-0.729-1.852-0.729c-1.02,0-1.832,0.603-2.168,0.896
		c-0.309-0.209-1.057-0.641-1.936-0.641c-0.77,0-1.461,0.319-2.055,0.949C34.074,11.766,34.051,11.834,34.053,11.901z"/>
	<path fill="#FFFFFF" d="M19.392,14.228c0-1.734,1.407-3.142,3.141-3.142c0.068,0,0.135,0.006,0.201,0.011
		c0.165-2.195,1.995-3.928,4.234-3.928c2.347,0,4.25,1.903,4.25,4.25c0,0.666-0.157,1.292-0.43,1.854
		c2.128,0.47,3.721,2.364,3.721,4.633c0,2.623-2.128,4.749-4.75,4.749c-0.192,0-6.339-0.036-6.339-0.036
		c-1.857-0.001-3.364-1.506-3.364-3.363c0-0.894,0.35-1.701,0.917-2.303C20.03,16.41,19.392,15.395,19.392,14.228z"/>
</g>
</svg>
