<?xml version="1.0" encoding="utf-8"?>
<!-- Generator: Adobe Illustrator 16.0.0, SVG Export Plug-In . SVG Version: 6.00 Build 0)  -->
<!DOCTYPE svg PUBLIC "-//W3C//DTD SVG 1.1//EN" "http://www.w3.org/Graphics/SVG/1.1/DTD/svg11.dtd">
<svg version="1.1" id="Layer_1" xmlns="http://www.w3.org/2000/svg" xmlns:xlink="http://www.w3.org/1999/xlink" x="0px" y="0px"
	 width="67px" height="43px" viewBox="0 0 67 43" enable-background="new 0 0 67 43" xml:space="preserve">
<g>
	<path fill="#FFFFFF" d="M44.522,19c1.002,3.486,0.488,6.754-1.604,9.691c-2.437,3.428-5.866,5.019-10.042,4.741
		c-4.912-0.326-9.172-3.968-10.462-8.737c-1.905-7.041,2.701-14.053,9.95-15.039c3.464-0.476,6.583,0.477,9.289,2.707
		c0.525,0.436,0.525,0.562,0.057,1.027c-0.327,0.323-0.654,0.641-0.977,0.961c-0.227,0.224-0.456,0.249-0.705,0.041
		c-0.092-0.079-0.186-0.153-0.276-0.228c-5.784-4.646-14.349-1.456-15.634,5.851c-0.667,3.808,0.695,6.949,3.541,9.42
		c5.978,5.183,15.29,1.879,16.769-5.897c0.237-1.244,0.249-2.484,0.006-3.729c-0.032-0.166-0.036-0.333-0.053-0.503
		C44.325,19.159,44.251,19,44.522,19z"/>
	<path fill="#FFFFFF" d="M34.063,25.079c-1.445,0-2.888,0.008-4.334,0.008c-0.628-0.008-0.632-0.015-0.642-0.654
		c-0.004-0.434,0.014-0.867-0.006-1.3c-0.011-0.361,0.113-0.53,0.498-0.511c0.481,0.021,0.961,0.005,1.445,0.005
		c2.452-0.005,4.909-0.011,7.363-0.011c0.663,0,0.663,0.011,0.668,0.682c0.004,0.337,0.004,0.673,0,1.014
		c0,0.757-0.003,0.759-0.735,0.766C36.901,25.079,35.482,25.079,34.063,25.079z"/>
	<path fill="#FFFFFF" d="M34.062,18.499c1.443,0,2.888-0.005,4.333-0.005c0.651,0,0.651,0,0.657,0.682
		c0.002,0.363,0.004,0.724,0.002,1.083c-0.008,0.645-0.009,0.651-0.624,0.658c-0.313,0.004-0.627,0-0.938,0.004
		c-2.51,0-5.013,0.005-7.521,0.005c-0.17,0-0.336,0-0.506,0c-0.272,0-0.384-0.14-0.381-0.409c0.002-0.503,0.023-1.013-0.012-1.518
		c-0.022-0.394,0.152-0.501,0.511-0.498c1.06,0.008,2.116-0.003,3.176-0.003c0.435-0.006,0.867-0.006,1.302-0.006
		C34.062,18.499,34.062,18.499,34.062,18.499z"/>
	<path fill="#FFFFFF" d="M44.523,19c-0.119,0.071-0.117,0.193-0.142,0.304c-0.354-1.104-0.82-2.159-1.331-3.2
		c0.059-0.058,0.118-0.058,0.178,0C43.818,17,44.286,17.949,44.523,19z"/>
	<path fill="#FFFFFF" d="M42.895,15.854c-0.136-0.126-0.253-0.27-0.235-0.475l-0.007,0.004c0.205,0.046,0.274,0.214,0.338,0.385
		C42.998,15.841,42.967,15.871,42.895,15.854z"/>
	<path fill="#FFFFFF" d="M43.229,16.106c-0.06,0-0.12,0-0.18,0c-0.106-0.051-0.124-0.153-0.154-0.252
		c0.032-0.029,0.064-0.057,0.096-0.086C43.109,15.852,43.191,15.962,43.229,16.106z"/>
	<path fill="#FFFFFF" d="M42.659,15.379c-0.065-0.005-0.092-0.025-0.076-0.071c0.002-0.006,0.041,0,0.047,0.009
		c0.013,0.017,0.013,0.046,0.022,0.065L42.659,15.379z"/>
</g>
</svg>
