<?xml version="1.0" encoding="utf-8"?>
<!-- Generator: Adobe Illustrator 16.0.0, SVG Export Plug-In . SVG Version: 6.00 Build 0)  -->
<!DOCTYPE svg PUBLIC "-//W3C//DTD SVG 1.1//EN" "http://www.w3.org/Graphics/SVG/1.1/DTD/svg11.dtd">
<svg version="1.1" id="Layer_1" xmlns="http://www.w3.org/2000/svg" xmlns:xlink="http://www.w3.org/1999/xlink" x="0px" y="0px"
	 width="67px" height="43px" viewBox="0 0 67 43" enable-background="new 0 0 67 43" xml:space="preserve">
<g>
	<path fill="#FFFFFF" d="M42.757,11.525c-0.808,2.635-1.584,5.185-2.365,7.733c-1.407,4.605-2.813,9.212-4.224,13.816
		c-0.056,0.177-0.103,0.358-0.175,0.526c-0.117,0.27-0.333,0.422-0.622,0.401c-0.33-0.021-0.542-0.205-0.602-0.535
		c-0.152-0.884-0.304-1.773-0.449-2.664c-0.437-2.633-0.868-5.271-1.307-7.908c-0.008-0.046-0.057-0.086-0.115-0.166
		c-0.193,0.052-0.229,0.25-0.305,0.393c-0.753,1.367-1.5,2.744-2.249,4.113c-0.075,0.141-0.148,0.28-0.223,0.421
		c-0.158,0.275-0.375,0.442-0.713,0.395c-0.343-0.052-0.492-0.27-0.537-0.594c-0.081-0.603-0.181-1.203-0.266-1.81
		c-0.272-2.018-0.546-4.04-0.823-6.06c-0.012-0.064-0.062-0.136-0.119-0.247c-0.199,0.14-0.236,0.351-0.315,0.52
		c-0.584,1.278-1.185,2.548-1.729,3.842c-0.207,0.492-0.492,0.669-1.022,0.661c-2.703-0.033-5.407-0.035-8.113-0.046
		c-0.132,0-0.267,0.006-0.396-0.012c-0.301-0.045-0.464-0.241-0.5-0.537c-0.038-0.29,0.094-0.506,0.369-0.636
		c0.253-0.122,0.519-0.074,0.78-0.074c2.36,0.005,4.722,0.005,7.082,0.039c0.488,0.008,0.751-0.137,0.952-0.6
		c0.783-1.822,1.615-3.629,2.428-5.439c0.065-0.146,0.128-0.293,0.193-0.436c0.143-0.326,0.393-0.504,0.754-0.444
		c0.33,0.059,0.474,0.287,0.512,0.62c0.077,0.627,0.188,1.253,0.274,1.883c0.273,1.994,0.539,3.982,0.813,5.979
		c0.025,0.179,0.084,0.357,0.146,0.597c0.247-0.239,0.34-0.513,0.475-0.752c0.69-1.255,1.375-2.513,2.062-3.767
		c0.088-0.166,0.176-0.326,0.27-0.484c0.152-0.26,0.384-0.357,0.673-0.31c0.296,0.05,0.456,0.249,0.508,0.536
		c0.15,0.863,0.3,1.72,0.441,2.583c0.377,2.271,0.75,4.541,1.128,6.816c0.021,0.129,0.059,0.253,0.224,0.396
		c0.348-1.12,0.69-2.214,1.023-3.307c1.739-5.692,3.476-11.388,5.212-17.086c0.015-0.046,0.042-0.094,0.056-0.144
		c0.098-0.337,0.189-0.688,0.616-0.74c0.472-0.058,0.636,0.286,0.803,0.629c1.017,2.125,2.033,4.254,3.045,6.379
		c0.08,0.165,0.158,0.34,0.193,0.518c0.063,0.335-0.099,0.566-0.398,0.695c-0.286,0.125-0.525,0.012-0.708-0.207
		c-0.111-0.14-0.179-0.32-0.261-0.488c-0.686-1.431-1.369-2.867-2.054-4.303C43.098,12.015,43.034,11.779,42.757,11.525z"/>
	<path fill="#FFFFFF" d="M46.705,27.92c-0.602-0.638-1.249-1.329-1.907-2.012c-0.571-0.591-1.173-1.15-1.728-1.757
		c-1.015-1.114-0.994-2.821,0.018-3.903c0.801-0.85,1.909-0.969,2.859-0.277c0.318,0.231,0.604,0.508,0.911,0.77
		c0.321-0.256,0.62-0.518,0.945-0.744c1.1-0.774,2.337-0.537,3.104,0.577c0.687,1.006,0.712,2.534-0.123,3.407
		C49.511,25.321,48.13,26.555,46.705,27.92z"/>
</g>
</svg>
