<?xml version="1.0" encoding="utf-8"?>
<!-- Generator: Adobe Illustrator 16.0.0, SVG Export Plug-In . SVG Version: 6.00 Build 0)  -->
<!DOCTYPE svg PUBLIC "-//W3C//DTD SVG 1.1//EN" "http://www.w3.org/Graphics/SVG/1.1/DTD/svg11.dtd">
<svg version="1.1" id="Layer_1" xmlns="http://www.w3.org/2000/svg" xmlns:xlink="http://www.w3.org/1999/xlink" x="0px" y="0px"
	 width="66px" height="43px" viewBox="0 0 66 43" enable-background="new 0 0 66 43" xml:space="preserve">
<g>
	<path fill="#FFFFFF" d="M13.762,28.001h0.088h8.549c0.117,0,0.213-0.098,0.213-0.213c0-0.056-0.022-0.104-0.057-0.141l-0.011-0.013
		l-4.299-5.56l-0.04-0.047c-0.04-0.042-0.095-0.068-0.157-0.068c-0.054,0-0.102,0.022-0.14,0.055l-0.025,0.029l-0.04,0.046
		l-4.193,5.501l-0.063,0.08c-0.022,0.033-0.036,0.074-0.036,0.117C13.55,27.903,13.645,28.001,13.762,28.001z"/>
	<path fill="#FFFFFF" d="M22.372,28.784h-8.654c-0.117,0-0.212,0.095-0.212,0.212v6.771c0,0.117,0.095,0.213,0.212,0.213h2.786
		v-4.26c0-0.117,0.094-0.213,0.211-0.213h2.587c0.116,0,0.211,0.096,0.211,0.213v4.26h2.858c0.117,0,0.212-0.096,0.212-0.213v-6.771
		C22.585,28.879,22.489,28.784,22.372,28.784z"/>
	<path fill="#FFFFFF" d="M52.284,27.01h-8.567c-0.115,0-0.208,0.091-0.208,0.206v8.647c0,0.113,0.093,0.204,0.208,0.204h8.567
		c0.115,0,0.21-0.091,0.21-0.204v-8.647C52.494,27.101,52.399,27.01,52.284,27.01z M47.597,32.658c0,0.112-0.093,0.206-0.208,0.206
		h-2.56c-0.117,0-0.21-0.094-0.21-0.206v-1.556c0-0.112,0.093-0.204,0.21-0.204h2.56c0.115,0,0.208,0.089,0.208,0.204V32.658z
		 M47.597,29.784c0,0.11-0.093,0.203-0.208,0.203h-2.56c-0.117,0-0.21-0.091-0.21-0.203v-1.558c0-0.11,0.093-0.204,0.21-0.204h2.56
		c0.115,0,0.208,0.091,0.208,0.204V29.784z M51.508,32.658c0,0.112-0.094,0.206-0.211,0.206H48.74c-0.115,0-0.211-0.094-0.211-0.206
		v-1.556c0-0.112,0.096-0.204,0.211-0.204h2.557c0.117,0,0.211,0.089,0.211,0.204V32.658z M51.508,29.784
		c0,0.11-0.094,0.203-0.211,0.203H48.74c-0.115,0-0.211-0.091-0.211-0.203v-1.558c0-0.11,0.096-0.204,0.211-0.204h2.557
		c0.117,0,0.211,0.091,0.211,0.204V29.784z"/>
	<path fill="#FFFFFF" d="M32.372,6.933h-8.383c-0.112,0-0.205,0.092-0.205,0.206v28.648c0,0.113,0.093,0.206,0.205,0.206h8.383
		c0.112,0,0.207-0.093,0.207-0.206V7.139C32.579,7.024,32.484,6.933,32.372,6.933z M27.385,32.729c0,0.061-0.049,0.108-0.108,0.108
		h-1.92c-0.062,0-0.111-0.048-0.111-0.108v-2.141c0-0.059,0.05-0.108,0.111-0.108h1.92c0.06,0,0.108,0.05,0.108,0.108V32.729z
		 M27.385,27.816c0,0.061-0.049,0.108-0.108,0.108h-1.92c-0.062,0-0.111-0.048-0.111-0.108V25.68c0-0.063,0.05-0.112,0.111-0.112
		h1.92c0.06,0,0.108,0.05,0.108,0.112V27.816z M27.385,22.905c0,0.061-0.049,0.109-0.108,0.109h-1.92
		c-0.062,0-0.111-0.05-0.111-0.109v-2.14c0-0.062,0.05-0.11,0.111-0.11h1.92c0.06,0,0.108,0.049,0.108,0.11V22.905z M27.385,17.992
		c0,0.062-0.049,0.109-0.108,0.109h-1.92c-0.062,0-0.111-0.048-0.111-0.109v-2.141c0-0.061,0.05-0.107,0.111-0.107h1.92
		c0.06,0,0.108,0.047,0.108,0.107V17.992z M27.385,13.08c0,0.061-0.049,0.11-0.108,0.11h-1.92c-0.062,0-0.111-0.05-0.111-0.11v-2.14
		c0-0.062,0.05-0.11,0.111-0.11h1.92c0.06,0,0.108,0.049,0.108,0.11V13.08z M31.15,32.729c0,0.061-0.05,0.108-0.112,0.108h-1.917
		c-0.061,0-0.109-0.048-0.109-0.108v-2.141c0-0.059,0.049-0.108,0.109-0.108h1.917c0.063,0,0.112,0.05,0.112,0.108V32.729z
		 M31.15,27.816c0,0.061-0.05,0.108-0.112,0.108h-1.917c-0.061,0-0.109-0.048-0.109-0.108V25.68c0-0.063,0.049-0.112,0.109-0.112
		h1.917c0.063,0,0.112,0.05,0.112,0.112V27.816z M31.15,22.905c0,0.061-0.05,0.109-0.112,0.109h-1.917
		c-0.061,0-0.109-0.05-0.109-0.109v-2.14c0-0.062,0.049-0.11,0.109-0.11h1.917c0.063,0,0.112,0.049,0.112,0.11V22.905z
		 M31.15,17.992c0,0.062-0.05,0.109-0.112,0.109h-1.917c-0.061,0-0.109-0.048-0.109-0.109v-2.141c0-0.061,0.049-0.107,0.109-0.107
		h1.917c0.063,0,0.112,0.047,0.112,0.107V17.992z M31.15,13.08c0,0.061-0.05,0.11-0.112,0.11h-1.917c-0.061,0-0.109-0.05-0.109-0.11
		v-2.14c0-0.062,0.049-0.11,0.109-0.11h1.917c0.063,0,0.112,0.049,0.112,0.11V13.08z"/>
	<path fill="#FFFFFF" d="M52.483,26.14c0,0.098-0.076,0.174-0.171,0.174H43.69c-0.096,0-0.171-0.076-0.171-0.174v-1.724
		c0-0.096,0.075-0.172,0.171-0.172h8.622c0.095,0,0.171,0.076,0.171,0.172V26.14z"/>
	<path fill="#FFFFFF" d="M42.498,12.343c-0.028-0.092-0.111-0.16-0.211-0.16c-0.046,0-0.085,0.017-0.119,0.039
		c-0.007,0.004-0.011,0.007-0.016,0.011l-0.071,0.089l-8.237,10.452l-0.039,0.05c-0.042,0.044-0.069,0.101-0.072,0.164v0.014v12.83
		c0,0.112,0.094,0.204,0.206,0.204h8.375c0.112,0,0.204-0.092,0.204-0.204V12.429C42.518,12.397,42.509,12.368,42.498,12.343z
		 M39.027,18.019l0.061-0.074c0.564-0.723,1.514-1.894,1.976-2.46l0.063-0.073c0.043-0.053,0.108-0.087,0.182-0.087
		c0.115,0,0.206,0.084,0.23,0.191v0.093v0.076v2.476c0,0.127-0.103,0.229-0.228,0.235c-0.005,0-0.007,0.003-0.011,0.003
		c-0.003,0-0.007-0.003-0.012-0.003h-1.956h-0.102c-0.005,0-0.009,0.003-0.011,0.003c-0.005,0-0.007-0.003-0.012-0.003
		c-0.128-0.006-0.228-0.108-0.228-0.235C38.981,18.107,38.999,18.059,39.027,18.019z M37.726,32.655
		c0,0.115-0.091,0.206-0.206,0.206h-2.498c-0.113,0-0.206-0.091-0.206-0.206v-1.563c0-0.113,0.091-0.204,0.206-0.204h2.498
		c0.115,0,0.206,0.091,0.206,0.204V32.655z M37.726,29.769c0,0.113-0.091,0.204-0.206,0.204h-2.498
		c-0.113,0-0.206-0.091-0.206-0.204v-1.565c0-0.113,0.091-0.204,0.206-0.204h2.498c0.115,0,0.206,0.089,0.206,0.204V29.769z
		 M37.726,26.877c0,0.111-0.091,0.204-0.206,0.204h-2.498c-0.113,0-0.206-0.091-0.206-0.204v-1.563c0-0.115,0.091-0.206,0.206-0.206
		h2.498c0.115,0,0.206,0.091,0.206,0.206V26.877z M37.732,20.545v0.075v3.37c0,0.113-0.094,0.206-0.206,0.206h-2.499
		c-0.112,0-0.204-0.092-0.204-0.206v-0.416v-0.018c0-0.028,0.007-0.053,0.016-0.076c0.004-0.009,0.004-0.013,0.011-0.024
		c0.007-0.01,0.013-0.019,0.02-0.027c0.007-0.01,0.016-0.021,0.021-0.033c0.321-0.457,1.762-2.232,2.367-2.976l0.061-0.073
		c0.043-0.053,0.108-0.088,0.184-0.088c0.115,0,0.206,0.085,0.229,0.192v0.094H37.732z M41.545,32.655
		c0,0.115-0.093,0.206-0.206,0.206h-2.498c-0.113,0-0.206-0.091-0.206-0.206v-1.563c0-0.113,0.093-0.204,0.206-0.204h2.498
		c0.113,0,0.206,0.091,0.206,0.204V32.655z M41.545,29.769c0,0.113-0.093,0.204-0.206,0.204h-2.498
		c-0.113,0-0.206-0.091-0.206-0.204v-1.565c0-0.113,0.093-0.204,0.206-0.204h2.498c0.113,0,0.206,0.089,0.206,0.204V29.769z
		 M41.545,26.877c0,0.111-0.093,0.204-0.206,0.204h-2.498c-0.113,0-0.206-0.091-0.206-0.204v-1.563c0-0.115,0.093-0.206,0.206-0.206
		h2.498c0.113,0,0.206,0.091,0.206,0.206V26.877z M41.545,23.986c0,0.112-0.093,0.204-0.206,0.204h-2.498
		c-0.113,0-0.206-0.089-0.206-0.204v-1.564c0-0.112,0.093-0.203,0.206-0.203h2.498c0.113,0,0.206,0.091,0.206,0.203V23.986z
		 M41.545,21.097c0,0.114-0.093,0.204-0.206,0.204h-2.498c-0.113,0-0.206-0.089-0.206-0.204v-1.564c0-0.113,0.093-0.206,0.206-0.206
		h2.498c0.113,0,0.206,0.092,0.206,0.206V21.097z"/>
</g>
</svg>
