<?xml version="1.0" encoding="utf-8"?>
<!-- Generator: Adobe Illustrator 16.0.0, SVG Export Plug-In . SVG Version: 6.00 Build 0)  -->
<!DOCTYPE svg PUBLIC "-//W3C//DTD SVG 1.1//EN" "http://www.w3.org/Graphics/SVG/1.1/DTD/svg11.dtd">
<svg version="1.1" id="Layer_1" xmlns="http://www.w3.org/2000/svg" xmlns:xlink="http://www.w3.org/1999/xlink" x="0px" y="0px"
	 width="67px" height="43px" viewBox="0 0 67 43" enable-background="new 0 0 67 43" xml:space="preserve">
<path fill="#FFFFFF" d="M46.396,23.808c0.012-0.548-0.172-0.864-0.647-1.13c-1.711-0.957-3.392-1.958-5.103-2.914
	c-0.379-0.221-0.503-0.466-0.496-0.897c0.024-1.962,0.003-3.918,0.024-5.88c0.005-0.513-0.159-0.822-0.623-1.075
	c-1.798-1.01-3.575-2.042-5.344-3.097c-0.482-0.288-0.858-0.326-1.369-0.025c-1.787,1.074-3.596,2.105-5.415,3.128
	c-0.455,0.255-0.615,0.564-0.607,1.085c0.025,1.935-0.017,3.867,0.019,5.806c0.009,0.501-0.161,0.754-0.591,0.992
	c-1.691,0.939-3.35,1.933-5.035,2.878c-0.425,0.235-0.613,0.504-0.594,1.008c0.032,1.078,0.005,2.16,0.005,3.242
	c-0.001,1.025,0.027,2.063-0.016,3.092c-0.021,0.526,0.165,0.813,0.623,1.07c1.794,1.007,3.58,2.038,5.344,3.091
	c0.494,0.295,0.885,0.298,1.382,0.001c1.641-0.979,3.31-1.899,4.947-2.877c0.419-0.25,0.724-0.271,1.154-0.01
	c1.636,0.987,3.307,1.908,4.941,2.886c0.488,0.295,0.879,0.324,1.381,0.022c1.768-1.055,3.556-2.078,5.353-3.085
	c0.473-0.265,0.669-0.568,0.661-1.128C46.361,27.933,46.364,25.87,46.396,23.808z M26.803,33.188c0,0.039-0.037,0.081-0.056,0.122
	c-0.144,0.066-0.24-0.029-0.345-0.092c-1.497-0.864-2.997-1.731-4.498-2.593c-0.241-0.136-0.446-0.262-0.44-0.615
	c0.021-1.881,0.014-3.763,0.016-5.622c0.236-0.15,0.367,0.026,0.507,0.104c1.456,0.837,2.906,1.685,4.363,2.521
	c0.273,0.157,0.476,0.294,0.474,0.675C26.8,29.518,26.805,31.351,26.803,33.188z M27.736,13.452c1.641,0.948,3.219,1.852,4.89,2.817
	c-1.646,0.947-3.219,1.857-4.899,2.825C27.729,17.159,27.731,15.37,27.736,13.452z M27.755,33.352
	c0.001-1.806,0.001-3.59,0.002-5.515c1.636,0.944,3.173,1.832,4.714,2.723C32.137,30.954,28.751,32.96,27.755,33.352z
	 M33.005,29.851c-1.636-0.94-3.186-1.839-4.859-2.804c1.691-0.977,3.245-1.869,4.866-2.801C33.01,26.142,33.005,27.93,33.005,29.851
	z M28.161,19.863c1.632-0.939,3.188-1.844,4.869-2.809c0.063,1.913-0.004,3.718,0.025,5.648
	C31.342,21.707,29.784,20.804,28.161,19.863z M39.27,13.462c-0.002,1.936-0.005,3.726-0.006,5.637
	c-1.651-0.949-3.217-1.86-4.885-2.825C36.047,15.316,37.62,14.41,39.27,13.462z M33.94,22.689c0.004-1.911,0.004-3.71,0.005-5.626
	c1.644,0.905,3.224,1.842,4.884,2.813C37.173,20.832,35.589,21.739,33.94,22.689z M38.692,25.985
	c-1.364-0.877-2.804-1.651-4.314-2.524c1.393-0.808,2.671-1.55,3.952-2.287c0.452-0.261,0.916-0.708,1.375-0.708
	c0.462-0.004,0.928,0.441,1.383,0.704c1.108,0.64,2.21,1.283,3.318,1.925c0.191,0.109,0.414,0.182,0.573,0.416
	c-1.433,0.827-2.889,1.604-4.277,2.494C39.97,26.478,39.421,26.453,38.692,25.985z M45.493,25.94c-0.005,1.331-0.013,2.661,0,3.991
	c0.001,0.303-0.063,0.515-0.347,0.679c-1.618,0.911-3.226,1.835-4.837,2.755c-0.017,0.01-0.046-0.007-0.08-0.019
	c-0.163-0.134-0.077-0.324-0.082-0.485c-0.002-1.654,0.017-3.309-0.009-4.966c-0.005-0.43,0.129-0.677,0.516-0.889
	c1.573-0.876,3.129-1.79,4.839-2.776C45.493,24.898,45.493,25.422,45.493,25.94z"/>
</svg>
