<?xml version="1.0" encoding="utf-8"?>
<!-- Generator: Adobe Illustrator 16.0.0, SVG Export Plug-In . SVG Version: 6.00 Build 0)  -->
<!DOCTYPE svg PUBLIC "-//W3C//DTD SVG 1.1//EN" "http://www.w3.org/Graphics/SVG/1.1/DTD/svg11.dtd">
<svg version="1.1" id="Layer_1" xmlns="http://www.w3.org/2000/svg" xmlns:xlink="http://www.w3.org/1999/xlink" x="0px" y="0px"
	 width="67px" height="43px" viewBox="0 0 67 43" enable-background="new 0 0 67 43" xml:space="preserve">
<g>
	<g>
		<g>
			<path fill="#FFFFFF" d="M47.159,20.619c0.314,1.861,0.96,3.627,1.398,5.455c0.104,0.433,0.211,0.879,0.325,1.343
				c-0.543,0.207-1.046,0.131-1.528,0.102c-0.7-0.062-0.845,0.258-0.831,0.877c0.021,1.628-0.006,3.259-0.014,4.889
				c-0.003,0.248,0.014,0.502-0.007,0.753c-0.075,0.853-0.511,1.324-1.209,1.317c-0.696-0.011-1.146-0.494-1.156-1.35
				c-0.019-1.762,0.01-3.514,0.011-5.277c0-0.292-0.001-0.587-0.016-0.875c-0.006-0.12-0.065-0.238-0.204-0.268
				c-0.216-0.041-0.298,0.108-0.304,0.279c-0.019,0.584-0.024,1.169-0.028,1.757c-0.003,1.295-0.011,2.591-0.02,3.888
				c0,0.249,0.021,0.507-0.023,0.754c-0.11,0.643-0.598,1.065-1.195,1.073c-0.648,0.005-1.15-0.454-1.189-1.194
				c-0.042-0.792-0.009-1.589-0.004-2.389c0.004-0.962,0.014-1.921,0.012-2.882c-0.006-1.557,0.163-1.354-1.299-1.373
				c-0.292-0.011-0.582-0.011-1.012-0.011c0.452-2.483,1.392-4.763,1.84-7.15c0.125-0.544,0.064-1.119,0.235-1.499
				c-0.023,0.266-0.174,0.636-0.498,0.92c-0.333,1.038-0.642,2.08-1.009,3.102c-0.299,0.84-0.502,0.978-1.397,0.765
				c-0.406-0.101-0.523,0.05-0.672,0.312c-0.494,0.876-0.986,1.75-1.478,2.63c-0.255,0.463-0.304,0.934-0.155,1.45
				c0.269,0.926,0.498,1.855,0.751,2.782c0.063,0.253,0.168,0.561-0.199,0.577c-0.685,0.034-0.677,0.458-0.667,0.946
				c0.016,0.676,0.023,1.349-0.016,2.015c-0.033,0.622-0.412,0.977-0.925,0.967c-0.501-0.011-0.86-0.378-0.889-0.998
				c-0.032-0.671,0.013-1.342-0.011-2.014c-0.005-0.266,0.142-0.594-0.188-0.797c-0.404,0.012-0.295,0.332-0.303,0.539
				c-0.019,0.755,0.013,1.506-0.024,2.263c-0.033,0.63-0.393,0.983-0.903,0.999c-0.518,0.008-0.921-0.326-0.968-0.959
				c-0.054-0.701-0.009-1.424-0.02-2.133c-0.003-0.278,0.095-0.71-0.251-0.754c-0.764-0.096-0.59-0.526-0.453-0.985
				c0.037-0.117,0.085-0.232,0.117-0.354c0.875-3.203,0.832-3.45-0.999-6.183c-0.178-0.265-0.295-0.36-0.683-0.266
				c-1.02,0.23-1.356-0.071-1.376-1.161c-0.029-1.383,0.005-2.765,0.008-4.148c-0.003-0.333-0.003-0.671-0.024-1.004
				c-0.013-0.212-0.08-0.42-0.364-0.387c-0.208,0.023-0.255,0.194-0.263,0.357c-0.016,0.336-0.024,0.671-0.029,1.009
				c-0.019,4.943-0.04,9.889-0.061,14.827c-0.002,0.336,0.026,0.679-0.035,1.007c-0.121,0.649-0.722,1.105-1.347,1.087
				c-0.579-0.014-1.13-0.449-1.256-1.048c-0.071-0.327-0.045-0.67-0.042-1.003c0.011-2.682,0.027-5.358,0.027-8.041
				c0-0.394,0.135-0.829-0.284-1.206c-0.449,0.261-0.308,0.672-0.311,1c-0.024,2.639-0.026,5.278-0.045,7.92
				c-0.004,0.411-0.008,0.838-0.096,1.245c-0.162,0.743-0.778,1.194-1.437,1.119c-0.619-0.071-1.111-0.578-1.183-1.277
				c-0.032-0.324-0.007-0.667-0.007-1c0.021-4.942,0.05-9.886,0.05-14.833c0-0.408,0.276-1.142-0.307-1.164
				c-0.642-0.026-0.353,0.718-0.367,1.115c-0.049,1.131-0.006,2.262-0.035,3.393c-0.024,0.849,0.018,1.608-0.604,2.438
				c-0.547,0.717-0.478,1.907-0.667,2.891c-0.455,2.381-0.906,4.765-1.357,7.146c-0.01,0.042,0,0.093-0.023,0.125
				c-0.202,0.313,0.024,1.033-0.574,0.919c-0.641-0.122-0.22-0.691-0.154-1.044c0.572-3.046,1.173-6.076,1.751-9.11
				c0.095-0.524,0.264-1.049-0.093-1.58c-0.14-0.213-0.101-0.568-0.101-0.851c0-2.015,0.091-4.031-0.002-6.04
				c-0.063-1.366,1.107-2.975,2.697-3.098c1.92-0.156,3.855-0.196,5.765,0.033c1.651,0.189,2.653,1.432,2.679,3.117
				c0.03,1.758-0.001,3.52-0.015,5.282c0,0.394-0.015,0.74,0.576,0.696c0.364-0.024,0.563,0.309,0.733,0.611
				c0.191,0.324,0.409,0.632,0.589,0.964c0.308,0.561,0.734,0.896,1.416,0.795c0.163-0.024,0.342-0.029,0.499,0
				c1.264,0.259,2.062-0.284,2.579-1.415c0.224-0.477,0.472-1.016,1.178-0.939c0.438,0.049,0.423-0.326,0.502-0.587
				c0.501-1.592,0.99-3.195,1.5-4.785c0.124-0.396,0.269-0.793,0.466-1.158c0.454-0.833,1.127-1.3,2.132-1.273
				c1.376,0.042,2.765,0.063,4.146,0.007c1.182-0.04,1.976,0.519,2.333,1.543c0.715,2.053,1.327,4.142,1.922,6.226
				c0.215,0.756-0.109,1.269-0.688,1.401c-0.515,0.119-0.941-0.154-1.187-0.868c-0.33-0.952-0.596-1.917-0.898-2.869
				c-0.388-0.329-0.459-0.799-0.496-1.024C47.04,19.392,47.08,20.011,47.159,20.619z"/>
			<path fill="#FFFFFF" d="M24.085,12.393c-1.326-0.009-2.425-1.1-2.401-2.391c0.024-1.264,1.206-2.389,2.469-2.355
				c1.278,0.042,2.262,1.065,2.275,2.364C26.441,11.384,25.443,12.393,24.085,12.393z"/>
			<path fill="#FFFFFF" d="M46.194,11.344c0.013,1.219-0.991,2.219-2.223,2.24c-1.245,0.023-2.243-0.926-2.273-2.163
				c-0.038-1.298,0.971-2.322,2.265-2.311C45.182,9.121,46.186,10.131,46.194,11.344z"/>
		</g>
		<path fill="#FFFFFF" d="M33.609,19.971c1.078,0.021,1.851,0.835,1.816,1.935c-0.029,1.005-0.834,1.806-1.828,1.82
			c-1.011,0.018-1.927-0.889-1.926-1.893C31.673,20.796,32.554,19.959,33.609,19.971z"/>
	</g>
	<g>
		<path fill="#FFFFFF" d="M47.161,20.619c-0.579-1.424-0.686-1.888-0.626-3.1c0.599,0.902,0.734,1.723,0.89,2.529
			C47.211,20.179,47.214,20.414,47.161,20.619z"/>
		<path fill="#FFFFFF" d="M40.447,19.759c0.124-0.711,0.28-1.41,0.703-2.124c0.263,0.802,0.196,1.149-0.438,2.705
			C40.656,20.129,40.664,19.896,40.447,19.759z"/>
	</g>
</g>
</svg>
