<?xml version="1.0" encoding="utf-8"?>
<!-- Generator: Adobe Illustrator 16.0.0, SVG Export Plug-In . SVG Version: 6.00 Build 0)  -->
<!DOCTYPE svg PUBLIC "-//W3C//DTD SVG 1.1//EN" "http://www.w3.org/Graphics/SVG/1.1/DTD/svg11.dtd">
<svg version="1.1" id="Layer_1" xmlns="http://www.w3.org/2000/svg" xmlns:xlink="http://www.w3.org/1999/xlink" x="0px" y="0px"
	 width="67px" height="43px" viewBox="0 0 67 43" enable-background="new 0 0 67 43" xml:space="preserve">
<g>
	<path fill="#FFFFFF" d="M48.855,27.036c-1.754-2.141-3.776-3.964-6.256-5.234c-2.499-1.275-5.134-1.672-7.888-1.082
		c-1.682,0.359-3.253,1.032-4.771,1.846c-1.588,0.849-3.068,1.857-4.559,3.013c-0.263-0.398-0.461-0.707-0.673-1.01
		c-1.028-1.483-2.322-2.658-3.974-3.416c-0.678-0.308-1.385-0.53-2.133-0.583c-0.484-0.037-0.565,0.096-0.349,0.544
		c0.336,0.694,0.717,1.366,1.028,2.065c1.047,2.377,1.32,4.832,0.561,7.341c-0.345,1.156-0.834,2.246-1.407,3.302
		c-0.116,0.218-0.376,0.459-0.202,0.697c0.188,0.259,0.533,0.108,0.798,0.057c1.281-0.244,2.428-0.79,3.46-1.598
		c1.05-0.812,1.892-1.809,2.596-2.936c0.298-0.476,0.31-0.47,0.767-0.146c0.091,0.066,0.176,0.142,0.267,0.211
		c2.146,1.577,4.432,2.913,6.962,3.785c2.954,1.021,5.876,0.989,8.753-0.292c2.855-1.272,5.115-3.281,7.065-5.684
		C49.188,27.563,49.107,27.344,48.855,27.036z M40.821,28.24c-1.055,0.019-1.924-0.813-1.932-1.853
		c-0.011-1.05,0.845-1.917,1.876-1.917c0.989,0,1.858,0.831,1.892,1.82C42.695,27.333,41.864,28.215,40.821,28.24z"/>
	<path fill="#FFFFFF" d="M20.963,12.196c1.3,0.021,2.377-0.509,3.378-1.263c0.713-0.54,0.701-0.53,1.381-0.03
		c1.186,0.881,2.484,1.331,3.999,1.111c1.222-0.183,2.292-0.666,3.255-1.409c0.331-0.241,0.557-0.259,0.882,0.01
		c0.53,0.442,1.142,0.756,1.786,1.006c1.827,0.695,3.57,0.563,5.198-0.571c0.302-0.211,0.572-0.562,0.899-0.622
		c0.404-0.064,0.647,0.405,0.969,0.626c1.502,1.025,3.086,1.47,4.831,0.651c1.25-0.583,1.399-0.862,1.27-2.251
		c-0.006-0.05-0.037-0.103-0.076-0.189c-0.111,0-0.175-0.017-0.219,0.004c-2.336,1.052-4.536,0.949-6.535-0.784
		c-0.284-0.244-0.511-0.16-0.76,0.021c-0.535,0.39-1.117,0.696-1.727,0.937c-1.952,0.764-3.798,0.614-5.484-0.694
		c-0.602-0.468-0.609-0.481-1.2-0.011c-1.045,0.84-2.224,1.263-3.566,1.181c-1.225-0.076-2.326-0.528-3.358-1.162
		c-0.717-0.444-0.728-0.454-1.373,0.052c-1.176,0.917-2.487,1.324-3.983,1.178c-0.723-0.069-1.396-0.279-2.056-0.544
		c-0.149-0.066-0.312-0.183-0.457,0.013c-0.221,0.307-0.049,1.497,0.271,1.74C19.079,11.789,19.944,12.181,20.963,12.196z"/>
	<path fill="#FFFFFF" d="M21.993,16.839c0.997-0.232,1.871-0.709,2.62-1.381c0.354-0.327,0.559-0.287,0.905,0.002
		c1.674,1.421,3.559,1.7,5.603,0.946c0.703-0.261,1.349-0.625,1.929-1.093c0.27-0.215,0.475-0.215,0.745,0
		c0.588,0.463,1.248,0.815,1.944,1.074c1.515,0.566,3.013,0.566,4.468-0.205c0.405-0.215,0.805-0.444,1.124-0.77
		c0.315-0.327,0.574-0.373,0.918-0.015c0.376,0.39,0.854,0.672,1.336,0.916c1.581,0.799,3.117,0.76,4.622-0.218
		c0.481-0.314,0.755-0.679,0.642-1.199c0-0.156,0.003-0.239,0-0.327c-0.026-0.623-0.052-0.651-0.633-0.427
		c-0.589,0.232-1.176,0.44-1.806,0.505c-1.586,0.183-3.005-0.232-4.219-1.256c-0.383-0.323-0.649-0.439-1.084-0.073
		c-0.478,0.4-1.063,0.655-1.651,0.883c-1.962,0.762-3.797,0.582-5.477-0.732c-0.575-0.453-0.568-0.439-1.182,0.032
		c-1.232,0.944-2.591,1.383-4.161,1.082c-1.026-0.201-1.962-0.586-2.833-1.146c-0.64-0.413-0.636-0.402-1.205,0.056
		c-1.397,1.125-2.968,1.521-4.731,1.133c-0.507-0.11-0.989-0.275-1.46-0.483c-0.134-0.058-0.275-0.095-0.381,0.048
		c-0.196,0.254-0.054,1.464,0.216,1.684C19.346,16.752,20.567,17.169,21.993,16.839z"/>
</g>
</svg>
