<?xml version="1.0" encoding="utf-8"?>
<!-- Generator: Adobe Illustrator 16.0.0, SVG Export Plug-In . SVG Version: 6.00 Build 0)  -->
<!DOCTYPE svg PUBLIC "-//W3C//DTD SVG 1.1//EN" "http://www.w3.org/Graphics/SVG/1.1/DTD/svg11.dtd">
<svg version="1.1" id="Layer_1" xmlns="http://www.w3.org/2000/svg" xmlns:xlink="http://www.w3.org/1999/xlink" x="0px" y="0px"
	 width="67px" height="43px" viewBox="0 0 67 43" enable-background="new 0 0 67 43" xml:space="preserve">
<g>
	<path fill="#FFFFFF" d="M32.669,8.705c0.008,0.627-0.019,1.255,0.022,1.88c0.029,0.466,0.342,0.73,0.752,0.732
		c0.407,0,0.695-0.258,0.783-0.713c0.01-0.053,0.015-0.118,0.015-0.177c-0.01-1.159,0.005-2.332-0.025-3.496
		c-0.013-0.537-0.392-0.906-0.814-0.882c-0.427,0.018-0.722,0.382-0.741,0.955c-0.012,0.563,0.004,1.135,0.008,1.704l0,0V8.705z"/>
	<path fill="#FFFFFF" d="M33.56,31.672c-0.441-0.013-0.767,0.4-0.782,1.018c-0.012,0.539,0,1.081,0.004,1.623
		c0.003,0.568-0.01,1.144,0.011,1.712c0.025,0.598,0.31,0.924,0.767,0.929c0.458,0.006,0.776-0.323,0.785-0.912
		c0.021-1.141,0.013-2.285-0.009-3.426C34.319,32.053,33.982,31.682,33.56,31.672z"/>
	<path fill="#FFFFFF" d="M28.493,30.374c-0.368-0.242-0.692-0.104-0.96,0.176c-0.12,0.125-0.194,0.301-0.281,0.455
		c-0.486,0.856-0.971,1.716-1.455,2.576c-0.099,0.178-0.219,0.365-0.263,0.563c-0.11,0.483,0.243,0.913,0.736,0.907
		c0.229-0.033,0.469-0.089,0.598-0.317c0.653-1.144,1.304-2.281,1.932-3.435C28.998,30.925,28.831,30.596,28.493,30.374z"/>
	<path fill="#FFFFFF" d="M20.429,14.972c1.047,0.592,2.083,1.202,3.142,1.768c0.575,0.314,1.159-0.019,1.166-0.6
		c0.005-0.3-0.125-0.523-0.38-0.668c-1.1-0.62-2.198-1.238-3.296-1.859c-0.39-0.222-0.708-0.092-0.955,0.219
		c-0.232,0.295-0.138,0.798,0.168,1.054C20.32,14.922,20.378,14.944,20.429,14.972z"/>
	<path fill="#FFFFFF" d="M43.384,16.629c1.049-0.583,2.085-1.201,3.125-1.797c0.285-0.167,0.455-0.39,0.438-0.727
		c-0.017-0.609-0.571-0.91-1.174-0.583c-1.055,0.582-2.091,1.188-3.121,1.808c-0.43,0.258-0.556,0.71-0.359,1.064
		C42.497,16.767,42.931,16.88,43.384,16.629z"/>
	<path fill="#FFFFFF" d="M46.428,27.968c-0.937-0.53-1.876-1.063-2.81-1.596c-0.187-0.11-0.366-0.207-0.589-0.21
		c-0.514-0.005-0.849,0.396-0.746,0.887c0.06,0.295,0.268,0.456,0.506,0.593c0.99,0.561,1.98,1.125,2.973,1.68
		c0.128,0.073,0.272,0.132,0.417,0.157c0.322,0.041,0.618-0.05,0.762-0.354c0.145-0.316,0.142-0.648-0.138-0.91
		C46.696,28.117,46.558,28.043,46.428,27.968z"/>
	<path fill="#FFFFFF" d="M39.617,30.57c-0.251-0.406-0.663-0.468-1.012-0.254c-0.354,0.218-0.474,0.593-0.259,1.009
		c0.346,0.665,0.739,1.31,1.114,1.96c0.254,0.44,0.504,0.887,0.773,1.318c0.229,0.356,0.58,0.41,0.954,0.282
		c0.334-0.104,0.433-0.381,0.43-0.769c-0.019-0.061-0.033-0.185-0.088-0.288C40.899,32.741,40.279,31.645,39.617,30.57z"/>
	<path fill="#FFFFFF" d="M38.918,12.732c0.303-0.004,0.512-0.159,0.654-0.416c0.607-1.066,1.227-2.127,1.81-3.211
		c0.231-0.431,0.103-0.813-0.246-1.028c-0.342-0.208-0.791-0.141-1.022,0.253c-0.658,1.109-1.3,2.232-1.898,3.373
		C37.942,12.222,38.353,12.765,38.918,12.732z"/>
	<path fill="#FFFFFF" d="M27.211,12.191c0.076,0.126,0.15,0.266,0.251,0.378c0.259,0.271,0.584,0.279,0.91,0.143
		c0.275-0.121,0.365-0.378,0.375-0.542c-0.005-0.403-0.16-0.624-0.296-0.86c-0.452-0.777-0.905-1.553-1.361-2.326
		c-0.137-0.233-0.258-0.48-0.432-0.682c-0.209-0.254-0.502-0.33-0.815-0.204c-0.348,0.147-0.472,0.429-0.452,0.796
		c0.016,0.225,0.138,0.395,0.242,0.576C26.156,10.376,26.683,11.289,27.211,12.191z"/>
	<path fill="#FFFFFF" d="M23.947,26.282c-0.221,0.021-0.396,0.14-0.574,0.239c-0.907,0.521-1.81,1.05-2.713,1.585
		c-0.152,0.088-0.311,0.185-0.428,0.313c-0.229,0.249-0.222,0.548-0.095,0.841c0.122,0.278,0.384,0.354,0.47,0.354
		c0.448,0.007,0.655-0.116,0.861-0.234c0.907-0.528,1.811-1.052,2.715-1.585c0.126-0.075,0.262-0.152,0.372-0.254
		c0.281-0.256,0.314-0.576,0.15-0.899C24.552,26.348,24.282,26.249,23.947,26.282z"/>
	<path fill="#FFFFFF" d="M22.376,22.316c0.598-0.015,0.933-0.286,0.944-0.73c0.011-0.457-0.303-0.754-0.904-0.765
		c-1.167-0.021-2.336-0.017-3.509,0.014c-0.542,0.012-0.844,0.302-0.856,0.727c-0.017,0.452,0.325,0.754,0.906,0.769
		c0.568,0.02,1.14,0,1.707-0.002C21.233,22.328,21.808,22.333,22.376,22.316z"/>
	<path fill="#FFFFFF" d="M48.055,20.7c-1.169-0.019-2.342-0.012-3.512,0.017c-0.56,0.017-0.847,0.292-0.856,0.723
		c-0.012,0.462,0.311,0.761,0.894,0.777c0.566,0.018,1.14-0.005,1.708-0.005c0.568-0.002,1.139,0.008,1.711-0.01
		c0.604-0.014,0.935-0.282,0.95-0.723C48.965,21.021,48.646,20.711,48.055,20.7z"/>
	<path fill="#FFFFFF" d="M33.506,12.689c-4.611-0.002-8.922,3.728-8.907,8.955c0.013,4.914,4.009,8.84,8.933,8.818
		c4.513,0.065,8.865-3.558,8.86-8.887C42.389,16.17,37.903,12.691,33.506,12.689z M33.499,15.64c0.361,0.019,0.593,0.263,0.601,0.66
		c0.008,0.479,0.006,0.959,0.006,1.444c0.003,0.478,0.008,0.958,0.008,1.436c0,0.4-0.229,0.639-0.6,0.651
		c-0.367,0.012-0.641-0.203-0.646-0.602c-0.019-0.99-0.027-1.981-0.012-2.973C32.864,15.875,33.129,15.626,33.499,15.64z
		 M38.077,22.04c-0.298,2.296-2.184,4.007-4.46,4.048c-2.354,0.045-4.291-1.575-4.671-3.905c-0.342-2.127,1.002-4.317,3.087-4.936
		c0.124,0.274,0.044,0.576,0.077,0.854c0.055,0.462-0.11,0.745-0.492,1.05c-1.705,1.38-1.49,3.947,0.377,5.011
		c1.302,0.745,2.974,0.418,3.894-0.756c0.942-1.194,0.921-3.052-0.26-3.999c-0.776-0.626-0.837-1.279-0.712-2.163
		C36.951,17.781,38.347,19.933,38.077,22.04z"/>
</g>
</svg>
