<?xml version="1.0" encoding="utf-8"?>
<!-- Generator: Adobe Illustrator 16.0.0, SVG Export Plug-In . SVG Version: 6.00 Build 0)  -->
<!DOCTYPE svg PUBLIC "-//W3C//DTD SVG 1.1//EN" "http://www.w3.org/Graphics/SVG/1.1/DTD/svg11.dtd">
<svg version="1.1" id="Layer_1" xmlns="http://www.w3.org/2000/svg" xmlns:xlink="http://www.w3.org/1999/xlink" x="0px" y="0px"
	 width="66px" height="43px" viewBox="0 0 66 43" enable-background="new 0 0 66 43" xml:space="preserve">
<g>
	<path fill="#FFFFFF" d="M43.248,7.621c0,0-0.591,0.783-0.419,1.546c0.173,0.764,1.044,1.218,1.044,1.218s0.589-0.784,0.417-1.546
		C44.118,8.074,43.248,7.621,43.248,7.621z"/>
	<path fill="#FFFFFF" d="M42.287,12.095c0,0,0.589-0.784,0.418-1.547c-0.174-0.765-1.044-1.217-1.044-1.217
		s-0.591,0.783-0.418,1.546C41.416,11.64,42.287,12.095,42.287,12.095z"/>
	<path fill="#FFFFFF" d="M44.713,11.255c0,0,0.621,0.628,1.331,0.565c0.71-0.062,1.236-0.792,1.236-0.792s-0.621-0.628-1.333-0.566
		C45.237,10.525,44.713,11.255,44.713,11.255z"/>
	<path fill="#FFFFFF" d="M45.733,7.899c-0.577,0.586-0.496,1.623-0.496,1.623s1.018,0.088,1.596-0.498
		c0.577-0.585,0.495-1.622,0.495-1.622S46.311,7.315,45.733,7.899z"/>
	<path fill="#FFFFFF" d="M44.458,13.584c0.707,0.084,1.372-0.523,1.372-0.523s-0.482-0.742-1.188-0.825
		c-0.707-0.083-1.373,0.524-1.373,0.524S43.75,13.501,44.458,13.584z"/>
	<path fill="#FFFFFF" d="M45.091,25.867h-5.284c-0.412,0-0.748,0.333-0.748,0.747c0,0.412,0.336,0.747,0.748,0.747h5.284
		c0.413,0,0.748-0.335,0.748-0.747C45.839,26.2,45.504,25.867,45.091,25.867z"/>
	<path fill="#FFFFFF" d="M45.091,34.108h-5.284c-0.412,0-0.748,0.333-0.748,0.747c0,0.412,0.336,0.747,0.748,0.747h5.284
		c0.413,0,0.748-0.335,0.748-0.747C45.839,34.441,45.504,34.108,45.091,34.108z"/>
	<path fill="#FFFFFF" d="M21.325,24.052c-0.125-0.038-0.247-0.072-0.367-0.095C20.958,23.957,21.094,23.999,21.325,24.052z"/>
	<path fill="#FFFFFF" d="M44.896,27.884h-4.897c-0.234,0-0.424,0.191-0.424,0.426v1.482l-3.196,0.353l-4.669-0.108v-2.851
		c0.618-0.08,1.24-0.203,1.857-0.377c4.496-1.27,5.477-4.987,5.379-7.557c-0.099-2.62,0.739-3.637,1.943-4.089
		c0.345-0.129,0.686-0.21,0.998-0.264c0.014,0.643,0.144,1.391,0.432,2.282c0.106-0.006,0.212-0.015,0.317-0.026
		c-0.303-0.913-0.432-1.662-0.439-2.301c0.623-0.074,1.066-0.033,1.066-0.033s-0.422-0.226-1.015-0.722
		c0.202-1.24,0.941-2.002,1.702-2.781c0.418-0.429,0.85-0.872,1.191-1.398l-0.267-0.172c-0.321,0.502-0.744,0.932-1.152,1.35
		c-0.742,0.759-1.491,1.535-1.745,2.767c-0.24-0.217-0.502-0.475-0.769-0.775c-1.109-1.243-2.536-0.33-4.57,1.566
		c-2.036,1.893-4.597,1.958-7.098-0.6c-3.298-3.376-6.175-3.358-8.149-3.167c1.351,0.575,1.823,1.836,2.505,5.042
		c0.717,3.364,2.523,4.886,4.995,5.096c-1.375,0.486-1.444,1.262-3.283,2.532c-1.439,0.992-3.462,0.679-4.282,0.492
		c1.506,0.47,3.289,2.049,4.884,2.599c0.929,0.319,1.907,0.518,2.912,0.597v2.73l-8.367-0.19v1.904l15.625-0.358l3.196,0.354v1.48
		c0,0.234,0.19,0.427,0.425,0.427h4.896c0.236,0,0.427-0.192,0.427-0.427V28.31C45.321,28.075,45.131,27.884,44.896,27.884z
		 M29.889,27.287c0.349,0.006,0.697-0.006,1.048-0.029v2.762l-1.048-0.024V27.287z"/>
	<path fill="#FFFFFF" d="M20.296,31.377c0,0.4-0.28,0.727-0.626,0.727h-0.377c-0.344,0-0.625-0.326-0.625-0.727V30.06
		c0-0.401,0.281-0.728,0.625-0.728h0.377c0.346,0,0.626,0.326,0.626,0.728V31.377z"/>
</g>
</svg>
