<?xml version="1.0" encoding="utf-8"?>
<!-- Generator: Adobe Illustrator 16.0.0, SVG Export Plug-In . SVG Version: 6.00 Build 0)  -->
<!DOCTYPE svg PUBLIC "-//W3C//DTD SVG 1.1//EN" "http://www.w3.org/Graphics/SVG/1.1/DTD/svg11.dtd">
<svg version="1.1" id="Layer_1" xmlns="http://www.w3.org/2000/svg" xmlns:xlink="http://www.w3.org/1999/xlink" x="0px" y="0px"
	 width="67px" height="43px" viewBox="0 0 67 43" enable-background="new 0 0 67 43" xml:space="preserve">
<g>
	<path fill="#FFFFFF" d="M29.679,32.817c-0.153,0.063-0.295,0.02-0.438-0.026c-3.241-1.004-6.487-2.02-9.739-3
		c-0.454-0.14-0.611-0.327-0.607-0.801c0.055-6.396,0.085-12.784,0.122-19.18c0-0.085,0.023-0.164,0.039-0.246
		c0.256-0.117,0.413,0.071,0.577,0.168c3.22,1.875,6.429,3.772,9.656,5.641c0.411,0.233,0.573,0.482,0.565,0.976
		c-0.05,5.315-0.073,10.638-0.107,15.954C29.747,32.475,29.789,32.659,29.679,32.817z"/>
	<path fill="#FFFFFF" d="M41.936,9.652c0,0.271-0.004,0.506-0.004,0.74c-0.038,6.16-0.07,12.321-0.112,18.479
		c-0.003,0.869,0.175,0.811-0.794,1.093c-3.205,0.938-6.408,1.89-9.613,2.828c-0.137,0.041-0.283,0.064-0.423,0.094
		c-0.211-0.227-0.125-0.476-0.125-0.696c0.023-5.232,0.066-10.466,0.074-15.699c0-0.545,0.173-0.837,0.654-1.105
		c3.23-1.808,6.438-3.655,9.657-5.485C41.425,9.801,41.582,9.649,41.936,9.652z"/>
	<path fill="#FFFFFF" d="M17.92,9.456c-0.002,0.415-0.002,0.738-0.005,1.061c-0.039,6.341-0.077,12.678-0.111,19.018
		c-0.002,0.174,0.025,0.361-0.011,0.535c-0.092,0.467,0.179,0.626,0.561,0.733c1.752,0.493,3.5,0.991,5.252,1.487
		c1.802,0.517,3.613,1.021,5.416,1.553c0.888,0.26,1.743,0.26,2.634-0.03c3.486-1.131,6.986-2.222,10.479-3.332
		c0.754-0.243,0.754-0.244,0.76-1.028c0.039-6.31,0.075-12.617,0.112-18.926c0.002-0.286,0.005-0.577,0.006-0.994
		c0.749,0.472,1.253,0.802,1.24,1.747c-0.088,6.343-0.097,12.678-0.143,19.015c-0.007,0.943,0.167,0.755-0.812,1.061
		c-3.873,1.204-7.741,2.409-11.612,3.625c-0.88,0.275-1.743,0.293-2.633,0.036c-3.902-1.107-7.803-2.205-11.704-3.312
		c-0.747-0.206-0.749-0.213-0.745-1.028c0.037-6.45,0.094-12.913,0.087-19.367C16.693,10.399,16.993,9.849,17.92,9.456z"/>
	<path fill="#FFFFFF" d="M48.859,33.648c-0.529-2.089-1.281-4.088-1.224-6.327c0.129-4.961,0.088-9.919,0.117-14.881
		c0-0.179,0.016-0.362,0.003-0.536c-0.023-0.341,0.109-0.487,0.465-0.465c0.678,0.048,1.367-0.05,2.043,0.074
		c0.227,0.635,0.094,1.292,0.091,1.936c-0.016,4.988-0.055,9.982-0.072,14.971c-0.003,0.692-0.089,1.359-0.301,2.022
		c-0.299,0.939-0.556,1.889-0.831,2.834C49.11,33.417,49.088,33.568,48.859,33.648z"/>
	<path fill="#FFFFFF" d="M49.026,10.521c-0.062,0-0.121,0-0.179-0.005c-1.193-0.028-1.097,0.227-1.065-1.194
		c0.023-1.041,0.59-1.596,1.453-1.513c0.551,0.06,1.047,0.454,1.114,0.996c0.066,0.47,0.031,0.953,0.023,1.427
		c0,0.229-0.164,0.289-0.362,0.289c-0.325,0-0.658-0.005-0.982-0.005v0.005H49.026z"/>
</g>
</svg>
