<?xml version="1.0" encoding="utf-8"?>
<!-- Generator: Adobe Illustrator 16.0.0, SVG Export Plug-In . SVG Version: 6.00 Build 0)  -->
<!DOCTYPE svg PUBLIC "-//W3C//DTD SVG 1.1//EN" "http://www.w3.org/Graphics/SVG/1.1/DTD/svg11.dtd">
<svg version="1.1" id="Layer_1" xmlns="http://www.w3.org/2000/svg" xmlns:xlink="http://www.w3.org/1999/xlink" x="0px" y="0px"
	 width="67px" height="43px" viewBox="0 0 67 43" enable-background="new 0 0 67 43" xml:space="preserve">
<g>
	<path fill="#FFFFFF" d="M49.422,21.731c-0.161-0.005-0.313-0.005-0.469-0.01c-5.168-0.051-10.336-0.106-15.501-0.167
		c-5.294-0.056-10.583-0.114-15.876-0.169c-1.024-0.01-1.071,0.05-0.881,1.065c0.522,2.796,1.808,5.211,3.708,7.304
		c1.903,2.09,4.209,3.581,6.854,4.545c0.429,0.158,0.672,0.313,0.672,0.832c0,0.666,0.1,0.736,0.778,0.746
		c3.206,0.042,6.411,0.08,9.619,0.103c0.637,0.007,0.833-0.134,0.812-0.741c-0.02-0.597,0.257-0.781,0.755-0.962
		c2.159-0.779,4.093-1.943,5.783-3.514c2.345-2.17,3.912-4.811,4.631-7.927C50.519,21.901,50.386,21.75,49.422,21.731z"/>
	<path fill="#FFFFFF" d="M40.82,20.236c0.469,0.149,0.905,0.083,1.332,0.093c0.907,0.017,0.941-0.019,1.04-0.89
		c0.021-0.243,0.026-0.498,0.018-0.745c-0.058-1.434-0.695-2.625-1.621-3.67c-1.057-1.199-1.316-2.558-0.945-4.079
		c0.198-0.83,0.558-1.577,0.976-2.306c0.462-0.814,0.029-1.49-0.902-1.473c-0.495,0.015-0.804,0.289-1.045,0.673
		c-0.514,0.826-0.906,1.704-1.136,2.641c-0.503,2.028-0.19,3.892,1.217,5.49C40.857,17.219,41.397,18.586,40.82,20.236z"/>
	<path fill="#FFFFFF" d="M33.843,20.091c0.469,0.148,0.906,0.083,1.333,0.093c0.907,0.017,0.941-0.019,1.04-0.89
		c0.022-0.244,0.026-0.498,0.018-0.745c-0.058-1.434-0.695-2.625-1.621-3.67c-1.056-1.199-1.317-2.558-0.946-4.079
		c0.199-0.83,0.559-1.578,0.976-2.306c0.462-0.814,0.029-1.49-0.903-1.473c-0.495,0.015-0.804,0.289-1.045,0.672
		c-0.513,0.826-0.905,1.705-1.135,2.641c-0.504,2.028-0.191,3.892,1.216,5.49C33.88,17.074,34.422,18.441,33.843,20.091z"/>
	<path fill="#FFFFFF" d="M25.186,20.236c0.47,0.149,0.905,0.083,1.335,0.093c0.907,0.017,0.94-0.019,1.037-0.89
		c0.025-0.243,0.027-0.498,0.019-0.745c-0.058-1.434-0.694-2.625-1.623-3.67c-1.056-1.199-1.313-2.558-0.946-4.079
		c0.202-0.83,0.562-1.577,0.976-2.306c0.463-0.814,0.03-1.49-0.901-1.473c-0.493,0.015-0.804,0.289-1.043,0.673
		c-0.514,0.826-0.905,1.704-1.138,2.641c-0.5,2.028-0.191,3.892,1.218,5.49C25.226,17.219,25.767,18.586,25.186,20.236z"/>
</g>
</svg>
