<?xml version="1.0" encoding="utf-8"?>
<!-- Generator: Adobe Illustrator 16.0.0, SVG Export Plug-In . SVG Version: 6.00 Build 0)  -->
<!DOCTYPE svg PUBLIC "-//W3C//DTD SVG 1.1//EN" "http://www.w3.org/Graphics/SVG/1.1/DTD/svg11.dtd">
<svg version="1.1" id="Layer_1" xmlns="http://www.w3.org/2000/svg" xmlns:xlink="http://www.w3.org/1999/xlink" x="0px" y="0px"
	 width="67px" height="43px" viewBox="0 0 67 43" enable-background="new 0 0 67 43" xml:space="preserve">
<path fill="#FFFFFF" d="M43.891,6.456c-0.117-0.009-0.235-0.002-0.355-0.002c-6.658-0.054-13.317-0.107-19.979-0.157
	c-0.177-0.005-0.354-0.011-0.532,0c-0.529,0.031-0.632,0.145-0.557,0.646c0.072,0.495,0.177,0.987,0.254,1.485
	c0.583,3.789,1.159,7.584,1.752,11.376c0.427,2.74,0.88,5.477,1.311,8.214c0.121,0.753,0.185,0.831,0.961,0.844
	c1.065,0.019,2.131,0.027,3.196,0.024c0.41,0,0.605,0.089,0.683,0.567c0.127,0.828,0.041,1.657,0.216,2.473
	c0.072,0.331-0.139,0.393-0.41,0.411c-0.414,0.034-0.854-0.116-1.35,0.165c1.297,1.318,2.536,2.584,3.784,3.84
	c0.479,0.484,0.492,0.484,0.964,0.025c1.146-1.123,2.284-2.243,3.417-3.366c0.137-0.14,0.354-0.236,0.313-0.557
	c-0.378-0.106-0.792-0.034-1.19-0.06c-0.261-0.013-0.513-0.071-0.445-0.396c0.182-0.811,0.109-1.648,0.239-2.468
	c0.069-0.417,0.242-0.601,0.696-0.583c1.122,0.03,2.25,0.03,3.371,0.028c0.714,0,0.738-0.028,0.848-0.717
	c0.443-2.738,0.885-5.476,1.329-8.216c0.699-4.28,1.405-8.562,2.11-12.841C44.62,6.581,44.539,6.493,43.891,6.456z M36.555,23.343
	c-0.593,0.979-1.467,1.518-2.622,1.547c-0.558,0.02-1.127,0.073-1.67-0.091c-1.75-0.543-2.784-2.146-2.247-4.387
	c0.094-0.401,0.259-0.787,0.483-1.133c0.961-1.487,1.933-2.962,2.988-4.584c0.578,0.883,1.06,1.614,1.536,2.359
	c0.463,0.717,0.957,1.421,1.368,2.17C37.12,20.559,37.403,21.937,36.555,23.343z M43.511,7.901c-0.162,0.93-0.347,1.861-0.501,2.796
	c-0.055,0.307-0.221,0.384-0.49,0.354c-0.8-0.103-1.51,0.164-2.239,0.442c-1.048,0.403-2.121,0.725-3.26,0.792
	c-1.61,0.094-3.104-0.324-4.565-0.936c-1.067-0.44-2.138-0.875-3.336-0.772c-0.387,0.031-0.757,0.08-1.123,0.224
	c-0.961,0.397-1.971,0.641-2.992,0.799c-0.644,0.103-0.756,0.021-0.886-0.632c-0.211-1.043-0.398-2.084-0.604-3.133
	c-0.073-0.342,0.032-0.502,0.391-0.495c0.208,0.004,0.417,0,0.624,0.002c2.99,0.024,5.983,0.049,8.974,0.072
	c2.989,0.024,5.979,0.045,8.972,0.068c0.232,0.007,0.473,0.011,0.709,0.016C43.453,7.504,43.557,7.66,43.511,7.901z"/>
</svg>
