<?xml version="1.0" encoding="utf-8"?>
<!-- Generator: Adobe Illustrator 16.0.0, SVG Export Plug-In . SVG Version: 6.00 Build 0)  -->
<!DOCTYPE svg PUBLIC "-//W3C//DTD SVG 1.1//EN" "http://www.w3.org/Graphics/SVG/1.1/DTD/svg11.dtd">
<svg version="1.1" xmlns="http://www.w3.org/2000/svg" xmlns:xlink="http://www.w3.org/1999/xlink" x="0px" y="0px" width="30px"
	 height="37.333px" viewBox="0 0 30 37.333" enable-background="new 0 0 30 37.333" xml:space="preserve">
<g id="Layer_1">
</g>
<g id="Layer_2">
	<g>
		<path stroke="#FFFFFF" stroke-miterlimit="10" d="M13.111,5.722l-8.855,8.597c-1.144,1.112-1.166,2.898-0.054,4.042
			c1.114,1.143,2.9,1.166,4.042,0.053l3.904-3.804L11.924,31.78c-0.021,1.566,1.248,2.868,2.815,2.888
			c1.566,0.021,2.867-1.246,2.888-2.813l0.226-17.171l3.804,3.873c1.113,1.143,2.898,1.166,4.041,0.053
			c0.572-0.556,0.863-1.273,0.873-1.994c0.009-0.721-0.263-1.476-0.82-2.017l-8.597-8.825c-0.525-0.54-1.242-0.861-1.994-0.872
			C14.407,4.892,13.651,5.195,13.111,5.722z"/>
	</g>
</g>
</svg>
