<?xml version="1.0" encoding="utf-8"?>
<!-- Generator: Adobe Illustrator 16.0.0, SVG Export Plug-In . SVG Version: 6.00 Build 0)  -->
<!DOCTYPE svg PUBLIC "-//W3C//DTD SVG 1.1//EN" "http://www.w3.org/Graphics/SVG/1.1/DTD/svg11.dtd">
<svg version="1.1" xmlns="http://www.w3.org/2000/svg" xmlns:xlink="http://www.w3.org/1999/xlink" x="0px" y="0px" width="30px"
	 height="37.333px" viewBox="0 0 30 37.333" enable-background="new 0 0 30 37.333" xml:space="preserve">
<g id="Layer_1">
</g>
<g id="Layer_2">
	<g>
		<path stroke="#FFFFFF" stroke-miterlimit="10" d="M28.184,17.636l-8.086-7.697c-1.046-0.993-2.661-0.95-3.655,0.096
			c-0.993,1.049-0.951,2.664,0.098,3.656l3.577,3.393L4.589,17.494c-1.416,0.037-2.548,1.229-2.51,2.647
			c0.037,1.416,1.229,2.547,2.646,2.51l15.527-0.41l-3.363,3.576c-0.993,1.048-0.951,2.662,0.096,3.654
			c0.523,0.498,1.182,0.735,1.834,0.719c0.651-0.018,1.324-0.29,1.793-0.814l7.67-8.085c0.469-0.495,0.734-1.153,0.717-1.834
			C28.98,18.777,28.68,18.104,28.184,17.636z"/>
	</g>
</g>
</svg>
